<?xml version="1.0" encoding="UTF-8"?>
<!DOCTYPE svg PUBLIC "-//W3C//DTD SVG 1.1//EN" "http://www.w3.org/Graphics/SVG/1.1/DTD/svg11.dtd">
<!-- Creator: CorelDRAW X8 -->
<svg xmlns="http://www.w3.org/2000/svg" xml:space="preserve" width="210mm" height="297mm" version="1.1" style="shape-rendering:geometricPrecision; text-rendering:geometricPrecision; image-rendering:optimizeQuality; fill-rule:evenodd; clip-rule:evenodd"
viewBox="0 0 21000 29700"
 xmlns:xlink="http://www.w3.org/1999/xlink">
 <defs>
  <style type="text/css">
   <![CDATA[
    .fil2 {fill:#FEFEFE;fill-rule:nonzero}
    .fil1 {fill:#393185;fill-rule:nonzero}
    .fil0 {fill:#362F7A;fill-rule:nonzero}
    .fil3 {fill:url(#id0)}
    .fil9 {fill:url(#id1)}
    .fil8 {fill:url(#id2)}
    .fil5 {fill:url(#id3)}
    .fil4 {fill:url(#id4)}
    .fil6 {fill:url(#id5)}
    .fil7 {fill:url(#id6)}
   ]]>
  </style>
  <linearGradient id="id0" gradientUnits="userSpaceOnUse" x1="10449.4" y1="20810.1" x2="10449.4" y2="106.53">
   <stop offset="0" style="stop-opacity:1; stop-color:#37307D"/>
   <stop offset="1" style="stop-opacity:1; stop-color:#0081C8"/>
  </linearGradient>
  <linearGradient id="id1" gradientUnits="userSpaceOnUse" x1="7273.48" y1="8188.97" x2="10326.1" y2="8188.97">
   <stop offset="0" style="stop-opacity:1; stop-color:#1F4B99"/>
   <stop offset="0" style="stop-opacity:1; stop-color:#1F4B99"/>
   <stop offset="1" style="stop-opacity:1; stop-color:#0081C8"/>
  </linearGradient>
  <linearGradient id="id2" gradientUnits="userSpaceOnUse" x1="10164.6" y1="10665" x2="10164.6" y2="9113.11">
   <stop offset="0" style="stop-opacity:1; stop-color:#FFED00"/>
   <stop offset="1" style="stop-opacity:1; stop-color:#F49712"/>
  </linearGradient>
  <linearGradient id="id3" gradientUnits="userSpaceOnUse" x1="8832.03" y1="10887.7" x2="8832.03" y2="4426.18">
   <stop offset="0" style="stop-opacity:1; stop-color:#124B8E"/>
   <stop offset="1" style="stop-opacity:1; stop-color:#006AB3"/>
  </linearGradient>
  <linearGradient id="id4" gradientUnits="userSpaceOnUse" x1="6948.45" y1="7802.24" x2="10729.3" y2="7802.24">
   <stop offset="0" style="stop-opacity:1; stop-color:#FFED00"/>
   <stop offset="0.65098" style="stop-opacity:1; stop-color:#E53A24"/>
   <stop offset="1" style="stop-opacity:1; stop-color:#E53A24"/>
  </linearGradient>
  <linearGradient id="id5" gradientUnits="userSpaceOnUse" xlink:href="#id2" x1="10031.9" y1="8780.52" x2="10425" y2="8780.52">
  </linearGradient>
  <linearGradient id="id6" gradientUnits="userSpaceOnUse" xlink:href="#id2" x1="8222.73" y1="11651.3" x2="13076.3" y2="11651.3">
  </linearGradient>
 </defs>
 <g id="Layer_x0020_1">
  <metadata id="CorelCorpID_0Corel-Layer"/>
  <path class="fil0" d="M9391 24575c0,116 -46,206 -138,268 -92,62 -225,93 -400,93 -175,0 -309,-31 -400,-93 -92,-62 -138,-152 -138,-268l0 -748c0,-117 46,-206 138,-269 91,-62 225,-93 400,-93 175,0 308,31 400,93 92,63 138,152 138,269l0 139 -341 0 0 -154c0,-94 -63,-142 -187,-142 -125,0 -187,48 -187,142l0 777c0,93 62,140 187,140 124,0 187,-47 187,-140l0 -205 341 0 0 191z"/>
  <path class="fil0" d="M9700 23558c89,-62 222,-93 397,-93 175,0 307,31 397,93 89,63 134,152 134,269l0 45 -341 0 0 -60c0,-49 -15,-85 -46,-108 -31,-22 -76,-34 -134,-34 -60,0 -104,12 -135,34 -31,23 -46,59 -46,108 0,61 26,113 77,159 51,45 129,96 231,154 86,49 155,92 207,130 53,38 97,83 135,137 37,53 55,114 55,183 0,116 -45,206 -137,268 -92,62 -226,93 -401,93 -175,0 -308,-31 -400,-93 -92,-62 -138,-152 -138,-268l0 -89 341 0 0 103c0,93 63,140 187,140 125,0 188,-47 188,-140 0,-60 -26,-113 -78,-158 -51,-45 -128,-97 -231,-154 -85,-50 -154,-93 -207,-131 -52,-37 -97,-83 -134,-136 -37,-54 -56,-115 -56,-183 0,-117 45,-206 135,-269z"/>
  <polygon class="fil0" points="11199,23481 11199,24920 10838,24920 10838,23481 "/>
  <path class="fil0" d="M11823 24129l141 0c72,0 126,-12 162,-35 36,-23 54,-63 54,-117l0 -142c0,-52 -14,-90 -44,-113 -29,-23 -76,-35 -139,-35l-174 0 0 442zm367 725c-4,-20 -6,-57 -6,-111l0 -226c0,-66 -19,-112 -56,-141 -37,-28 -98,-42 -181,-42l-124 0 0 586 -361 0 0 -1439 545 0c185,0 321,27 406,82 86,54 128,137 128,249l0 113c0,148 -78,246 -236,292 85,22 147,59 184,110 37,51 56,117 56,196l0 222c0,41 2,75 6,100 5,25 16,50 33,75l-367 0c-14,-23 -22,-45 -27,-66z"/>
  <path class="fil1" d="M1949 26372l-344 0c-22,0 -32,11 -32,32l0 130c0,36 -21,53 -62,53l-181 0c-41,0 -62,-17 -62,-53l0 -670c0,-57 -10,-99 -31,-125 -21,-26 -57,-39 -107,-39l-34 0c-43,0 -63,-19 -63,-56l0 -129c0,-37 20,-56 63,-56l34 0c143,0 252,34 328,103 77,69 115,166 115,292l0 250c0,21 10,33 32,33l344 0c22,0 32,-12 32,-33l0 -372c0,-22 -10,-32 -32,-32l-96 0c-58,0 -87,-19 -87,-56l0 -132c0,-35 29,-53 87,-53l605 0c43,0 63,18 63,53l0 132c0,37 -20,56 -63,56l-140 0c-21,0 -31,10 -31,32l0 1114c0,35 -21,53 -63,53l-181 0c-41,0 -62,-18 -62,-53l0 -442c0,-21 -10,-32 -32,-32zm894 527l-181 0c-42,0 -62,-18 -62,-53l0 -1114c0,-22 -11,-32 -32,-32l-141 0c-42,0 -63,-19 -63,-56l0 -132c0,-35 21,-53 63,-53l650 0c42,0 63,18 63,53l0 132c0,37 -21,56 -63,56l-140 0c-22,0 -32,10 -32,32l0 1114c0,35 -21,53 -62,53zm660 -862l0 -305c0,-20 -9,-30 -26,-32l-431 0c-42,0 -63,-19 -63,-56l0 -132c0,-35 21,-53 63,-53l917 0c42,0 62,18 62,53l0 132c0,37 -20,56 -62,56l-123 0c-21,0 -31,10 -31,32l0 321c0,91 -28,164 -83,220 -54,55 -129,83 -223,83l-13 0 324 453c10,12 15,25 15,39 0,34 -18,51 -54,51l-207 0c-22,0 -41,-10 -55,-30l-297 -428 -76 -88 0 -166c0,-20 8,-36 22,-49 15,-12 34,-18 57,-18l193 0c61,0 91,-27 91,-83zm861 261l0 211c0,59 12,100 36,123 24,23 71,34 142,36l24 0c42,0 63,18 63,55l0 120c0,38 -21,56 -63,56l-102 0c-139,0 -242,-33 -307,-100 -65,-66 -97,-165 -97,-300l0 -217c0,-125 39,-221 119,-290 79,-69 189,-103 332,-103l277 0c21,0 31,-11 31,-32l0 -125c0,-20 -9,-30 -26,-32l-862 0c-42,0 -62,-19 -62,-56l0 -132c0,-35 20,-53 62,-53l1366 0c42,0 63,18 63,53l0 132c0,37 -21,56 -63,56l-141 0c-21,0 -31,10 -31,32l0 1114c0,35 -21,53 -63,53l-180 0c-42,0 -63,-18 -63,-53l0 -677c0,-22 -10,-32 -31,-32l-233 0c-127,0 -191,53 -191,161zm2594 -566l0 190 11 0c40,-61 114,-91 224,-91l49 0c142,0 251,34 328,103 78,69 117,165 117,290l0 97c-3,123 -41,220 -117,289 -75,70 -185,104 -328,104l-96 0c-42,0 -63,-18 -63,-55l0 -132c0,-35 21,-53 63,-53l50 0c126,0 190,-56 190,-166l0 -70c0,-111 -67,-166 -201,-166l-59 0c-112,0 -168,48 -168,145l0 626c0,38 -21,56 -63,56l-174 0c-40,0 -60,-18 -60,-56l0 -219 -11 0c-40,60 -115,90 -225,90l-49 0c-142,0 -251,-34 -328,-103 -78,-68 -116,-165 -116,-290l0 -97c2,-123 40,-219 116,-289 76,-69 185,-104 328,-104l97 0c41,0 62,19 62,56l0 132c0,35 -21,53 -62,53l-50 0c-127,0 -191,55 -191,166l0 70c0,110 67,166 201,166l60 0c112,0 168,-49 168,-146l0 -596c0,-22 -11,-32 -32,-32l-789 0c-42,0 -62,-19 -62,-56l0 -132c0,-35 20,-53 62,-53l1941 0c42,0 63,18 63,53l0 132c0,37 -21,56 -63,56l-792 0c-20,0 -31,10 -31,32zm1207 1167l-181 0c-41,0 -62,-18 -62,-53l0 -1114c0,-22 -10,-32 -32,-32l-140 0c-43,0 -63,-19 -63,-56l0 -132c0,-35 20,-53 63,-53l649 0c43,0 63,18 63,53l0 132c0,37 -20,56 -63,56l-140 0c-22,0 -32,10 -32,32l0 1114c0,35 -21,53 -62,53zm997 -421c-94,0 -141,-78 -141,-235 0,-82 31,-148 91,-197 60,-49 137,-74 233,-74l402 0c21,0 32,-10 32,-32l0 -208c0,-20 -9,-30 -27,-32l-809 0c-42,0 -63,-19 -63,-56l0 -132c0,-35 21,-53 63,-53l1313 0c42,0 63,18 63,53l0 132c0,37 -21,56 -63,56l-141 0c-21,0 -32,10 -32,32l0 1114c0,35 -20,53 -62,53l-180 0c-42,0 -62,-18 -62,-53l0 -599c0,-21 -11,-32 -32,-32l-282 0c-34,0 -59,1 -76,5 -44,7 -65,34 -65,80l24 125c0,36 -20,53 -58,53l-128 0zm2261 -746l0 1111c0,38 -20,56 -63,56l-182 0c-40,0 -60,-18 -60,-56l0 -198 -11 0c-17,26 -47,48 -91,65 -44,17 -93,25 -149,25l-78 0c-142,0 -251,-34 -329,-103 -78,-68 -117,-165 -117,-290l0 -109c1,-123 39,-219 116,-288 75,-70 184,-105 327,-105l144 0c42,0 62,19 62,56l0 132c0,35 -20,53 -62,53l-89 0c-127,0 -191,56 -191,166l0 81c0,56 15,97 43,125 29,28 77,42 143,42l78 0c72,0 124,-18 155,-53 32,-34 49,-78 49,-130l0 -580c0,-22 -11,-32 -32,-32l-861 0c-42,0 -63,-19 -63,-56l0 -132c0,-35 21,-53 63,-53l1371 0c42,0 63,18 63,53l0 132c0,37 -21,56 -63,56l-142 0c-20,0 -31,10 -31,32zm557 1167l-181 0c-41,0 -62,-18 -62,-53l0 -1114c0,-22 -10,-32 -32,-32l-140 0c-43,0 -63,-19 -63,-56l0 -132c0,-35 20,-53 63,-53l650 0c42,0 62,18 62,53l0 132c0,37 -20,56 -62,56l-141 0c-22,0 -32,10 -32,32l0 1114c0,35 -21,53 -62,53zm569 -806l-227 0c-42,0 -63,-18 -63,-53l0 -132c0,-37 21,-56 63,-56l731 0c42,0 62,19 62,56l0 132c0,35 -20,53 -62,53l-131 0c-114,0 -172,54 -172,163l0 61c0,106 63,159 188,159l131 0c67,0 119,-17 155,-52 36,-35 54,-82 54,-144l0 -548c0,-22 -11,-32 -32,-32l-1062 0c-43,0 -63,-19 -63,-56l0 -132c0,-35 20,-53 63,-53l1574 0c42,0 63,18 63,53l0 132c0,37 -21,56 -63,56l-141 0c-21,0 -32,10 -32,32l0 1111c0,38 -20,56 -62,56l-185 0c-40,0 -60,-18 -60,-56l0 -237 -11 0c-42,74 -126,110 -253,110l-128 0c-141,0 -249,-32 -324,-98 -74,-66 -112,-160 -112,-285l0 -48c0,-98 33,-159 99,-183l0 -9zm1593 806l-180 0c-42,0 -63,-18 -63,-53l0 -1114c0,-22 -10,-32 -31,-32l-141 0c-42,0 -63,-19 -63,-56l0 -132c0,-35 21,-53 63,-53l650 0c42,0 63,18 63,53l0 132c0,37 -21,56 -63,56l-141 0c-21,0 -32,10 -32,32l0 1114c0,35 -20,53 -62,53zm660 -862l0 -305c0,-20 -8,-30 -25,-32l-431 0c-42,0 -63,-19 -63,-56l0 -132c0,-35 21,-53 63,-53l916 0c42,0 63,18 63,53l0 132c0,37 -21,56 -63,56l-123 0c-20,0 -31,10 -31,32l0 321c0,91 -27,164 -82,220 -55,55 -130,83 -224,83l-12 0 323 453c11,12 16,25 16,39 0,34 -19,51 -55,51l-206 0c-23,0 -41,-10 -55,-30l-298 -428 -75 -88 0 -166c0,-20 7,-36 22,-49 15,-12 33,-18 56,-18l193 0c61,0 91,-27 91,-83zm1742 404l-243 0c-234,0 -352,-98 -352,-295l0 -35c0,-92 32,-162 96,-210 62,-48 148,-72 256,-72l222 0c21,0 32,-11 32,-32l0 -65c0,-22 -11,-32 -32,-32l-718 0c-42,0 -62,-18 -62,-53l0 -135c0,-35 20,-53 62,-53l1251 0c42,0 63,18 63,53l0 135c0,35 -21,53 -63,53l-167 0c-21,0 -31,10 -31,32l0 208c0,85 -52,127 -155,127l-378 0c-30,0 -50,6 -61,17 -11,12 -17,31 -17,57l0 9c0,42 26,63 78,63l264 0c105,0 189,22 249,69 60,46 90,114 90,204l0 110c0,93 -30,167 -91,221 -61,55 -144,82 -248,82l-180 0c-84,0 -138,-22 -162,-65l-11 0 0 160c0,35 -20,53 -63,53l-174 0c-43,0 -63,-18 -63,-53l0 -435c0,-35 20,-53 63,-53l174 0c43,0 63,18 63,53l0 10c0,65 39,97 118,97l190 0c30,0 51,-6 62,-18 11,-11 17,-30 17,-56l0 -88c0,-42 -26,-63 -79,-63zm52 -1428l0 166c0,36 -19,54 -57,54l-212 0c-38,0 -57,-18 -57,-54l0 -166c0,-33 19,-50 57,-50l212 0c38,0 57,17 57,50zm1136 1121l0 9c57,20 86,62 86,125l0 153c0,114 -32,204 -98,271 -65,67 -158,101 -280,101l-275 0c-41,0 -62,-18 -62,-53l0 -132c0,-37 21,-56 62,-56l173 0c82,0 134,-16 157,-48 15,-25 23,-61 23,-109l0 -108c0,-102 -60,-153 -183,-153l-68 0c-42,0 -63,-18 -63,-53l0 -148c0,-32 20,-49 60,-49l747 0c22,0 32,-10 32,-32l0 -120c0,-20 -9,-30 -26,-32l-992 0c-43,0 -63,-19 -63,-56l0 -132c0,-35 20,-53 63,-53l1496 0c42,0 63,18 63,53l0 132c0,37 -21,56 -63,56l-141 0c-22,0 -32,10 -32,32l0 1114c0,35 -21,53 -62,53l-181 0c-41,0 -62,-18 -62,-53l0 -679c0,-22 -10,-33 -32,-33l-279 0zm977 344c-94,0 -141,-78 -141,-235 0,-82 30,-148 90,-197 60,-49 138,-74 233,-74l402 0c22,0 32,-10 32,-32l0 -208c0,-20 -9,-30 -26,-32l-809 0c-43,0 -63,-19 -63,-56l0 -132c0,-35 20,-53 63,-53l1313 0c42,0 63,18 63,53l0 132c0,37 -21,56 -63,56l-141 0c-21,0 -32,10 -32,32l0 1114c0,35 -21,53 -62,53l-181 0c-41,0 -62,-18 -62,-53l0 -599c0,-21 -10,-32 -32,-32l-282 0c-33,0 -58,1 -75,5 -44,7 -65,34 -65,80l23 125c0,36 -19,53 -57,53l-128 0z"/>
  <path class="fil1" d="M6665 22145l276 0c16,0 23,-10 23,-30l0 -331c0,-20 -7,-29 -23,-29l-224 0c-15,0 -23,9 -23,29l0 213c0,70 -10,117 -29,140l0 8zm44 678c0,30 -13,45 -40,45l-153 0c-16,0 -30,-9 -40,-28l-221 -397 -55 -81 0 -155c0,-18 5,-33 16,-45 11,-11 25,-17 42,-17l143 0c44,0 67,-25 67,-77l0 -284c0,-20 -8,-29 -23,-29l-315 0c-31,0 -46,-18 -46,-54l0 -120c0,-33 15,-50 46,-50l1188 0c31,0 46,17 46,50l0 122c0,35 -15,52 -46,52l-105 0c-15,0 -23,9 -23,29l0 1035c0,33 -15,49 -46,49l-133 0c-31,0 -47,-16 -47,-49l0 -421c0,-20 -7,-30 -23,-30l-481 0 238 416c7,15 11,28 11,39zm962 -1292l104 0c31,0 47,17 47,50l0 122c0,35 -16,52 -47,52l-104 0c-16,0 -23,9 -23,29l0 1035c0,33 -16,49 -46,49l-134 0c-31,0 -46,-16 -46,-49l0 -1035c0,-20 -8,-29 -23,-29l-104 0c-32,0 -47,-17 -47,-52l0 -122c0,-33 15,-50 47,-50l104 0c15,0 23,-9 23,-30l0 -161c0,-60 -9,-101 -27,-125 -18,-24 -51,-35 -99,-35 -48,0 -80,11 -98,34 -18,23 -27,64 -27,124l0 11c0,34 -14,52 -43,52l-135 0c-32,0 -48,-18 -48,-52l0 -11c0,-123 28,-218 86,-285 57,-67 143,-101 257,-101 115,0 204,28 266,85 62,56 94,140 94,250l0 214c0,21 7,30 23,30zm81 0l1028 0c30,0 46,17 46,52l0 122c0,33 -16,50 -46,50l-80 0c-17,0 -25,9 -25,28l0 182c0,114 -28,201 -86,262 -57,60 -138,90 -244,90l-64 0c-31,0 -46,-17 -46,-52l0 -118c0,-32 15,-49 46,-49l31 0c49,0 85,-10 107,-29 23,-19 34,-54 34,-104l0 -182c0,-19 -8,-28 -25,-28l-301 0c-17,0 -26,9 -26,28l0 596c0,135 71,202 213,202l247 0c32,0 47,17 47,51l0 123c0,32 -15,50 -47,53l-295 0c-121,0 -215,-39 -284,-118 -68,-78 -102,-179 -102,-300l0 -607c0,-19 -8,-28 -25,-28l-103 0c-31,0 -46,-17 -46,-50l0 -122c0,-35 15,-52 46,-52zm1539 614l277 0c15,0 23,-10 23,-30l0 -331c0,-20 -8,-29 -23,-29l-225 0c-15,0 -23,9 -23,29l0 213c0,70 -10,117 -29,140l0 8zm44 678c0,30 -13,45 -40,45l-153 0c-16,0 -30,-9 -40,-28l-220 -397 -56 -81 0 -155c0,-18 5,-33 16,-45 11,-11 25,-17 42,-17l143 0c45,0 67,-25 67,-77l0 -284c0,-20 -8,-29 -23,-29l-315 0c-31,0 -46,-18 -46,-54l0 -120c0,-33 15,-50 46,-50l1188 0c31,0 46,17 46,50l0 122c0,35 -15,52 -46,52l-104 0c-16,0 -23,9 -23,29l0 1035c0,33 -16,49 -47,49l-133 0c-31,0 -46,-16 -46,-49l0 -421c0,-20 -8,-30 -23,-30l-482 0 238 416c8,15 11,28 11,39zm1518 -1292l725 0c30,0 46,17 46,50l0 122c0,35 -16,52 -46,52l-105 0c-15,0 -23,9 -23,29l0 1035c0,33 -15,49 -46,49l-133 0c-32,0 -47,-16 -47,-49l0 -1035c0,-20 -8,-29 -23,-29l-185 0c-16,0 -23,9 -23,29l0 1035c0,33 -16,49 -47,49l-133 0c-31,0 -47,-16 -47,-49l0 -345c0,-21 -7,-31 -23,-31l-150 0c-2,113 -31,200 -89,260 -58,60 -140,90 -247,90l-209 0c-31,0 -46,-17 -46,-51l0 -123c0,-32 15,-49 46,-49l191 0c47,0 80,-10 102,-31 21,-21 31,-55 31,-102l0 -47c0,-47 -10,-81 -30,-101 -21,-20 -55,-30 -103,-30l-87 0c-30,0 -46,-17 -46,-52l0 -118c0,-36 15,-53 45,-53l88 0c47,0 80,-11 102,-31 21,-21 31,-55 31,-103l0 -17c0,-47 -10,-81 -30,-101 -21,-20 -55,-29 -103,-29l-133 0c-31,0 -46,-17 -46,-52l0 -122c0,-33 15,-50 46,-50l164 0c111,0 193,31 245,92 52,60 78,152 78,273l0 20c0,111 -36,187 -109,227l0 9c38,14 66,39 84,75l175 0c16,0 23,-10 23,-30l0 -567c0,-29 8,-52 24,-71 15,-19 37,-28 63,-28zm1331 -167l0 84c0,33 6,55 18,66 11,12 34,17 69,17l209 0c31,0 46,17 46,50l0 124c0,33 -15,50 -46,50l-124 0c-15,0 -23,8 -23,25l0 198c0,78 -38,118 -114,118l-280 0c-22,0 -37,5 -45,16 -9,11 -13,28 -13,53l0 8c0,38 19,58 58,58l195 0c78,0 140,21 184,64 45,43 67,106 67,189l0 103c0,86 -22,155 -67,205 -46,51 -107,76 -184,76l-133 0c-62,0 -102,-20 -120,-60l-8 0 0 148c0,33 -15,50 -46,50l-129 0c-32,0 -47,-17 -47,-50l0 -403c0,-33 15,-50 47,-50l129 0c31,0 46,17 46,50l0 9c0,60 29,90 87,90l141 0c22,0 37,-6 46,-17 8,-10 12,-28 12,-52l0 -82c0,-38 -19,-58 -58,-58l-179 0c-174,0 -261,-91 -261,-274l0 -32c0,-86 23,-151 71,-196 46,-44 110,-66 190,-66l164 0c15,0 23,-10 23,-30l0 -65c0,-17 -8,-25 -23,-25l-531 0c-31,0 -47,-17 -47,-50l0 -124c0,-33 16,-50 47,-50l444 0 0 -8c-27,-13 -41,-44 -41,-93l0 -75c0,-107 31,-192 92,-256 61,-64 140,-96 237,-96l117 0c32,0 47,17 47,52l0 120c0,35 -15,52 -47,52l-102 0c-78,0 -118,45 -118,137zm1205 167l725 0c30,0 46,17 46,50l0 122c0,35 -16,52 -46,52l-105 0c-15,0 -23,9 -23,29l0 1035c0,33 -15,49 -47,49l-133 0c-31,0 -46,-16 -46,-49l0 -1035c0,-20 -8,-29 -23,-29l-186 0c-15,0 -23,9 -23,29l0 1035c0,33 -15,49 -46,49l-133 0c-31,0 -47,-16 -47,-49l0 -345c0,-21 -7,-31 -23,-31l-150 0c-2,113 -32,200 -90,260 -58,60 -140,90 -246,90l-209 0c-31,0 -47,-17 -47,-51l0 -123c0,-32 16,-49 47,-49l191 0c47,0 80,-10 101,-31 22,-21 32,-55 32,-102l0 -47c0,-47 -10,-81 -31,-101 -20,-20 -54,-30 -102,-30l-87 0c-31,0 -46,-17 -46,-52l0 -118c0,-36 15,-53 44,-53l89 0c47,0 80,-11 101,-31 22,-21 32,-55 32,-103l0 -17c0,-47 -10,-81 -31,-101 -20,-20 -54,-29 -102,-29l-133 0c-31,0 -47,-17 -47,-52l0 -122c0,-33 16,-50 47,-50l164 0c111,0 192,31 244,92 52,60 79,152 79,273l0 20c0,111 -36,187 -109,227l0 9c38,14 65,39 83,75l176 0c16,0 23,-10 23,-30l0 -567c0,-29 8,-52 24,-71 15,-19 36,-28 63,-28zm1039 537l0 -284c0,-18 -6,-28 -19,-29l-318 0c-32,0 -47,-17 -47,-52l0 -122c0,-33 15,-50 47,-50l677 0c31,0 47,17 47,50l0 122c0,35 -16,52 -47,52l-91 0c-15,0 -23,9 -23,29l0 299c0,85 -20,152 -60,204 -41,51 -96,77 -166,77l-9 0 239 420c8,12 12,24 12,37 0,31 -14,47 -41,47l-152 0c-17,0 -31,-9 -41,-28l-220 -397 -56 -81 0 -155c0,-18 6,-33 16,-45 11,-11 25,-17 42,-17l143 0c45,0 67,-25 67,-77z"/>
  <path class="fil1" d="M1298 27522l-56 288 -93 0c0,-58 -3,-100 -9,-124 -6,-23 -15,-41 -27,-53 -13,-12 -31,-18 -54,-18l-64 0 -154 780c-3,14 -5,25 -6,33 -1,8 -2,16 -2,25 -1,10 -1,22 -1,35 0,25 5,42 17,52 11,10 28,16 52,18l-10 52 -381 0 10 -52c21,-4 38,-11 50,-21 13,-11 23,-27 32,-48 8,-20 16,-52 25,-94l155 -780 -58 0c-19,0 -34,2 -45,6 -12,3 -22,8 -31,15 -9,7 -18,16 -28,28 -10,12 -21,28 -33,49 -12,21 -26,47 -40,81l-94 0 55 -272 790 0zm266 434l9 3c38,-52 77,-91 117,-115 39,-25 83,-37 132,-37 49,0 87,15 116,46 28,30 42,72 42,126 0,35 -5,76 -14,124l-59 294c-5,25 -8,43 -10,57 -1,13 -2,24 -2,34 0,24 5,41 16,51 10,9 29,15 55,19l-8 52 -298 0 90 -433c13,-62 21,-105 23,-128 3,-23 5,-42 5,-55 0,-24 -5,-42 -14,-53 -9,-12 -23,-18 -40,-18 -15,0 -32,6 -50,19 -18,13 -38,33 -61,60 -22,27 -40,56 -54,86 -13,30 -24,68 -32,113l-79 409 -206 0 182 -900c10,-53 16,-91 16,-115 0,-11 -1,-21 -4,-28 -2,-6 -5,-12 -9,-16 -5,-4 -11,-7 -18,-9 -7,-3 -21,-6 -42,-9l12 -52 214 -13 81 0 -110 488zm1147 489c-49,60 -101,105 -156,134 -56,29 -117,44 -182,44 -56,0 -103,-11 -143,-33 -39,-21 -68,-54 -88,-97 -20,-42 -30,-93 -30,-153 0,-28 3,-63 10,-106 9,-59 23,-111 42,-156 23,-56 54,-105 92,-145 38,-41 82,-72 133,-94 51,-22 106,-32 167,-32 72,0 127,14 164,43 37,29 56,73 56,133 0,40 -7,76 -22,107 -14,31 -39,58 -73,83 -34,25 -81,46 -144,61 -62,15 -137,24 -224,26 -6,31 -9,64 -9,98 0,19 1,38 5,56 3,18 9,33 18,47 8,14 20,25 34,33 14,8 33,13 55,13 42,0 81,-10 114,-29 34,-19 74,-52 120,-101l61 68zm-381 -268c88,-3 156,-22 203,-57 46,-35 69,-84 69,-148 0,-27 -5,-47 -17,-62 -11,-13 -27,-20 -47,-20 -44,0 -84,24 -120,73 -35,49 -65,120 -88,214zm1149 433l-361 0 10 -52c21,-6 36,-15 47,-27 10,-11 19,-27 27,-47 8,-20 15,-50 23,-89l131 -658c6,-31 9,-62 9,-93 0,-22 -4,-39 -14,-49 -9,-10 -24,-17 -45,-21l10 -52 360 0 -10 52c-20,7 -35,16 -45,27 -11,11 -20,27 -28,47 -8,21 -16,50 -23,89l-131 658c-3,14 -5,25 -5,32 -2,8 -3,17 -3,26 -1,10 -1,22 -1,35 0,23 4,39 14,49 9,11 24,17 45,21l-10 52zm897 0l-298 0 90 -433c13,-62 21,-105 24,-128 3,-23 4,-42 4,-55 0,-24 -4,-42 -13,-53 -10,-12 -23,-18 -40,-18 -15,0 -32,6 -50,19 -18,13 -39,33 -61,60 -23,27 -41,56 -54,86 -13,30 -24,68 -32,113l-79 409 -206 0 112 -563c3,-12 6,-31 10,-54 4,-24 6,-44 6,-59 0,-23 -5,-38 -16,-47 -12,-8 -30,-13 -53,-15l11 -53 197 -9 75 0 -41 173 9 3c33,-45 64,-81 92,-107 28,-25 56,-44 84,-55 28,-12 59,-17 93,-17 49,0 88,15 116,46 28,30 42,72 42,126 0,35 -4,76 -14,124l-59 294c-5,25 -8,43 -10,57 -1,13 -2,24 -2,34 0,24 5,41 16,51 11,9 30,15 56,19l-9 52zm861 0l-298 0 89 -433c13,-62 21,-105 24,-128 3,-23 5,-42 5,-55 0,-24 -5,-42 -14,-53 -9,-12 -23,-18 -40,-18 -15,0 -32,6 -50,19 -18,13 -39,33 -61,60 -23,27 -40,56 -54,86 -13,30 -24,68 -32,113l-79 409 -206 0 113 -563c2,-12 6,-31 10,-54 3,-24 6,-44 6,-59 0,-23 -6,-38 -17,-47 -11,-8 -29,-13 -53,-15l11 -53 197 -9 75 0 -41 173 9 3c33,-45 64,-81 92,-107 28,-25 56,-44 84,-55 28,-12 59,-17 93,-17 49,0 88,15 117,46 27,30 42,72 42,126 0,35 -5,76 -15,124l-58 294c-5,25 -9,43 -10,57 -2,13 -3,24 -3,34 0,24 6,41 16,51 11,9 30,15 56,19l-8 52zm421 13c-53,0 -99,-10 -139,-32 -40,-21 -71,-52 -94,-95 -23,-43 -34,-95 -34,-157 0,-23 1,-49 4,-78 4,-36 10,-73 20,-111 11,-43 25,-82 41,-116 19,-38 40,-71 64,-99 24,-28 50,-51 78,-70 28,-18 58,-32 91,-42 39,-11 81,-16 124,-16 59,0 108,12 149,36 40,24 70,57 89,100 19,43 29,94 29,151 0,70 -10,140 -31,211 -21,71 -50,130 -87,178 -37,47 -81,83 -132,106 -51,23 -108,34 -172,34zm-75 -232c0,50 8,87 23,112 14,24 37,37 69,37 18,0 34,-4 51,-13 15,-7 31,-22 47,-42 15,-20 29,-45 42,-75 12,-31 24,-69 36,-114 11,-44 19,-88 25,-131 7,-43 10,-83 10,-121 0,-53 -8,-92 -22,-117 -15,-25 -38,-37 -68,-37 -40,0 -75,21 -104,64 -30,44 -55,111 -76,201 -22,91 -33,170 -33,236zm1264 -572l25 53c-60,177 -199,428 -417,750l-140 0 -66 -607c-5,-43 -10,-73 -16,-91 -6,-17 -14,-30 -23,-38 -9,-7 -23,-13 -41,-14l11 -53 252 0 50 596c72,-114 125,-210 160,-287 34,-78 51,-142 51,-193 0,-20 -4,-35 -13,-46 -9,-10 -24,-16 -45,-17l10 -53 202 0zm647 45l64 -57 81 12 -111 556c-5,28 -10,51 -12,68 -3,17 -4,31 -4,43 0,24 5,41 16,52 10,10 29,17 55,20l-8 52 -275 0 39 -163 -9 -3c-33,46 -63,83 -91,108 -28,26 -56,44 -83,55 -27,11 -58,16 -93,16 -34,0 -63,-9 -89,-26 -25,-18 -45,-45 -60,-83 -15,-38 -22,-87 -22,-145 0,-56 6,-112 17,-169 12,-57 30,-110 52,-159 23,-50 53,-92 87,-127 35,-35 75,-61 119,-80 44,-18 92,-27 144,-27 72,0 132,19 183,57zm-108 251c3,-18 6,-37 8,-58 2,-21 3,-41 3,-60 0,-36 -6,-62 -18,-81 -12,-18 -32,-26 -59,-26 -44,0 -84,25 -118,74 -35,50 -62,117 -84,201 -21,83 -31,159 -31,225 0,39 5,68 15,87 11,19 26,29 48,29 32,0 64,-17 97,-52 33,-34 59,-74 79,-120 20,-47 38,-110 54,-190l6 -29zm816 350c-34,41 -64,72 -91,94 -27,22 -55,38 -84,49 -29,10 -63,15 -101,15 -39,0 -71,-8 -97,-23 -25,-16 -44,-37 -55,-64 -12,-26 -18,-55 -18,-88 0,-25 2,-49 5,-72 4,-23 11,-60 21,-111l74 -346 -97 0 10 -53c30,-2 53,-7 70,-16 17,-9 31,-21 43,-39 11,-17 23,-40 33,-70 10,-30 22,-70 35,-121l172 0 -41 199 174 0 -19 100 -176 0 -80 365c-3,15 -6,31 -9,46 -3,16 -5,30 -7,45 -2,14 -4,26 -4,35 -1,9 -1,17 -1,25 0,25 4,43 12,54 8,12 20,18 36,18 21,0 43,-9 66,-26 23,-17 47,-43 74,-79l55 63zm467 -964l-38 196 -185 0 39 -196 184 0zm-166 896c-5,27 -9,47 -10,59 -1,13 -2,24 -2,32 0,23 5,40 16,50 11,10 30,16 56,20l-8 52 -298 0 111 -556c6,-32 11,-57 14,-75 2,-18 3,-32 3,-45 0,-21 -5,-36 -13,-44 -9,-9 -28,-15 -56,-18l11 -53 210 -9 82 0 -116 587zm474 226c-53,0 -99,-10 -139,-32 -40,-21 -71,-52 -94,-95 -23,-43 -34,-95 -34,-157 0,-23 1,-49 4,-78 4,-36 10,-73 20,-111 11,-43 25,-82 42,-116 18,-38 39,-71 63,-99 24,-28 50,-51 78,-70 28,-18 58,-32 91,-42 40,-11 81,-16 124,-16 59,0 108,12 149,36 40,24 70,57 89,100 20,43 29,94 29,151 0,70 -10,140 -31,211 -21,71 -50,130 -87,178 -37,47 -81,83 -132,106 -51,23 -108,34 -172,34zm-74 -232c0,50 7,87 22,112 14,24 37,37 69,37 18,0 34,-4 51,-13 16,-7 31,-22 47,-42 15,-20 29,-45 42,-75 12,-31 24,-69 36,-114 11,-44 19,-88 26,-131 6,-43 9,-83 9,-121 0,-53 -7,-92 -22,-117 -15,-25 -37,-37 -68,-37 -40,0 -75,21 -104,64 -30,44 -55,111 -76,201 -21,91 -32,170 -32,236zm1306 219l-297 0 89 -433c13,-62 21,-105 24,-128 3,-23 5,-42 5,-55 0,-24 -5,-42 -14,-53 -9,-12 -23,-18 -40,-18 -15,0 -32,6 -50,19 -18,13 -39,33 -61,60 -23,27 -40,56 -54,86 -13,30 -24,68 -32,113l-79 409 -206 0 113 -563c2,-12 6,-31 10,-54 3,-24 6,-44 6,-59 0,-23 -6,-38 -17,-47 -11,-8 -29,-13 -53,-15l11 -53 197 -9 75 0 -41 173 9 3c33,-45 64,-81 92,-107 28,-25 56,-44 84,-55 28,-12 59,-17 93,-17 49,0 88,15 116,46 28,30 43,72 43,126 0,35 -5,76 -15,124l-58 294c-5,25 -9,43 -10,57 -2,13 -3,24 -3,34 0,24 6,41 16,51 11,9 30,15 56,19l-9 52zm1322 -1088l-51 257 -92 0c-2,-51 -6,-86 -13,-106 -6,-20 -15,-35 -28,-44 -13,-9 -32,-14 -55,-14l-180 0 -76 383 100 0c19,0 35,-4 48,-11 13,-7 26,-18 37,-34 11,-17 22,-39 33,-68l79 0 -69 324 -74 0c0,-31 -2,-54 -5,-71 -3,-16 -9,-28 -18,-35 -9,-8 -25,-12 -47,-12l-102 0 -85 426 162 0c21,0 37,-2 49,-5 12,-3 23,-8 32,-15 10,-7 22,-18 34,-33 13,-15 26,-34 39,-57 12,-23 25,-51 39,-84l97 0 -66 287 -682 0 10 -52c20,-6 36,-15 47,-27 10,-11 19,-27 27,-47 8,-20 15,-50 23,-89l130 -658c7,-31 10,-62 10,-93 0,-22 -5,-39 -14,-49 -9,-10 -24,-17 -46,-21l10 -52 697 0zm688 1088l-298 0 89 -433c13,-62 22,-105 24,-128 3,-23 5,-42 5,-55 0,-24 -5,-42 -14,-53 -9,-12 -23,-18 -40,-18 -15,0 -32,6 -50,19 -18,13 -38,33 -61,60 -22,27 -40,56 -54,86 -13,30 -24,68 -32,113l-79 409 -206 0 113 -563c2,-12 6,-31 10,-54 4,-24 6,-44 6,-59 0,-23 -6,-38 -17,-47 -11,-8 -29,-13 -53,-15l11 -53 197 -9 75 0 -40 173 8 3c33,-45 64,-81 92,-107 28,-25 57,-44 85,-55 27,-12 58,-17 92,-17 50,0 88,15 117,46 28,30 42,72 42,126 0,35 -5,76 -14,124l-59 294c-5,25 -9,43 -10,57 -2,13 -3,24 -3,34 0,24 6,41 17,51 10,9 29,15 55,19l-8 52zm208 67c-13,17 -22,34 -27,49 -5,15 -7,32 -7,50 0,36 11,63 34,81 23,18 57,27 102,27 34,0 64,-6 91,-18 26,-13 51,-33 74,-60 22,-29 43,-70 62,-125 20,-55 38,-129 56,-222l-9 -7c-32,43 -60,77 -87,101 -26,25 -53,43 -80,54 -28,11 -59,16 -94,16 -33,0 -62,-9 -88,-26 -25,-18 -46,-45 -61,-83 -15,-38 -22,-87 -22,-145 0,-73 9,-145 28,-216 20,-71 47,-132 82,-183 35,-51 79,-91 131,-120 52,-29 112,-43 180,-43 34,0 65,4 94,12 28,8 57,23 87,45l64 -57 81 12 -62 312c-10,51 -19,100 -28,147l-45 245c-12,67 -25,122 -37,164 -12,37 -25,69 -39,95 -12,24 -27,46 -44,65 -16,19 -33,35 -52,49 -20,14 -41,26 -65,36 -27,11 -58,19 -91,25 -36,6 -77,10 -123,10 -67,0 -123,-7 -169,-20 -46,-14 -80,-34 -102,-60 -22,-27 -33,-61 -33,-100 0,-33 10,-65 31,-94 22,-29 53,-57 94,-84l74 68zm437 -563c8,-40 12,-78 12,-115 0,-37 -6,-64 -18,-83 -12,-18 -32,-26 -59,-26 -43,0 -82,24 -116,71 -35,48 -63,115 -84,199 -23,86 -33,162 -33,230 0,39 5,68 15,87 10,19 26,29 48,29 20,0 41,-8 62,-22 22,-14 44,-37 67,-68 23,-30 43,-67 58,-110 16,-43 30,-97 42,-163l6 -29zm742 -613l-37 196 -186 0 40 -196 183 0zm-166 896c-5,27 -8,47 -10,59 -1,13 -2,24 -2,32 0,23 6,40 17,50 10,10 29,16 55,20l-8 52 -298 0 111 -556c7,-32 11,-57 14,-75 2,-18 3,-32 3,-45 0,-21 -4,-36 -13,-44 -9,-9 -28,-15 -56,-18l11 -53 210 -9 82 0 -116 587zm913 213l-298 0 90 -433c13,-62 21,-105 24,-128 3,-23 4,-42 4,-55 0,-24 -4,-42 -14,-53 -9,-12 -22,-18 -39,-18 -16,0 -32,6 -50,19 -18,13 -39,33 -61,60 -23,27 -41,56 -54,86 -13,30 -24,68 -33,113l-78 409 -206 0 112 -563c3,-12 6,-31 10,-54 4,-24 6,-44 6,-59 0,-23 -5,-38 -16,-47 -12,-8 -30,-13 -53,-15l10 -53 198 -9 75 0 -41 173 9 3c33,-45 64,-81 92,-107 28,-25 56,-44 84,-55 28,-12 59,-17 93,-17 49,0 88,15 116,46 28,30 42,72 42,126 0,35 -4,76 -14,124l-59 294c-5,25 -8,43 -10,57 -1,13 -2,24 -2,34 0,24 5,41 16,51 11,9 30,15 56,19l-9 52zm753 -165c-48,60 -100,105 -156,134 -56,29 -117,44 -181,44 -57,0 -104,-11 -143,-33 -40,-21 -69,-54 -89,-97 -20,-42 -30,-93 -30,-153 0,-28 4,-63 10,-106 9,-59 23,-111 42,-156 23,-56 54,-105 92,-145 38,-41 82,-72 133,-94 51,-22 107,-32 167,-32 72,0 127,14 164,43 37,29 56,73 56,133 0,40 -7,76 -22,107 -14,31 -39,58 -73,83 -33,25 -81,46 -143,61 -62,15 -137,24 -225,26 -6,31 -9,64 -9,98 0,19 2,38 5,56 3,18 9,33 18,47 9,14 20,25 34,33 15,8 33,13 55,13 42,0 81,-10 115,-29 33,-19 73,-52 120,-101l60 68zm-380 -268c88,-3 155,-22 202,-57 46,-35 69,-84 69,-148 0,-27 -5,-47 -16,-62 -12,-13 -28,-20 -48,-20 -44,0 -84,24 -119,73 -36,49 -65,120 -88,214zm1105 446c-53,0 -99,-10 -139,-32 -40,-21 -71,-52 -94,-95 -23,-43 -34,-95 -34,-157 0,-23 1,-49 4,-78 4,-36 10,-73 20,-111 11,-43 25,-82 42,-116 18,-38 39,-71 63,-99 24,-28 50,-51 78,-70 28,-18 58,-32 91,-42 40,-11 81,-16 124,-16 59,0 108,12 149,36 40,24 70,57 89,100 20,43 29,94 29,151 0,70 -10,140 -31,211 -21,71 -50,130 -87,178 -37,47 -81,83 -132,106 -51,23 -108,34 -172,34zm-74 -232c0,50 7,87 22,112 14,24 37,37 69,37 18,0 34,-4 51,-13 16,-7 31,-22 47,-42 15,-20 29,-45 42,-75 12,-31 24,-69 36,-114 11,-44 19,-88 25,-131 7,-43 10,-83 10,-121 0,-53 -7,-92 -22,-117 -15,-25 -38,-37 -68,-37 -40,0 -75,21 -104,64 -30,44 -55,111 -76,201 -22,91 -32,170 -32,236zm643 -472l10 -53c20,-2 35,-5 45,-8 9,-3 18,-8 25,-14 7,-6 14,-15 20,-29 6,-14 13,-36 20,-66 12,-50 27,-92 46,-126 18,-32 41,-62 70,-87 30,-24 64,-42 103,-54 39,-11 82,-17 129,-17 18,0 38,1 60,3 22,1 47,6 74,12l-32 159 -92 0c-2,-33 -7,-56 -15,-70 -7,-14 -20,-21 -36,-21 -11,0 -20,3 -29,7 -9,6 -17,14 -25,26 -8,12 -16,30 -23,53 -8,23 -16,56 -24,98l-18 87 137 0 -20 100 -137 0 -130 667c-17,85 -40,156 -70,212 -31,56 -70,98 -119,126 -48,28 -107,43 -177,43 -22,0 -45,-4 -68,-10l20 -87c13,4 29,6 47,6 21,0 39,-3 53,-10 13,-7 25,-18 36,-34 12,-17 22,-41 32,-72 9,-31 20,-75 31,-132l143 -709 -86 0zm1063 691l-362 0 10 -52c21,-6 36,-15 47,-27 10,-11 20,-27 27,-47 8,-20 15,-50 23,-89l131 -658c6,-31 9,-62 9,-93 0,-22 -4,-39 -13,-49 -10,-10 -25,-17 -46,-21l10 -52 361 0 -10 52c-20,7 -36,16 -46,27 -11,11 -20,27 -28,47 -8,21 -16,50 -23,89l-131 658c-3,14 -4,25 -5,32 -2,8 -2,17 -3,26 -1,10 -1,22 -1,35 0,23 5,39 14,49 9,11 24,17 46,21l-10 52zm896 0l-297 0 89 -433c13,-62 21,-105 24,-128 3,-23 4,-42 4,-55 0,-24 -4,-42 -13,-53 -9,-12 -23,-18 -40,-18 -15,0 -32,6 -50,19 -18,13 -39,33 -61,60 -23,27 -41,56 -54,86 -13,30 -24,68 -32,113l-79 409 -206 0 113 -563c2,-12 5,-31 10,-54 3,-24 5,-44 5,-59 0,-23 -5,-38 -16,-47 -11,-8 -29,-13 -53,-15l11 -53 197 -9 75 0 -41 173 9 3c33,-45 64,-81 92,-107 28,-25 56,-44 84,-55 28,-12 59,-17 93,-17 49,0 88,15 116,46 28,30 42,72 42,126 0,35 -4,76 -14,124l-58 294c-5,25 -9,43 -10,57 -2,13 -3,24 -3,34 0,24 5,41 16,51 11,9 30,15 56,19l-9 52zm719 -900c3,-14 7,-33 10,-58 4,-25 6,-44 6,-57 0,-11 -1,-21 -3,-28 -2,-6 -6,-12 -10,-16 -4,-4 -10,-7 -17,-9 -7,-3 -21,-6 -43,-9l12 -52 215 -13 81 0 -181 907c-5,26 -9,48 -12,66 -3,18 -5,33 -5,45 0,24 6,41 16,52 11,10 29,17 56,20l-8 52 -275 0 38 -163 -9 -3c-33,46 -63,83 -91,108 -27,26 -55,44 -82,55 -27,11 -58,16 -94,16 -33,0 -63,-9 -88,-26 -25,-18 -45,-45 -60,-83 -15,-38 -23,-87 -23,-145 0,-56 6,-112 18,-169 12,-57 29,-110 52,-159 23,-50 51,-92 86,-127 35,-35 74,-61 119,-80 44,-18 92,-27 145,-27 42,0 83,8 123,24l24 -121zm-73 405c3,-17 6,-35 8,-56 2,-21 3,-42 3,-62 0,-36 -5,-62 -18,-81 -12,-18 -31,-26 -58,-26 -45,0 -84,25 -119,74 -34,50 -62,117 -83,201 -21,83 -32,159 -32,225 0,39 5,68 16,87 10,19 26,29 48,29 31,0 63,-17 96,-52 33,-34 60,-74 80,-120 20,-47 37,-110 53,-190l6 -29zm749 -614l-37 196 -186 0 39 -196 184 0zm-166 896c-5,27 -8,47 -10,59 -1,13 -2,24 -2,32 0,23 6,40 16,50 11,10 30,16 56,20l-8 52 -298 0 111 -556c7,-32 11,-57 14,-75 2,-18 3,-32 3,-45 0,-21 -5,-36 -13,-44 -9,-9 -28,-15 -56,-18l11 -53 210 -9 82 0 -116 587zm807 -533l64 -57 81 12 -111 556c-5,28 -10,51 -12,68 -3,17 -4,31 -4,43 0,24 5,41 16,52 10,10 29,17 55,20l-8 52 -275 0 39 -163 -9 -3c-33,46 -63,83 -91,108 -28,26 -56,44 -83,55 -27,11 -58,16 -93,16 -34,0 -63,-9 -89,-26 -25,-18 -45,-45 -60,-83 -15,-38 -22,-87 -22,-145 0,-56 6,-112 17,-169 12,-57 30,-110 52,-159 23,-50 52,-92 87,-127 35,-35 75,-61 119,-80 44,-18 92,-27 144,-27 72,0 132,19 183,57zm-109 251c4,-18 7,-37 9,-58 2,-21 3,-41 3,-60 0,-36 -6,-62 -18,-81 -12,-18 -32,-26 -59,-26 -44,0 -84,25 -118,74 -35,50 -62,117 -84,201 -21,83 -31,159 -31,225 0,39 5,68 15,87 11,19 26,29 48,29 32,0 64,-17 97,-52 33,-34 59,-74 79,-120 20,-47 38,-110 54,-190l5 -29z"/>
  <polygon class="fil2" points="10650,11853 10750,11782 10849,11988 10785,12308 10700,12308 10757,12009 "/>
  <polygon class="fil2" points="10661,11869 10784,11833 10839,12021 10746,12252 10685,12226 10746,12048 "/>
  <path class="fil3" d="M11126 2052l-1361 0c-281,-659 -438,-1774 -844,-1931l0 0c-2,-5 -2,-5 -5,-9l0 0c-331,52 -659,116 -983,199l0 0c-214,288 -92,1283 -12,2110l0 0c-421,174 -842,348 -1262,522l0 0c-508,-500 -1070,-1470 -1506,-1463l0 0c0,-2 -2,-2 -5,-5l0 0c-301,184 -592,381 -873,592l0 0c-80,354 408,1219 791,1948l0 0c-324,324 -645,647 -968,968l0 0c-660,-266 -1548,-945 -1946,-769l0 0c-3,0 -3,0 -5,-2l0 0c-209,284 -404,575 -585,881l0 0c55,356 836,970 1471,1498l0 0c-177,422 -351,845 -528,1268l0 0c-231,3 -501,-25 -771,-54l0 0c-558,-58 -1114,-116 -1317,97l0 0 -15 0c-85,336 -152,681 -202,1030l0 0c172,313 1138,579 1929,823l0 0c0,461 -2,919 -5,1376l0 0c-652,281 -1757,438 -1914,849l0 0c-2,0 -7,2 -10,2l0 0c50,351 117,697 202,1035l0 0c284,219 1274,92 2096,13l0 0c171,423 343,848 515,1271l0 0c-496,515 -1456,1085 -1446,1523l0 0 -3 2c182,306 379,603 588,886l0 0c355,77 1207,-415 1923,-801l0 0c321,326 643,649 961,975l0 0c-261,665 -931,1560 -759,1963l0 0c281,214 578,414 881,595l0 0c359,-70 956,-848 1471,-1483l0 0c418,177 839,353 1259,530l0 0c8,719 -271,1809 43,2110l0 0 0 5c338,85 684,154 1035,204l0 0c304,-199 563,-1154 799,-1941l0 0c453,0 908,3 1361,3l0 0c279,659 436,1769 839,1933l0 0c354,-55 702,-124 1040,-211l0 0c202,-307 80,-1284 0,-2098l0 0c421,-176 839,-351 1260,-525l0 0c503,495 1058,1443 1491,1461l0 0c311,-189 612,-394 901,-612l0 0c54,-369 -424,-1210 -799,-1924l0 0c321,-323 642,-647 963,-970l0 0c649,261 1518,918 1926,774l0 0c219,-294 421,-600 605,-913l0 0c-87,-364 -849,-956 -1466,-1468l0 0c174,-426 349,-849 523,-1272l0 0c232,-3 503,25 774,52l0 0c551,57 1099,114 1306,-92l0 0c88,-345 157,-701 209,-1062l0 0c-209,-304 -1147,-560 -1916,-796l0 0 0 -1376c650,-281 1742,-438 1912,-841l0 0c-53,-361 -123,-714 -212,-1060l0 0c-306,-199 -1269,-75 -2076,5l0 0c-171,-423 -346,-849 -520,-1271l0 0c490,-508 1434,-1075 1446,-1511l0 0c-187,-313 -386,-614 -602,-906l0 0c-364,-59 -1200,428 -1909,809l0 0c-321,-323 -642,-649 -963,-973l0 0c261,-661 920,-1552 761,-1958l0 0c-286,-214 -582,-415 -891,-599l0 0c-356,74 -950,853 -1463,1485l0 0c-421,-174 -839,-351 -1260,-528l0 0c-9,-716 267,-1806 -47,-2109l0 0 0 -5c-336,-85 -679,-155 -1030,-205l0 0c-306,190 -563,1155 -802,1946zm-843 2613c204,-3 296,0 0,0l0 0z"/>
  <path class="fil2" d="M9026 13953c-496,556 -993,1134 -1491,1681 826,478 1781,752 2800,752 1095,0 2116,-315 2981,-860 -595,-509 -1273,-1087 -1881,-1607 -387,151 -809,235 -1250,235 -406,0 -796,-71 -1159,-201z"/>
  <path class="fil2" d="M11687 7616c585,-612 1102,-1116 1688,-1732 -878,-568 -1920,-898 -3040,-898 -1107,0 -2139,323 -3010,880 498,575 974,1127 1468,1699 426,-188 897,-294 1392,-294 539,0 1048,124 1502,345z"/>
  <path class="fil2" d="M13428 11865c590,573 1179,1145 1769,1717 497,-849 783,-1839 783,-2896 0,-1035 -275,-2005 -753,-2842 -706,566 -1161,993 -1860,1557 167,404 260,847 260,1312 0,404 -70,791 -199,1152z"/>
  <path class="fil2" d="M7116 9157c-551,-499 -1001,-906 -1596,-1442 -525,865 -827,1882 -827,2971 0,1013 263,1964 722,2789 590,-437 1089,-848 1664,-1280 -215,-449 -335,-952 -335,-1482 0,-560 135,-1088 372,-1556z"/>
  <path class="fil4" d="M7231 7787c-878,1038 -925,2765 1021,3008l0 0c-1339,-3373 3091,-3406 2742,-5986 -435,1582 -2887,1943 -3763,2978l0 0z"/>
  <path class="fil5" d="M10921 4789c-254,922 -1225,1419 -2163,1899l0 0c-632,323 -1228,628 -1585,1050l0 0c-548,647 -742,1475 -494,2110l0 0c154,397 551,897 1563,1024l0 0 129 16 -48 -121c-723,-1821 249,-2612 1277,-3450l0 0c802,-653 1631,-1328 1471,-2518l0 0 -51 -373 -99 363zm-4099 5003c-224,-574 -36,-1360 468,-1955l0 0c337,-399 920,-697 1538,-1013l0 0c848,-434 1721,-880 2107,-1649l0 0c-39,889 -718,1442 -1432,2023l0 0c-1004,818 -2146,1643 -1474,3483l0 0c-671,-113 -1019,-405 -1207,-889l0 0z"/>
  <path class="fil6" d="M10032 8781c0,141 88,255 196,255 109,0 197,-114 197,-255l0 0c0,-142 -88,-256 -197,-256l0 0c-108,0 -196,114 -196,256z"/>
  <path class="fil7" d="M8795 13368l2850 0c-15,-35 -33,-69 -50,-104l0 0c329,-752 744,-1267 1192,-1605l0 0c364,-276 483,-996 301,-1468l0 0c-70,-181 -181,-256 -301,-256l0 0c-147,0 -307,112 -420,281l0 0c-167,323 -180,445 79,420l0 0c306,-482 712,13 160,707l0 0c-391,495 -859,935 -1198,1659l0 0c-248,-268 -599,-420 -963,-460l0 0 0 -99c97,-29 159,-72 159,-121l0 0c0,-48 -62,-92 -159,-121l0 0 0 -199c700,-72 1357,-440 1663,-1129l0 0 -3885 0c281,649 935,1032 1642,1122l0 0 0 208c-93,29 -153,72 -153,119l0 0c0,48 60,91 153,120l0 0 0 125c-465,95 -881,366 -1070,801z"/>
  <path class="fil8" d="M9627 9245c-77,62 -12,334 -2,377l0 0c-1340,204 -1403,1043 -1403,1043l0 0 3885 0c0,0 -101,-848 -1313,-1047l0 0c11,-52 64,-306 -2,-373l0 0c-90,-90 -320,-132 -557,-132 -248,0 -503,46 -608,132l0 0z"/>
  <path class="fil9" d="M9204 6935c-405,227 -852,377 -1226,693l0 0c-184,160 -356,345 -485,563l0 0c-129,217 -210,466 -228,715l0 0c-22,250 12,495 75,727l0 0c67,231 158,450 276,655l0 0c-111,-455 -192,-919 -114,-1350l0 0c42,-214 120,-415 239,-594l0 0c117,-179 268,-338 437,-483l0 0c339,-290 739,-528 1123,-799l0 0c193,-133 382,-277 560,-435l0 0c175,-161 341,-336 465,-537 -350,316 -718,617 -1122,845l0 0z"/>
  <path class="fil2" d="M9327 3757c-85,7 -149,-45 -157,-150 0,-94 77,-159 172,-174 77,-5 139,25 236,97l8 97c-67,70 -164,125 -259,130zm-2193 813c-72,194 -226,376 -298,416 -63,35 -130,-23 -165,-85 -25,-47 -32,-104 15,-132l254 -142 -154 -109 -276 152c-70,20 -125,-15 -152,-65 -20,-40 -23,-72 27,-99l311 -175 -129 -236 234 -132 333 607zm3144 -1722l-1441 100 5 12 -8 -10 -1102 321 13 17 -155 63c-20,-20 -35,-62 -45,-87 -50,-124 45,-214 177,-269 194,-79 358,-7 721,52l-39 -94c-259,-87 -568,-189 -799,-95 -219,90 -301,244 -237,421 13,35 45,92 75,132l-172 72 12 13 -35 15c-335,-219 -663,-369 -761,-324l-201 89 263 160 137 -63c62,-27 269,73 444,192l-119 53 -1 -1 -13 8 -17 7 1 1 -1101 616 13 11 -97 76c-293,-224 -564,-401 -650,-355l-162 84 202 142 94 -65c50,-37 271,122 418,239 -234,-70 -463,-92 -515,-47l-107 89 189 53 70 -65c31,-27 190,-3 316,38l-118 93 -9 -4 -518 537 202 80 179 -187 271 264c-20,52 -62,129 -94,167 -75,77 -152,77 -227,104 -2,-82 -42,-152 -92,-201 -127,-125 -388,-70 -517,67 -65,67 -127,162 -117,281l186 25c20,-115 25,-149 55,-189 12,-20 27,-37 40,-50 60,-62 147,-95 214,-30 40,38 50,110 37,154 -127,140 -157,262 -132,284 18,20 48,15 48,15l164 -2c15,-117 72,-205 87,-219 45,-48 119,5 164,49 62,60 80,150 18,252 -117,119 -344,149 -488,72 -28,-13 -33,-5 -47,10 -18,20 -15,89 17,122 239,77 545,49 659,-72 137,-142 137,-361 8,-486 -10,-10 -20,-17 -35,-27 37,-17 72,-45 95,-62 20,-23 69,-80 99,-125l329 321 216 -35 -838 -816 172 -180 14 9 97 -77 635 821 216 -3 -714 -925 141 -112 350 -194 47 84 -207 115c-89,52 -99,161 -55,248 53,95 180,162 274,170 -7,42 -2,99 18,136 72,130 283,219 420,145 102,-57 244,-209 316,-331l70 127 214 32 -565 -1028 180 -98 4 4 112 -52 418 950 212 52 -473 -1072 131 -59 382 947 209 60 -433 -1082 239 -100 -5 -4 214 -63 99 351 -72 20c-55,17 -75,49 -65,84 5,20 20,40 50,62l174 120c33,22 70,32 97,25 35,-10 68,-57 43,-142l-162 -567 232 -67 283 1000 202 79 -319 -1129 217 -63 5 10 624 -44 20 261c-62,-55 -149,-97 -291,-87 -179,12 -254,154 -244,301 10,169 130,338 316,326 107,-8 185,-32 252,-70l20 306 189 132 -38 -537c50,-125 137,-254 242,-266 60,-3 99,72 104,131 5,72 -44,177 -121,301l124 155c102,-125 152,-274 147,-359 -13,-149 -157,-400 -304,-388 -85,5 -144,47 -209,117l-22 -336 642 -47 -97 -192zm2563 2103c38,-77 30,-127 13,-135 -65,-34 -130,-9 -187,5l-80 -169c77,-54 150,-62 239,-15 142,73 202,326 155,418 -83,162 -294,132 -456,48 -197,-102 -331,-391 -393,-573l97 -32c55,167 177,381 361,475 74,40 209,57 251,-22zm4525 6588l-157 -19 62 -451 157 22 -62 448zm256 580l-191 -40c27,-62 87,-112 161,-94 60,12 100,20 93,67 -13,62 -26,77 -63,67zm68 -318c-142,-30 -284,72 -356,256l-105 -23 17 -77c10,-42 -9,-72 -47,-82 -22,-2 -60,5 -99,25l-167 110c-20,15 -50,49 -52,69 -8,33 2,58 47,67l102 23 -66 314 -410 -142 -181 121 1097 384 -70 203 -960 -373 -187 115 1085 420 -48 130 -9 0 -129 291 -286 -130c-50,-22 -80,-42 -70,-62 0,-2 5,3 5,0 65,-25 95,-57 107,-87 22,-47 -5,-94 -37,-127 -68,-30 -162,-20 -304,30l-582 202 14 134 580 -209c0,87 33,194 192,266l311 140 -130 295 -12 -2 -371 580 -146 -97 151 -239c83,-127 90,-304 -69,-410 -174,-110 -446,-80 -687,-75l-77 119c256,-35 478,-25 654,90 72,47 72,127 23,201l-140 219 -572 -375 -204 72 973 639 -139 219 209 40 606 -940 1 0 2 -5 0 -1 0 0 296 -668 13 -1 196 -520 -7 0 130 -378 -29 1 53 -252 -219 74 -59 284 6 1 -6 19 -404 -140 70 -335 339 72c89,20 293,-62 323,-214 20,-90 -45,-237 -166,-261zm-3313 -7626l-187 358c-67,-13 -159,-30 -234,-70 -57,-32 -102,-77 -97,-147 5,-5 10,-10 15,-19l162 -307 341 185zm-2905 -140c192,43 376,-74 413,-249 3,-17 3,-29 5,-44 33,20 75,37 102,44 28,8 103,20 157,23l-97 448 142 169 244 -1152 237 53 0 39 592 229 -120 321 -420 -164c-67,-25 -120,-5 -140,44 -10,25 -10,58 3,97l50 170c17,37 39,62 54,69 33,13 73,-10 92,-64l38 -95 261 102 -187 490 115 189 416 -1097 179 70 -3 35 279 149 -147 278c-25,53 -50,78 -69,65l2 -2c-20,-65 -52,-102 -80,-117 -47,-25 -94,0 -129,30 -32,64 -30,161 10,311l162 599 129 -7 -167 -602c53,5 110,0 170,-43 22,75 84,177 184,232 37,17 92,45 144,60l-194 368 82 211 548 -1037 226 122 23 -214 -1112 -598 -1 -32 -959 -374 -4 -31 -724 -160 39 214 252 53 -80 373c-52,12 -142,17 -189,7 -105,-22 -144,-84 -207,-137 65,-44 105,-117 120,-186 37,-174 -150,-369 -331,-408 -90,-20 -204,-23 -296,50l77 171c107,-42 137,-57 189,-52 20,0 42,5 60,7 84,20 159,78 139,170 -12,52 -65,99 -109,114 -182,-37 -304,3 -312,37 -4,25 15,45 15,45l90 142c107,-47 209,-47 231,-42 63,12 58,104 45,166 -17,87 -84,150 -204,150 -162,-38 -306,-217 -318,-378 -3,-33 -15,-33 -35,-38 -25,-5 -82,35 -92,80 64,246 249,492 410,527zm3405 597c35,-47 95,-87 137,-52 42,32 37,75 10,110 -35,47 -107,77 -159,37 -30,-25 -15,-62 12,-95zm-117 224c-85,5 -164,38 -214,102 -72,107 -5,379 95,458 73,59 185,98 298,103l-226 245 35 217 794 -858 82 78 74 78 -739 722 23 219 836 -816 114 118 -2 4 398 497 -264 214 -281 -351c-47,-59 -102,-67 -144,-32 -20,15 -35,42 -45,85l-40 171c-2,43 2,73 15,87 20,28 65,30 110,-7l77 -65 176 222 -403 328 5 222 904 -739 164 204 102 -192 -622 -774 2 -5 -32 -33 -15 -19 -1 2 -232 -241 1 -5 -65 -61 -39 -41 -1 3 -163 -153 17 -22 -259 -204 -57 207 94 75 -7 19 90 85 -286 310c-217,47 -351,28 -444,-46 -69,-55 -64,-125 -19,-182 62,-82 146,-45 218,10 40,32 83,75 150,197l52 -289 -199 -157 0 -10c87,15 209,-5 254,-64 79,-115 35,-252 -60,-326 -70,-52 -219,-90 -301,17 -87,130 -85,239 -20,393zm-11098 2702c-102,-47 -109,-119 -92,-186 28,-62 112,-62 212,-15 52,25 82,80 107,124 -70,55 -182,97 -227,77zm1280 -405l206 -70 -961 -657 145 -216 -212 -42 -308 462 14 4 -136 250 -15 -7 -97 214 214 7 3 -6 7 1 59 -109 403 226c67,187 66,304 28,386 -32,74 -102,114 -177,112 -7,-125 -82,-423 -236,-496 -162,-77 -346,-29 -433,160 -77,169 -10,303 132,370 97,38 264,-24 358,-151 20,84 13,179 -7,301 248,12 430,-110 507,-281 39,-84 53,-181 32,-286l292 164 201 -90 -1015 -567 125 -229 -3 0 20 -30 854 580zm-152 7163c35,60 22,137 -92,209 -100,62 -214,-5 -262,-80 -57,-92 -59,-206 -57,-308l47 -30c137,35 299,104 364,209zm-1352 -3894l95 0c65,75 109,177 107,271 0,87 -57,147 -159,147 -95,-7 -152,-92 -160,-189 3,-77 38,-139 117,-229zm1489 3165l-986 624 -117 -190 10 -11 -311 -702 157 -79 286 647c22,49 60,64 95,47 32,-12 47,-50 34,-167 -15,-157 68,-336 155,-375 62,-28 166,17 196,87 5,7 5,17 8,27 -45,55 -52,97 -25,159 20,48 62,53 109,33 28,-13 50,-30 70,-55 45,-50 40,-144 20,-204l179 -460 -124 -5 -130 328c-79,-80 -241,-157 -358,-104 -100,44 -162,218 -197,345l-159 -365 625 -282 52 -211 -1063 478 -98 -222 9 -7 -35 -120 988 -286 82 -204 -1117 321 -65 -223 990 -232 92 -199 -1129 261 -43 -187 5 -2 -79 -637 338 -40 55 448c7,75 50,109 104,105 25,-5 53,-18 85,-48l122 -124c25,-35 37,-65 35,-82 -5,-33 -42,-60 -100,-52l-99 12 -33 -281 515 -65 110 -189 -1152 144 -32 -254 9 -577 262 5c-63,57 -112,140 -112,284 -5,184 129,271 273,274 170,2 346,-102 351,-292 0,-109 -15,-186 -47,-256l304 5 144 -179 -533 -7c-119,-63 -236,-162 -238,-267 0,-62 77,-94 136,-94 73,2 172,59 289,149l162 -112c-112,-114 -257,-177 -341,-179 -149,-3 -408,122 -411,271 0,85 38,149 97,222l-333 -8 12 -652 -199 82 -25 1461 15 -6 123 1001 -1 0 2 7 3 28 3 -1 37 165c-25,20 -67,28 -92,32 -130,30 -202,-74 -234,-216 -47,-206 47,-358 164,-712l-99 25c-125,244 -274,535 -219,782 52,233 191,338 375,303 38,-10 97,-32 142,-55l42 185 16 -12 116 410 62 -48 -57 60 482 1095 -1 2 27 45c-242,246 -435,478 -406,567l60 174 169 -184 -52 -101c-26,-54 145,-242 280,-373l5 7c-94,220 -144,432 -108,487l70 120 79 -179 -54 -82c-20,-30 14,-155 61,-267l486 787 124 -180 -388 -629 209 -132c-27,115 -7,236 53,331 12,20 24,37 42,55 99,112 269,176 405,89 190,-117 219,-375 125,-527 -47,-77 -139,-152 -236,-194l273 -172 23 -219zm12536 -3866l279 -336 40 291 -319 45zm-184 -18c-42,5 -117,-80 -130,-172 -7,-54 -20,-97 38,-106l418 -58 -289 331 -37 5zm-491 -1975c-47,-33 -119,-90 -136,-127 -28,-60 7,-147 64,-175l386 -179 127 277 -441 204zm1060 1235l48 -39 -196 -645 14 -11 -64 -197c22,-22 64,-32 89,-40 125,-42 209,57 252,194 64,202 -18,364 -100,724l95 -32c102,-256 229,-557 151,-799 -74,-226 -221,-321 -400,-268 -38,12 -95,39 -137,67l-50 -156 5 -6 -445 -965 -147 159 64 142 -308 146c-157,73 -252,326 -177,483 15,37 37,67 72,92l-318 149 -48 217 1053 -498 86 187 -9 7 38 117 -974 321 -74 209 1100 -363 26 81 -11 9 95 306 -302 92c-52,15 -87,17 -92,-3 -2,0 5,0 3,-2 32,-63 35,-105 25,-137 -15,-50 -65,-70 -112,-70 -70,20 -135,92 -209,222l-309 540 97 92 304 -545c57,67 149,127 316,74l328 -99 95 313 -28 15 15 102 -420 60c-145,22 -296,224 -276,373 9,72 44,145 92,192l-341 47 -110 194 1152 -164 29 213 -21 8 0 617 -179 0 0 -189c0,-263 -122,-350 -244,-350 -314,0 -530,321 -530,572 0,15 2,25 5,40l-273 174 -34 -71 -100 71 107 157 -57 298 85 0 64 -320 -21 -43 273 -154c28,44 78,64 132,64 80,0 165,-57 165,-164 -8,-75 -85,-119 -160,-119l-34 0 0 -20c0,-157 119,-311 271,-311 164,0 211,114 211,234l0 303 319 0 0 261 199 -84 0 -1043 13 -7 -145 -1043 -33 19zm-14703 -141l-214 28 308 -1085 212 -20 -70 249 1118 323 -177 130 -655 -192 -72 251c-22,88 0,162 82,187 202,57 416,2 652,-107l-39 137c-229,74 -481,184 -680,129 -182,-52 -226,-224 -184,-371l77 -273 -169 -48 -189 662zm11456 -4921l-35 -179 177 -38 30 180 -172 37zm-8995 11920c0,120 -95,214 -214,214 -117,0 -211,-94 -211,-214 0,-119 94,-214 211,-214 119,0 214,95 214,214zm9956 0c0,120 -98,214 -215,214 -117,0 -211,-94 -211,-214 0,-119 94,-214 211,-214 117,0 215,95 215,214zm-3719 1249l222 1155 -239 47 -625 -731 -2 2 159 821 -224 45 -224 -1157 254 -50 607 714 5 0 -154 -803 221 -43zm-1132 155l40 1176 -244 8 -40 -1177 244 -7zm2683 -714l492 1067 -221 105 -493 -1068 222 -104zm734 -117l373 313 -249 162 -127 -473 3 -2zm-261 -147l288 1217 214 -142 -62 -249 361 -236 192 161 224 -144 -981 -761 -236 154zm-871 1388c-18,87 -68,147 -155,177l-226 80 -249 -729 226 -80c95,-33 169,-25 224,25 55,50 102,127 142,231 40,107 53,207 38,296zm-45 -729c-102,-72 -232,-82 -386,-30l-490 172 380 1112 486 -169c156,-55 251,-154 281,-299 32,-144 20,-298 -37,-460 -53,-142 -130,-249 -234,-326zm-6158 -281c45,-132 13,-234 -97,-309 -82,-52 -164,-62 -249,-29 -82,34 -161,107 -234,216 0,3 0,5 -2,10 -55,90 -82,179 -82,266 0,90 40,159 114,209 120,80 234,65 341,-39l204 134c-87,94 -191,152 -306,172 -114,22 -229,-8 -348,-83 -132,-87 -214,-201 -242,-343 -30,-142 10,-296 117,-465 8,-8 13,-15 20,-28 55,-77 112,-139 174,-186 60,-47 125,-77 192,-97 67,-18 134,-20 204,-5 70,12 140,40 204,84 80,53 142,112 182,184 40,70 62,142 65,220 2,74 -15,149 -53,223l-204 -134zm951 674c32,43 50,87 57,135 3,47 -7,102 -35,161 -44,97 -104,160 -179,187 -74,27 -147,35 -219,22 -67,-12 -124,-27 -169,-49 -299,-145 -398,-336 -296,-575l211 99c-25,60 -25,112 3,160 25,47 70,84 127,112 152,72 251,64 293,-23 23,-39 23,-77 0,-107 -22,-32 -64,-72 -127,-122 -34,-29 -67,-54 -91,-72 -103,-74 -172,-152 -212,-224 -37,-74 -32,-162 17,-259 50,-99 122,-161 217,-189 94,-25 204,-7 331,53 147,69 236,154 269,253 32,100 30,194 -8,289l-211 -102c39,-112 -10,-201 -150,-261 -117,-50 -196,-40 -239,37 -25,55 -12,105 35,149 35,28 77,63 125,100 47,37 79,67 97,82 69,55 119,104 154,144zm784 -326l-378 1113 -232 -80 381 -1115 229 82zm1272 846l450 40 -17 214 -453 -40 20 -214zm-431 -298c-20,109 -87,152 -199,129l-296 -60 60 -308 303 60c58,12 97,34 117,67 20,32 25,69 15,112zm-52 -371l-580 -114 -221 1156 234 45 87 -450 253 47c75,18 122,40 137,67 13,30 18,73 8,132 0,15 -5,38 -10,65 -5,30 -8,57 -13,77 -2,23 -4,45 -4,70 -3,22 -3,52 2,82l264 52 5 -32c-20,-10 -30,-28 -33,-55 -2,-25 0,-65 8,-117 5,-15 10,-30 15,-52l7 -50c15,-69 18,-127 5,-172 -10,-44 -42,-82 -97,-111 62,-13 112,-38 152,-83 40,-44 65,-99 77,-164 15,-87 0,-169 -50,-246 -47,-75 -129,-125 -246,-147z"/>
  <path class="fil1" d="M252 29229c6773,-111 13622,-112 20395,0 -6023,98 -12261,132 -20395,0z"/>
 </g>
</svg>
