<svg xmlns="http://www.w3.org/2000/svg" xml:space="preserve" id="tata_trust" viewBox="-150 0 3904 691">
    <g>
        <path d="M180 536V227H34v-40h336v40H224v309z"/>
        <path id="1" class="fil0" d="M414 401h153l-77-154-76 154zM301 536l171-349h36l173 349h-47l-47-94H394l-46 94h-47z"/>
        <path id="2" class="fil0" d="M759 536V227H613v-40h337v40H803v309z"/>
        <path id="3" class="fil0" d="M993 401h153l-77-154-76 154zM881 536l170-349h36l173 349h-47l-47-94H973l-46 94h-46z"/>
        <path id="4" class="fil0" d="M1589 536V227h-147v-40h337v40h-147v309z"/>
        <path id="5" class="fil0" d="M1839 342h154c22 0 39-5 50-14 11-10 17-24 17-43 0-18-6-32-17-43-11-10-27-15-48-15h-156v115zm-43 194V187h200c34 0 61 9 80 26s29 41 29 71c0 25-7 47-22 65-16 18-36 29-60 33l87 154h-48l-87-153h-136v153h-43z"/>
        <path id="6" class="fil0" d="M2218 187v226c0 36 7 60 21 72 13 13 40 19 80 19s66-6 80-19c13-12 20-36 20-72V187h43v237c0 43-11 74-33 93-22 18-59 28-110 28s-88-10-110-28c-23-19-34-50-34-93V187h43z"/>
        <path id="7" class="fil0" d="m2526 483 25-37c24 19 50 33 77 43 26 10 53 15 79 15 32 0 58-6 78-20s30-31 30-53c0-17-7-31-21-42-15-11-35-17-60-19-6-1-15-2-27-2-57-4-96-11-117-21-16-7-28-17-37-30-8-12-12-26-12-41 0-28 12-51 37-70 25-18 58-27 98-27 29 0 58 5 86 15 28 9 55 23 81 42l-26 36c-21-17-44-30-67-39-24-9-48-13-73-13-27 0-48 5-66 15-17 11-25 23-25 39 0 6 1 11 4 17 3 5 7 9 13 14 14 11 45 17 92 20 22 2 39 3 51 4 36 4 64 16 84 35 21 18 31 41 31 69 0 32-14 59-42 80s-66 32-112 32c-34 0-67-5-96-15-30-11-59-26-85-47z"/>
        <path id="8" class="fil0" d="M3006 536V227h-147v-40h337v40h-147v309z"/>
        <path id="9" class="fil0" d="m3181 483 26-37c24 19 50 33 76 43 27 10 54 15 80 15 32 0 58-6 78-20s30-31 30-53c0-17-7-31-21-42-15-11-35-17-60-19-6-1-15-2-27-2-57-4-96-11-117-21-16-7-29-17-37-30-8-12-13-26-13-41 0-28 13-51 38-70 25-18 58-27 98-27 29 0 57 5 86 15 28 9 55 23 80 42l-25 36c-21-17-44-30-68-39-23-9-48-13-73-13-26 0-48 5-65 15-17 11-25 23-25 39 0 6 1 11 4 17 2 5 7 9 12 14 15 11 46 17 93 20 22 2 39 3 51 4 36 4 64 16 84 35 21 18 31 41 31 69 0 32-14 59-42 80-29 21-66 32-112 32-34 0-67-5-97-15-29-11-58-26-85-47z"/>
    </g>
</svg>
