<svg version="1.1" id="Biopatrika-logo" xmlns="http://www.w3.org/2000/svg" xmlns:xlink="http://www.w3.org/1999/xlink" x="0px" y="0px"
	 width="100%" viewBox="0 0 500 500" enable-background="new 0 0 500 500" xml:space="preserve">

<path fill="#D2D2D2" opacity="1.000000" stroke="none" 
	d="
M0.999998,220.468658 
	C1.658713,219.500763 2.856808,219.042328 2.898112,218.496384 
	C4.334857,199.506287 9.513683,181.364532 16.064953,163.668427 
	C24.315956,141.381042 35.160515,120.326744 49.974461,101.622955 
	C58.209080,91.226089 66.818825,81.040421 76.082916,71.564575 
	C90.720459,56.592434 107.598419,44.354317 125.805710,33.990318 
	C141.917007,24.819397 158.733658,17.303856 176.466324,11.776446 
	C190.078110,7.533542 203.855789,4.302339 218.061203,2.939504 
	C218.936768,2.855505 219.752533,2.148443 220.298065,1.365637 
	C240.354233,1.000000 260.708466,1.000000 281.531342,1.000000 
	C282.179657,1.592455 282.276794,2.660167 282.551056,2.707786 
	C289.228302,3.867118 296.058929,4.402236 302.586670,6.104955 
	C313.248047,8.885910 323.745819,12.316214 334.250519,15.667238 
	C340.177490,17.557955 346.031372,19.706789 351.829193,21.967642 
	C367.814056,28.200930 382.565369,36.832401 396.264038,46.976345 
	C407.558380,55.339863 418.604431,64.292168 428.502563,74.235733 
	C450.271912,96.104950 467.722412,121.172478 480.175476,149.549835 
	C488.664459,168.894043 494.870880,188.909134 498.022675,209.839844 
	C498.566925,213.454117 499.504150,217.009232 500.629944,220.295837 
	C501.000000,240.354233 501.000000,260.708466 501.000000,281.531342 
	C500.341309,282.499329 499.151550,282.949890 499.100555,283.505035 
	C497.197937,304.217224 492.146698,324.241364 483.843536,343.179596 
	C477.210602,358.308289 469.708954,373.228851 460.916260,387.185516 
	C453.329285,399.228333 443.684235,410.041870 434.412415,420.942383 
	C412.533783,446.664429 385.040466,464.831207 354.722931,479.078430 
	C337.491608,487.175995 319.354767,492.544159 300.899597,496.859863 
	C295.378448,498.151001 289.591644,498.289215 283.940552,499.058685 
	C283.056458,499.179077 282.247559,499.851501 281.701965,500.634338 
	C261.645782,501.000000 241.291550,501.000000 220.468658,501.000000 
	C219.502884,500.342651 219.054901,499.155640 218.501572,499.104279 
	C196.959091,497.105621 176.465454,491.116852 156.502823,483.038757 
	C137.133469,475.200745 118.828903,465.319977 102.293396,452.603149 
	C91.116928,444.007812 80.257042,434.787781 70.422989,424.708221 
	C54.277622,408.159851 40.834049,389.493896 29.858820,368.987854 
	C19.090117,348.867645 11.571980,327.650452 6.303857,305.580139 
	C4.653315,298.665375 4.092088,291.492981 2.950062,284.451813 
	C2.779413,283.399689 2.155653,282.421021 1.370752,281.704193 
	C1.000000,261.645782 1.000000,241.291550 0.999998,220.468658 
M285.071198,6.231465 
	C277.477936,5.505826 269.899170,4.476144 262.288605,4.114284 
	C243.127777,3.203245 224.036041,4.628295 205.256454,8.264075 
	C155.759018,17.846903 112.966934,40.584312 76.909355,75.758644 
	C60.885170,91.390297 47.617733,109.221741 36.475342,128.698624 
	C16.440502,163.719482 5.951505,201.443924 4.132694,241.593506 
	C3.342119,259.045135 4.833764,276.403229 7.856445,293.667114 
	C16.294447,341.860352 37.425098,383.757721 70.395607,419.642822 
	C87.139702,437.867065 106.494064,453.025665 128.163589,465.158325 
	C170.371765,488.790436 215.394592,499.928314 263.917572,497.230316 
	C282.783630,496.181366 301.151123,493.213776 319.256866,488.123383 
	C358.297974,477.147125 392.431122,457.439545 421.730865,429.547638 
	C439.032318,413.077545 453.554291,394.329712 465.415741,373.481049 
	C485.536072,338.115784 496.293091,300.098602 497.780792,259.571991 
	C498.241791,247.013809 497.124969,234.340698 495.961487,221.791519 
	C493.387787,194.031601 485.122833,167.828949 472.945190,142.832626 
	C459.247955,114.717148 440.980133,90.067368 417.718445,69.023331 
	C401.700226,54.532238 384.328125,42.115761 365.219818,32.144371 
	C340.255310,19.116976 313.831360,10.482903 285.071198,6.231465 
z"/>
<path fill="#FEFEFE" opacity="1.000000" stroke="none" 
	d="
M285.497650,6.362462 
	C313.831360,10.482903 340.255310,19.116976 365.219818,32.144371 
	C384.328125,42.115761 401.700226,54.532238 417.718445,69.023331 
	C440.980133,90.067368 459.247955,114.717148 472.945190,142.832626 
	C485.122833,167.828949 493.387787,194.031601 495.961487,221.791519 
	C497.124969,234.340698 498.241791,247.013809 497.780792,259.571991 
	C496.293091,300.098602 485.536072,338.115784 465.415741,373.481049 
	C453.554291,394.329712 439.032318,413.077545 421.730865,429.547638 
	C392.431122,457.439545 358.297974,477.147125 319.256866,488.123383 
	C301.151123,493.213776 282.783630,496.181366 263.917572,497.230316 
	C215.394592,499.928314 170.371765,488.790436 128.163589,465.158325 
	C106.494064,453.025665 87.139702,437.867065 70.395607,419.642822 
	C37.425098,383.757721 16.294447,341.860352 7.856445,293.667114 
	C4.833764,276.403229 3.342119,259.045135 4.132694,241.593506 
	C5.951505,201.443924 16.440502,163.719482 36.475342,128.698624 
	C47.617733,109.221741 60.885170,91.390297 76.909355,75.758644 
	C112.966934,40.584312 155.759018,17.846903 205.256454,8.264075 
	C224.036041,4.628295 243.127777,3.203245 262.288605,4.114284 
	C269.899170,4.476144 277.477936,5.505826 285.497650,6.362462 
M290.732849,140.962860 
	C294.423035,138.373260 298.113190,135.783661 302.588989,132.642746 
	C297.661560,130.529617 293.804657,128.875580 289.255798,126.992828 
	C286.499908,126.029701 283.744019,125.066574 280.372955,123.793419 
	C277.568512,122.295822 274.764099,120.798225 271.294556,119.008369 
	C268.193115,117.700836 265.091644,116.393295 261.362854,114.788124 
	C258.292145,113.078316 255.221451,111.368507 251.692291,109.176308 
	C248.119354,107.199013 244.546417,105.221718 240.308121,102.986153 
	C237.557068,101.276466 234.806000,99.566780 231.684494,97.312767 
	C228.836304,95.517372 225.988113,93.721985 222.795456,91.345833 
	C219.200562,88.555374 215.605667,85.764908 211.654099,82.394386 
	C202.841873,74.373474 195.533371,65.349007 192.390594,53.214222 
	C190.714661,58.058258 189.152176,62.720592 189.064957,67.410362 
	C188.754807,84.087250 198.822433,94.920372 211.235550,104.976616 
	C214.487396,107.326553 217.739227,109.676491 221.358307,112.589134 
	C224.538254,114.519508 227.718216,116.449875 231.313660,118.890007 
	C234.524704,120.654686 237.735748,122.419373 241.319199,124.741188 
	C244.877914,126.504204 248.436615,128.267227 252.407196,130.566940 
	C254.912308,131.727737 257.417419,132.888519 260.363342,134.581070 
	C263.888672,136.114227 267.414001,137.647385 271.390656,139.684647 
	C274.239929,140.847717 277.089233,142.010788 280.398468,143.678635 
	C284.649811,146.680252 287.064728,142.823822 290.732849,140.962860 
M276.365967,115.703690 
	C278.904053,116.808014 281.442108,117.912331 284.442902,119.533852 
	C287.289001,120.715370 290.135071,121.896896 293.431396,123.609535 
	C306.357574,129.628494 308.211487,128.820847 310.750641,116.053436 
	C310.847687,115.565552 310.851471,115.059868 310.929077,114.567261 
	C311.395447,111.606339 310.626282,109.508804 307.532867,108.279678 
	C302.928589,106.450218 298.468842,104.256989 293.276459,101.966042 
	C290.510376,100.706207 287.744293,99.446365 284.363525,97.824638 
	C281.936005,96.810516 279.508453,95.796394 276.616364,94.302544 
	C274.107391,93.132927 271.598450,91.963318 268.621185,90.306625 
	C265.740356,88.911308 262.859558,87.515991 259.423981,85.702492 
	C255.657135,83.709991 251.890305,81.717484 247.659470,79.243698 
	C243.813766,77.058640 239.968048,74.873589 235.701904,72.190010 
	C232.687225,70.349358 229.672562,68.508713 226.250214,66.100525 
	C223.219925,63.945370 220.189651,61.790218 216.796753,59.098560 
	C209.810776,52.818417 202.911316,46.471748 200.319351,36.435745 
	C192.942780,48.844498 200.150742,67.119408 214.364410,78.565536 
	C217.189941,80.737984 220.015472,82.910431 223.204407,85.659027 
	C227.097565,88.198013 230.990707,90.737007 235.274597,93.816048 
	C238.843628,95.881332 242.412643,97.946625 246.401199,100.553368 
	C250.163773,102.447807 253.926361,104.342247 258.160034,106.759796 
	C261.409058,108.262878 264.658081,109.765968 268.367798,111.749237 
	C270.880920,112.900864 273.394012,114.052490 276.365967,115.703690 
M288.256866,231.982040 
	C285.169983,230.661865 282.083069,229.341690 278.412567,227.639420 
	C275.262665,226.160538 272.112762,224.681671 268.362671,222.829376 
	C264.912231,221.194412 261.461761,219.559464 257.680511,217.724686 
	C257.680511,217.724686 257.294952,217.698151 257.668091,217.193329 
	C258.840851,216.413239 260.013611,215.633133 261.904602,214.937820 
	C268.249756,217.642838 274.594910,220.347855 281.381287,223.591370 
	C285.892578,225.509567 290.403839,227.427765 295.424011,229.800018 
	C298.603516,231.151428 301.783020,232.502838 306.077545,234.328156 
	C307.787201,229.012070 309.624359,224.138092 310.790771,219.108551 
	C311.099030,217.779358 309.747955,215.232834 308.454742,214.516739 
	C304.125488,212.119400 299.477539,210.297562 294.272491,207.994995 
	C290.786224,206.301392 287.299957,204.607788 284.004028,202.466293 
	C284.382172,202.166962 284.760315,201.867630 285.826843,201.276459 
	C290.589722,198.324661 295.352570,195.372849 300.788757,192.161163 
	C305.893066,188.120697 310.997375,184.080231 316.719818,179.764984 
	C319.360748,176.436417 322.152985,173.215500 324.613251,169.758347 
	C331.051514,160.711319 330.437592,143.306519 324.602478,137.427414 
	C320.870087,144.081131 316.947296,151.074280 312.431854,158.359833 
	C307.887268,162.540237 303.342682,166.720642 298.140472,171.054794 
	C293.430908,174.089996 288.721313,177.125198 283.328156,180.264236 
	C278.555817,182.902557 273.783447,185.540878 268.330475,188.274780 
	C265.599365,189.508896 262.868225,190.743027 259.718811,191.446548 
	C258.498016,190.878159 257.277252,190.309753 256.525055,189.265045 
	C260.018616,187.514328 263.512146,185.763596 267.720367,183.944443 
	C272.960114,181.052475 278.199890,178.160522 284.096924,175.108932 
	C288.772491,171.841553 293.448059,168.574173 298.756317,165.031601 
	C300.246246,163.505356 301.786285,162.024445 303.216705,160.444321 
	C307.396179,155.827423 312.365875,151.670242 315.507111,146.423584 
	C321.610321,136.229523 321.559540,125.470940 315.871490,115.031166 
	C314.410461,119.089157 313.790955,123.537460 311.449860,126.718979 
	C307.168884,132.536819 301.869934,137.605606 296.341492,143.180710 
	C291.225800,146.447418 286.110107,149.714127 280.290894,153.065460 
	C275.485504,155.575272 270.680084,158.085083 265.139404,160.755783 
	C260.087372,163.150726 255.035370,165.545670 249.254654,168.006332 
	C244.172958,170.382660 239.091278,172.758972 233.357361,175.142944 
	C232.940186,175.265594 232.522995,175.388245 231.470306,175.110199 
	C226.646561,171.740997 221.822800,168.371780 216.667755,164.425217 
	C209.465515,158.564178 203.336288,151.849945 199.356430,142.835556 
	C198.078537,147.618408 197.026321,152.332474 197.557007,156.861053 
	C198.930527,168.581940 206.026642,177.046768 214.235245,184.816818 
	C212.962051,185.388672 211.688858,185.960541 209.925095,185.927368 
	C202.028000,178.397980 195.427826,170.038940 193.239059,158.431870 
	C186.216339,169.603806 187.840805,183.849213 196.718124,196.669785 
	C194.121353,199.038757 191.524582,201.407715 188.318039,204.083969 
	C184.521622,209.011658 180.725204,213.939346 176.372269,219.293472 
	C167.812912,234.666946 166.093597,262.422729 172.746552,270.991577 
	C175.155060,263.324280 177.670029,255.318146 180.705872,246.814606 
	C183.881775,241.768829 187.057663,236.723038 190.870377,231.347504 
	C194.998779,227.277649 199.127182,223.207779 203.876999,218.889145 
	C207.134216,216.764557 210.391449,214.639984 214.186050,212.993149 
	C215.092453,213.707596 215.998856,214.422043 216.544724,215.676971 
	C213.683990,217.745026 210.823242,219.813080 207.311935,222.087524 
	C202.530624,226.692429 197.749298,231.297333 192.367340,236.217926 
	C176.084579,255.487503 176.388245,276.803589 183.768494,298.054688 
	C187.084290,289.010223 190.633255,279.329742 194.831284,269.318604 
	C199.686630,263.120300 204.541977,256.922028 210.017593,250.423340 
	C214.730164,246.309479 219.442749,242.195633 224.794708,237.868835 
	C229.436096,234.836502 234.077484,231.804169 239.368744,229.150635 
	C245.233154,232.136932 251.097565,235.123230 257.401978,238.628555 
	C260.916321,240.212784 264.430664,241.796997 268.418549,243.820923 
	C271.609741,245.192520 274.800934,246.564102 278.614319,248.336746 
	C282.472290,251.236008 285.879730,250.065552 289.773804,247.011337 
	C293.828156,244.159943 297.882477,241.308563 302.693268,237.925156 
	C297.345154,235.667801 293.155823,233.899551 288.256866,231.982040 
M407.352448,376.068817 
	C405.751282,378.355316 403.978485,380.544647 402.609344,382.962524 
	C401.700043,384.568329 400.636658,386.624420 400.913544,388.264313 
	C401.769226,393.332550 406.875275,396.770569 411.869659,396.209808 
	C417.344482,395.595093 422.866241,390.027740 422.810333,386.528717 
	C420.146210,386.616455 417.058777,387.658691 415.191437,386.582977 
	C411.351501,384.370789 407.032043,381.758942 408.752808,375.937805 
	C409.373749,375.323456 409.994690,374.709137 410.615631,374.094788 
	C410.155029,373.788513 409.694397,373.482239 409.233826,373.175964 
	C408.831909,374.095581 408.429962,375.015198 407.352448,376.068817 
M260.104675,297.977173 
	C255.855469,300.185120 251.606247,302.393066 246.665421,304.653839 
	C242.083374,307.019043 237.501328,309.384216 232.214600,311.902435 
	C225.934143,315.826538 219.653687,319.750641 212.730270,323.820831 
	C207.154724,328.551483 201.579193,333.282135 195.396576,338.292419 
	C177.022919,357.009033 175.002869,381.782349 184.804611,404.845154 
	C186.013748,392.034607 191.171356,381.185333 197.813507,370.312866 
	C203.897095,363.588684 209.980682,356.864502 216.696884,349.876038 
	C222.535614,345.442200 228.374344,341.008331 234.867935,336.267731 
	C239.593781,333.222900 244.319641,330.178101 249.752136,326.988007 
	C254.221573,324.352081 258.691010,321.716156 263.784546,318.769989 
	C267.526154,316.750763 271.267761,314.731537 275.656067,312.531494 
	C280.468628,309.705627 285.281219,306.879761 290.784546,303.930939 
	C295.218689,301.023254 299.652832,298.115570 304.751282,295.012390 
	C308.499359,291.905701 312.247437,288.798981 316.574768,285.414124 
	C324.179596,277.391510 330.258698,268.686615 329.007751,256.833099 
	C328.432068,251.377838 327.195282,246.126373 324.683380,242.384567 
	C320.973694,249.267944 317.314728,256.057281 313.092957,263.166718 
	C309.144714,266.940948 305.196442,270.715149 300.651001,274.749664 
	C296.287811,277.752441 291.924622,280.755219 286.897186,283.907837 
	C282.324493,286.461365 277.751831,289.014893 272.557739,291.755798 
	C268.641571,293.802399 264.725433,295.849030 260.104675,297.977173 
M197.489777,421.540222 
	C197.326401,421.688263 197.163040,421.836273 196.264313,422.121704 
	C195.381210,422.194031 193.816742,422.545929 193.714920,422.297668 
	C191.334854,416.496948 186.010468,416.316559 180.360916,415.514313 
	C185.692657,417.050049 183.957352,420.242859 183.113281,423.346100 
	C180.021652,434.712708 176.965820,446.089722 174.017960,457.494232 
	C173.165344,460.792786 172.849091,464.304779 168.167267,464.676727 
	C174.310165,466.269836 180.453064,467.862915 185.534668,469.180786 
	C185.261871,466.633545 184.640717,464.588043 184.932022,462.681946 
	C185.379654,459.753296 186.454300,456.920441 187.771988,454.335327 
	C188.504196,454.553894 189.236420,454.772430 190.145645,455.702759 
	C192.309677,456.496063 194.414429,457.653961 196.648392,458.017120 
	C204.669022,459.321075 210.616425,455.510132 214.048309,447.193542 
	C218.196136,437.141998 216.885849,427.443237 210.760620,422.858704 
	C206.263504,419.492767 201.790680,419.199738 198.020081,422.018036 
	C198.020081,422.018036 198.011185,421.947113 197.489777,421.540222 
M222.327133,286.273346 
	C217.884186,288.846161 213.441254,291.419006 208.330505,294.158936 
	C203.881973,297.421356 199.433441,300.683807 194.344955,304.163452 
	C189.054718,310.030090 183.764481,315.896729 178.017258,322.223907 
	C165.814331,338.401398 167.152908,368.497498 172.521194,376.315216 
	C175.544159,367.671295 178.793610,358.379730 182.576355,348.655457 
	C187.169281,342.673004 191.762207,336.690552 196.987320,330.393738 
	C201.391205,326.812347 205.795105,323.230957 210.869965,319.358307 
	C215.661407,316.290070 220.452850,313.221832 225.930176,310.022186 
	C230.635880,307.406616 235.341583,304.791077 240.705841,301.859802 
	C246.142807,299.262177 251.579758,296.664551 257.760162,294.003174 
	C264.255310,290.714233 270.750458,287.425262 277.939423,284.012787 
	C282.664948,281.099915 287.390442,278.187042 292.769989,275.048431 
	C296.836578,271.653442 300.903137,268.258423 305.580353,264.600739 
	C308.229889,261.522736 310.893616,258.456787 313.526276,255.364410 
	C321.241333,246.302109 322.147064,229.158752 315.220551,220.534668 
	C314.530731,229.609680 309.446899,236.281174 303.256836,242.983765 
	C299.147247,246.252319 295.037689,249.520859 290.231232,252.948914 
	C285.119080,255.861435 280.006958,258.773956 274.184875,261.857544 
	C268.458618,264.599884 262.732361,267.342224 256.286530,270.119232 
	C250.529037,272.820496 244.771530,275.521729 238.330017,278.322968 
	C233.223297,280.933075 228.116577,283.543182 222.327133,286.273346 
M395.637054,362.310028 
	C395.562042,362.514954 395.487030,362.719879 395.412048,362.924805 
	C395.385071,362.794556 395.291321,362.617249 395.343689,362.542908 
	C395.495178,362.327881 395.705475,362.154266 396.725830,362.067230 
	C404.279999,362.188568 411.532715,367.298828 410.928986,370.475830 
	C413.520844,372.179657 415.787445,373.298553 417.572418,374.940887 
	C419.614471,376.819733 421.228455,379.163849 422.401917,380.560272 
	C423.554413,379.811401 425.018738,378.045532 426.308533,378.164917 
	C431.483429,378.643799 433.464539,375.079437 435.513824,372.424438 
	C433.240326,371.335083 430.922821,370.687775 429.194702,369.304321 
	C425.051361,365.987305 421.194122,362.313904 417.204620,358.803406 
	C410.851562,353.213074 400.001404,354.600189 395.637054,362.310028 
M160.622147,403.246460 
	C149.101303,398.808807 140.609634,401.946472 135.311279,412.598846 
	C130.335922,422.601807 132.756882,431.364441 142.465912,437.547882 
	C143.650635,438.131561 144.807236,438.782928 146.024460,439.288300 
	C156.618027,443.686401 166.085770,439.465485 170.933151,428.208832 
	C175.428345,417.770050 171.668472,408.490601 160.622147,403.246460 
M241.125397,444.028168 
	C237.833298,444.353577 234.546204,444.748474 231.247757,444.985931 
	C227.530182,445.253540 224.671310,446.258240 223.594269,450.491425 
	C222.556152,454.571655 222.953491,458.015869 226.101913,460.913330 
	C231.511703,465.891907 241.059952,465.180084 246.697281,459.150452 
	C251.755035,464.293549 254.072769,464.990936 259.938965,463.841583 
	C259.275787,461.749420 258.057190,459.523224 257.956299,457.247437 
	C257.750519,452.604523 258.055542,447.929779 258.316742,443.277527 
	C258.683838,436.739960 256.693359,431.314850 250.661331,428.258301 
	C244.140442,424.954102 237.254013,424.398071 230.524292,427.696045 
	C227.315735,429.268372 225.950775,432.313385 227.372726,435.681671 
	C228.730133,438.897034 231.632278,439.334167 234.950989,438.568390 
	C235.091156,435.940430 235.396530,433.620514 235.299438,431.317596 
	C235.104355,426.690948 237.963882,426.134796 241.060394,427.518280 
	C243.059464,428.411499 245.198883,430.589905 245.809586,432.630951 
	C246.823257,436.018768 246.657257,439.759552 247.009766,443.585938 
	C244.891922,443.828522 243.448944,443.993835 241.125397,444.028168 
M291.185059,459.176331 
	C289.189789,457.831177 285.809662,456.794647 285.429596,455.089478 
	C283.350708,445.762207 282.008514,436.270782 280.381531,426.648926 
	C284.280731,425.974976 287.419952,425.432343 290.559143,424.889740 
	C290.507904,424.423981 290.456635,423.958221 290.405365,423.492462 
	C287.131012,423.779114 283.856689,424.065765 280.399414,424.368439 
	C280.096497,422.684601 279.816742,421.069946 279.513336,419.459747 
	C279.216736,417.885345 278.896088,416.315460 278.595337,414.790863 
	C268.808136,415.423187 267.914215,416.390900 268.105347,425.967285 
	C266.689514,426.537170 265.224762,427.126678 263.760040,427.716217 
	C263.857086,428.014862 263.954163,428.313477 264.051208,428.612122 
	C265.599762,428.541656 267.148315,428.471191 268.849518,428.393799 
	C269.850922,434.898529 270.853516,441.290344 271.815857,447.688232 
	C273.559845,459.282684 280.448822,463.727448 292.640228,460.552765 
	C297.934906,456.843994 299.183746,453.373138 297.277557,449.949127 
	C295.683105,452.737457 293.839569,455.961395 291.185059,459.176331 
M377.007233,392.448151 
	C378.009277,388.186188 379.011322,383.924255 380.201050,378.864014 
	C376.486420,381.579010 373.231476,383.957977 369.976532,386.336975 
	C370.112671,386.597229 370.248810,386.857483 370.384918,387.117737 
	C372.156158,386.963959 373.927368,386.810181 375.772675,386.649963 
	C375.551056,389.104340 375.374603,391.058777 374.989532,393.816193 
	C374.480713,397.305939 373.971893,400.795685 373.309753,405.336761 
	C369.376526,399.973053 366.135956,395.580750 362.923523,391.167908 
	C354.280792,379.295471 354.103424,379.262177 342.598633,388.045471 
	C342.404327,388.193787 342.394623,388.583893 342.768402,387.502594 
	C345.227020,389.365936 347.733582,390.547974 349.211304,392.506317 
	C356.722809,402.460785 364.033600,412.569794 371.238678,422.749268 
	C372.384216,424.367676 372.634827,426.619476 373.496094,429.159119 
	C377.400024,426.313782 381.799866,423.106995 386.739319,419.506958 
	C380.211395,418.203552 379.594696,412.463776 376.119934,408.816589 
	C385.890869,412.869110 395.625519,417.555115 403.215729,407.012787 
	C395.028015,403.820496 386.585022,400.637909 378.278046,397.132843 
	C377.378235,396.753174 377.265930,394.507111 377.007233,392.448151 
M80.047935,387.803925 
	C84.413467,391.289337 88.455902,395.333923 93.238518,398.097565 
	C97.712044,400.682587 102.597206,399.631165 106.514435,395.919464 
	C110.192276,392.434540 110.758972,388.223724 109.111427,383.599579 
	C108.504120,381.895050 107.784859,380.230347 107.762268,378.100464 
	C107.965805,377.935852 108.169342,377.771271 109.077301,377.846527 
	C115.743309,381.048126 119.618774,380.867950 123.261307,377.187103 
	C126.765640,373.645935 127.890221,367.561066 124.303841,362.439850 
	C118.439644,354.065979 111.599808,346.375305 105.171532,338.396454 
	C104.407349,338.573029 103.643166,338.749634 102.878983,338.926208 
	C107.112450,342.590332 104.348671,344.283691 102.222404,346.221436 
	C93.243851,354.403839 84.384399,362.721008 75.252762,370.728180 
	C73.255966,372.479034 70.320282,373.159180 67.731255,374.372650 
	C70.739754,377.590668 74.577919,381.696136 78.683067,386.235443 
	C79.063110,386.548187 79.443153,386.860962 80.047935,387.803925 
M117.319527,400.798096 
	C116.119164,402.395386 114.996651,404.059143 113.701530,405.575500 
	C111.327332,408.355133 110.205444,413.144226 104.706665,411.504303 
	C109.685516,415.279846 114.664368,419.055359 119.643219,422.830902 
	C120.319885,422.762268 120.996552,422.693665 121.673218,422.625061 
	C116.557228,419.222260 119.705208,417.216400 121.305977,415.058228 
	C125.273209,409.709534 129.339966,404.434692 133.360977,399.125854 
	C138.897369,391.816315 135.688522,384.766815 127.579582,383.522125 
	C127.089615,385.528381 127.088371,387.599426 126.134720,389.039948 
	C123.566460,392.919464 120.591888,396.529968 117.319527,400.798096 
M355.370087,427.103210 
	C352.568909,421.454803 349.755219,415.812531 346.971497,410.155518 
	C345.425079,407.012939 343.169373,404.801605 339.492981,406.082031 
	C336.170288,407.239319 333.070679,409.037048 330.070282,410.458710 
	C332.164490,411.641174 334.574158,412.159393 335.327118,413.565063 
	C339.867371,422.040863 344.028137,430.719940 348.377747,439.455261 
	C347.467346,440.552765 346.607819,441.588928 345.748291,442.625092 
	C345.935272,442.867523 346.122284,443.109955 346.309265,443.352356 
	C352.079285,440.464203 357.849274,437.576019 363.619293,434.687836 
	C357.709198,435.698334 357.562469,430.753815 355.370087,427.103210 
M305.402710,419.779388 
	C302.402863,420.537720 299.403015,421.296051 296.403137,422.054382 
	C296.276093,422.573761 296.149048,423.093109 296.022003,423.612457 
	C300.577759,421.690247 301.327942,424.313751 302.229858,427.252838 
	C304.558441,434.841217 307.225250,442.326385 309.515778,449.925476 
	C310.040253,451.665527 309.593048,453.698425 309.593048,456.334045 
	C314.645325,454.695038 320.480347,452.802063 326.554871,450.831421 
	C324.412292,449.825745 321.862030,449.389587 321.624939,448.399536 
	C319.293121,438.661072 312.830811,429.874451 314.794830,418.558594 
	C313.514526,419.977386 312.584869,421.007568 311.848419,421.823700 
	C309.863831,421.109192 308.051819,420.456818 305.402710,419.779388 
M324.594849,425.506226 
	C326.490387,423.980865 329.418060,422.757843 329.979370,420.841675 
	C330.498566,419.069275 328.927460,415.102020 327.494293,414.664398 
	C324.351044,413.704590 320.712463,414.366943 317.760925,414.366943 
	C319.468018,416.646698 320.824249,418.115845 321.767639,419.814301 
	C322.703827,421.499908 323.224426,423.416351 324.594849,425.506226 
M399.428253,374.246033 
	C397.001312,371.349854 392.293518,370.161987 392.103271,364.991302 
	C390.706329,367.620422 388.936768,370.529999 389.202026,373.240417 
	C389.417480,375.442078 391.681671,378.450653 393.741974,379.224060 
	C396.702240,380.335205 399.391235,378.519745 399.428253,374.246033 
M330.030579,394.351318 
	C329.503906,395.833923 328.382446,397.397095 328.570221,398.782898 
	C329.005920,401.998199 331.206818,403.763489 334.534454,403.028656 
	C337.705566,402.328400 339.468689,400.076538 338.415466,396.846924 
	C337.156952,392.987762 334.368439,391.923553 330.030579,394.351318 
M137.270279,375.320923 
	C136.498184,377.578827 135.126846,379.860718 135.215775,382.084198 
	C135.257980,383.139496 138.179092,384.989471 139.629578,384.842072 
	C141.336472,384.668610 143.527115,383.056885 144.332535,381.471619 
	C146.137833,377.918213 143.173080,375.090759 137.270279,375.320923 
z"/>
<path fill="#080808" opacity="1.000000" stroke="none" 
	d="
M107.116669,378.547485 
	C107.784859,380.230347 108.504120,381.895050 109.111427,383.599579 
	C110.758972,388.223724 110.192276,392.434540 106.514435,395.919464 
	C102.597206,399.631165 97.712044,400.682587 93.238518,398.097565 
	C88.455902,395.333923 84.413467,391.289337 80.177582,387.249023 
	C80.468452,386.534149 80.629677,386.374176 81.064690,386.414062 
	C86.471733,391.285583 90.461327,392.311615 95.055649,388.803009 
	C98.042107,386.522308 101.155655,383.150879 102.021233,379.716003 
	C102.830399,376.504944 100.750198,372.565735 99.987579,369.152466 
	C107.076576,372.749573 112.543610,371.776062 116.492638,366.000427 
	C119.778595,361.194580 118.915710,356.470184 113.809151,352.105011 
	C109.295097,356.204590 104.705849,360.269440 100.258865,364.484406 
	C99.163826,365.522339 98.757637,367.295044 97.650200,368.310577 
	C91.614403,373.845856 85.458412,379.250031 79.095428,384.961060 
	C78.703423,385.415771 78.559746,385.608704 78.416077,385.801605 
	C74.577919,381.696136 70.739754,377.590668 67.731255,374.372650 
	C70.320282,373.159180 73.255966,372.479034 75.252762,370.728180 
	C84.384399,362.721008 93.243851,354.403839 102.222404,346.221436 
	C104.348671,344.283691 107.112450,342.590332 102.878983,338.926208 
	C103.643166,338.749634 104.407349,338.573029 105.171532,338.396454 
	C111.599808,346.375305 118.439644,354.065979 124.303841,362.439850 
	C127.890221,367.561066 126.765640,373.645935 123.261307,377.187103 
	C119.618774,380.867950 115.743309,381.048126 108.541664,377.484314 
	C107.439438,377.138489 106.872849,377.154846 106.306259,377.171204 
	C106.576401,377.629974 106.846542,378.088715 107.116669,378.547485 
z"/>
<path fill="#070707" opacity="1.000000" stroke="none" 
	d="
M376.788330,393.126801 
	C377.265930,394.507111 377.378235,396.753174 378.278046,397.132843 
	C386.585022,400.637909 395.028015,403.820496 403.215729,407.012787 
	C395.625519,417.555115 385.890869,412.869110 376.119934,408.816589 
	C379.594696,412.463776 380.211395,418.203552 386.739319,419.506958 
	C381.799866,423.106995 377.400024,426.313782 373.496094,429.159119 
	C372.634827,426.619476 372.384216,424.367676 371.238678,422.749268 
	C364.033600,412.569794 356.722809,402.460785 349.211304,392.506317 
	C347.733582,390.547974 345.227020,389.365936 342.768402,387.502594 
	C342.394623,388.583893 342.404327,388.193787 342.598633,388.045471 
	C354.103424,379.262177 354.280792,379.295471 362.923523,391.167908 
	C366.135956,395.580750 369.376526,399.973053 373.309753,405.336761 
	C373.971893,400.795685 374.480713,397.305939 375.491211,393.445587 
	C376.258026,393.092255 376.523163,393.109528 376.788330,393.126801 
z"/>
<path fill="#38D2FB" opacity="1.000000" stroke="none" 
	d="
M197.165726,370.649719 
	C191.171356,381.185333 186.013748,392.034607 184.804611,404.845154 
	C175.002869,381.782349 177.022919,357.009033 195.702576,338.580383 
	C196.338425,342.980804 196.833603,347.088196 196.960144,351.206909 
	C197.159134,357.683838 197.109863,364.168396 197.165726,370.649719 
z"/>
<path fill="#080808" opacity="1.000000" stroke="none" 
	d="
M187.262878,454.046936 
	C186.454300,456.920441 185.379654,459.753296 184.932022,462.681946 
	C184.640717,464.588043 185.261871,466.633545 185.534668,469.180786 
	C180.453064,467.862915 174.310165,466.269836 168.167267,464.676727 
	C172.849091,464.304779 173.165344,460.792786 174.017960,457.494232 
	C176.965820,446.089722 180.021652,434.712708 183.113281,423.346100 
	C183.957352,420.242859 185.692657,417.050049 180.360916,415.514313 
	C186.010468,416.316559 191.334854,416.496948 193.714920,422.297668 
	C193.816742,422.545929 195.381210,422.194031 196.655548,422.376587 
	C197.067169,422.846832 197.087524,423.062164 196.940094,423.576538 
	C196.289719,424.322235 195.515259,424.689148 195.368179,425.227478 
	C193.004181,433.879639 190.732025,442.556793 188.401245,451.218170 
	C188.139023,452.192627 187.647873,453.105499 187.262878,454.046936 
z"/>
<path fill="#080808" opacity="1.000000" stroke="none" 
	d="
M291.988190,460.677094 
	C280.448822,463.727448 273.559845,459.282684 271.815857,447.688232 
	C270.853516,441.290344 269.850922,434.898529 268.849518,428.393799 
	C267.148315,428.471191 265.599762,428.541656 264.051208,428.612122 
	C263.954163,428.313477 263.857086,428.014862 263.760040,427.716217 
	C265.224762,427.126678 266.689514,426.537170 268.105347,425.967285 
	C267.914215,416.390900 268.808136,415.423187 278.595337,414.790863 
	C278.896088,416.315460 279.216736,417.885345 279.513336,419.459747 
	C279.816742,421.069946 280.096497,422.684601 280.399414,424.368439 
	C283.856689,424.065765 287.131012,423.779114 290.405365,423.492462 
	C290.456635,423.958221 290.507904,424.423981 290.559143,424.889740 
	C287.419952,425.432343 284.280731,425.974976 280.381531,426.648926 
	C282.008514,436.270782 283.350708,445.762207 285.429596,455.089478 
	C285.809662,456.794647 289.189789,457.831177 291.582275,459.429413 
	C291.967194,460.014160 291.970093,460.345703 291.988190,460.677094 
z"/>
<path fill="#38D2FB" opacity="1.000000" stroke="none" 
	d="
M194.182190,269.649292 
	C190.633255,279.329742 187.084290,289.010223 183.768494,298.054688 
	C176.388245,276.803589 176.084579,255.487503 192.678864,236.501709 
	C193.387665,247.740097 193.784927,258.694702 194.182190,269.649292 
z"/>
<path fill="#30C5F1" opacity="1.000000" stroke="none" 
	d="
M197.489624,370.481293 
	C197.109863,364.168396 197.159134,357.683838 196.960144,351.206909 
	C196.833603,347.088196 196.338425,342.980804 196.006104,338.440552 
	C201.579193,333.282135 207.154724,328.551483 213.437424,324.019104 
	C214.429718,328.285706 214.701630,332.355011 215.003510,336.422119 
	C215.342987,340.995911 215.709518,345.567688 216.064270,350.140320 
	C209.980682,356.864502 203.897095,363.588684 197.489624,370.481293 
z"/>
<path fill="#117AB5" opacity="1.000000" stroke="none" 
	d="
M296.995544,142.986801 
	C301.869934,137.605606 307.168884,132.536819 311.449860,126.718979 
	C313.790955,123.537460 314.410461,119.089157 315.871490,115.031166 
	C321.559540,125.470940 321.610321,136.229523 315.507111,146.423584 
	C312.365875,151.670242 307.396179,155.827423 303.216705,160.444321 
	C301.786285,162.024445 300.246246,163.505356 298.270020,164.762558 
	C297.520996,157.324615 297.258270,150.155701 296.995544,142.986801 
z"/>
<path fill="#717272" opacity="1.000000" stroke="none" 
	d="
M210.896606,104.447891 
	C198.822433,94.920372 188.754807,84.087250 189.064957,67.410362 
	C189.152176,62.720592 190.714661,58.058258 192.390594,53.214222 
	C195.533371,65.349007 202.841873,74.373474 211.825150,83.123444 
	C211.629669,90.717636 211.263138,97.582764 210.896606,104.447891 
z"/>
<path fill="#070707" opacity="1.000000" stroke="none" 
	d="
M242.005966,444.159119 
	C243.448944,443.993835 244.891922,443.828522 247.009766,443.585938 
	C246.657257,439.759552 246.823257,436.018768 245.809586,432.630951 
	C245.198883,430.589905 243.059464,428.411499 241.060394,427.518280 
	C237.963882,426.134796 235.104355,426.690948 235.299438,431.317596 
	C235.396530,433.620514 235.091156,435.940430 234.950989,438.568390 
	C231.632278,439.334167 228.730133,438.897034 227.372726,435.681671 
	C225.950775,432.313385 227.315735,429.268372 230.524292,427.696045 
	C237.254013,424.398071 244.140442,424.954102 250.661331,428.258301 
	C256.693359,431.314850 258.683838,436.739960 258.316742,443.277527 
	C258.055542,447.929779 257.750519,452.604523 257.956299,457.247437 
	C258.057190,459.523224 259.275787,461.749420 259.938965,463.841583 
	C254.072769,464.990936 251.755035,464.293549 246.349915,458.995789 
	C245.992737,458.204590 245.982910,457.568054 245.984421,456.469971 
	C245.995758,452.688232 245.995758,449.368103 245.995758,445.962646 
	C244.543121,445.825348 243.275314,445.705536 242.017456,445.348022 
	C242.016663,444.793365 242.009521,444.476288 242.005966,444.159119 
z"/>
<path fill="#2AB9E7" opacity="1.000000" stroke="none" 
	d="
M216.380585,350.008179 
	C215.709518,345.567688 215.342987,340.995911 215.003510,336.422119 
	C214.701630,332.355011 214.429718,328.285706 213.758911,323.946045 
	C219.653687,319.750641 225.934143,315.826538 232.590485,312.312988 
	C232.977371,314.851715 232.890625,316.985779 233.018143,319.106903 
	C233.368362,324.932312 233.808517,330.752319 234.213089,336.574463 
	C228.374344,341.008331 222.535614,345.442200 216.380585,350.008179 
z"/>
<path fill="#30C8F3" opacity="1.000000" stroke="none" 
	d="
M194.506744,269.483948 
	C193.784927,258.694702 193.387665,247.740097 192.979187,236.343872 
	C197.749298,231.297333 202.530624,226.692429 207.648590,222.461533 
	C207.990143,228.599823 207.831924,234.370590 208.060242,240.126007 
	C208.200851,243.670700 208.931564,247.191956 209.397339,250.723724 
	C204.541977,256.922028 199.686630,263.120300 194.506744,269.483948 
z"/>
<path fill="#32CBF5" opacity="1.000000" stroke="none" 
	d="
M196.355133,330.708069 
	C191.762207,336.690552 187.169281,342.673004 182.077271,348.550171 
	C181.052261,346.811005 180.128296,345.190491 180.072784,343.540771 
	C179.883514,337.915344 180.112595,332.275940 179.929932,326.650055 
	C179.876587,325.007141 178.982803,323.391541 178.474243,321.763397 
	C183.764481,315.896729 189.054718,310.030090 194.670410,304.527405 
	C194.997665,308.991150 194.824844,313.100464 195.047958,317.188141 
	C195.294510,321.705139 195.903824,326.202271 196.355133,330.708069 
z"/>
<path fill="#070707" opacity="1.000000" stroke="none" 
	d="
M117.549057,400.522675 
	C120.591888,396.529968 123.566460,392.919464 126.134720,389.039948 
	C127.088371,387.599426 127.089615,385.528381 127.579582,383.522125 
	C135.688522,384.766815 138.897369,391.816315 133.360977,399.125854 
	C129.339966,404.434692 125.273209,409.709534 121.305977,415.058228 
	C119.705208,417.216400 116.557228,419.222260 121.673218,422.625061 
	C120.996552,422.693665 120.319885,422.762268 119.643219,422.830902 
	C114.664368,419.055359 109.685516,415.279846 104.706665,411.504303 
	C110.205444,413.144226 111.327332,408.355133 113.701530,405.575500 
	C114.996651,404.059143 116.119164,402.395386 117.549057,400.522675 
z"/>
<path fill="#0B0B0B" opacity="1.000000" stroke="none" 
	d="
M355.575226,427.421143 
	C357.562469,430.753815 357.709198,435.698334 363.619293,434.687836 
	C357.849274,437.576019 352.079285,440.464203 346.309265,443.352356 
	C346.122284,443.109955 345.935272,442.867523 345.748291,442.625092 
	C346.607819,441.588928 347.467346,440.552765 348.377747,439.455261 
	C344.028137,430.719940 339.867371,422.040863 335.327118,413.565063 
	C334.574158,412.159393 332.164490,411.641174 330.070282,410.458710 
	C333.070679,409.037048 336.170288,407.239319 339.492981,406.082031 
	C343.169373,404.801605 345.425079,407.012939 346.971497,410.155518 
	C349.755219,415.812531 352.568909,421.454803 355.575226,427.421143 
z"/>
<path fill="#080808" opacity="1.000000" stroke="none" 
	d="
M305.821259,419.791901 
	C308.051819,420.456818 309.863831,421.109192 311.848419,421.823700 
	C312.584869,421.007568 313.514526,419.977386 314.794830,418.558594 
	C312.830811,429.874451 319.293121,438.661072 321.624939,448.399536 
	C321.862030,449.389587 324.412292,449.825745 326.554871,450.831421 
	C320.480347,452.802063 314.645325,454.695038 309.593048,456.334045 
	C309.593048,453.698425 310.040253,451.665527 309.515778,449.925476 
	C307.225250,442.326385 304.558441,434.841217 302.229858,427.252838 
	C301.327942,424.313751 300.577759,421.690247 296.022003,423.612457 
	C296.149048,423.093109 296.276093,422.573761 296.403137,422.054382 
	C299.403015,421.296051 302.402863,420.537720 305.821259,419.791901 
z"/>
<path fill="#070707" opacity="1.000000" stroke="none" 
	d="
M197.948608,422.019348 
	C201.790680,419.199738 206.263504,419.492767 210.760620,422.858704 
	C216.885849,427.443237 218.196136,437.141998 214.048309,447.193542 
	C210.616425,455.510132 204.669022,459.321075 196.648392,458.017120 
	C194.414429,457.653961 192.309677,456.496063 190.469330,455.305603 
	C195.760818,455.752258 198.868835,453.279022 200.238052,448.880981 
	C202.144226,442.758148 204.085159,436.562958 205.045868,430.251801 
	C206.057663,423.604889 204.380249,422.183075 197.948608,422.019348 
z"/>
<path fill="#1B96CC" opacity="1.000000" stroke="none" 
	d="
M257.006073,270.084534 
	C262.732361,267.342224 268.458618,264.599884 274.569946,262.262695 
	C274.970062,268.145844 274.811249,273.633118 275.102631,279.096375 
	C275.194031,280.809570 276.497162,282.458160 277.245636,284.136292 
	C270.750458,287.425262 264.255310,290.714233 257.383362,293.561890 
	C257.006378,285.441895 257.006226,277.763214 257.006073,270.084534 
z"/>
<path fill="#21A3D5" opacity="1.000000" stroke="none" 
	d="
M256.646301,270.101868 
	C257.006226,277.763214 257.006378,285.441895 257.011627,293.593750 
	C251.579758,296.664551 246.142807,299.262177 240.315613,301.590210 
	C239.621597,293.621429 239.317825,285.922211 239.014038,278.222992 
	C244.771530,275.521729 250.529037,272.820496 256.646301,270.101868 
z"/>
<path fill="#27B2E1" opacity="1.000000" stroke="none" 
	d="
M232.105820,175.510895 
	C232.522995,175.388245 232.940186,175.265594 233.681244,175.598358 
	C234.005295,184.010925 234.005447,191.968063 233.805450,200.126419 
	C232.789703,200.958755 231.974106,201.589874 230.777863,202.333862 
	C226.501251,204.423584 222.605301,206.400452 218.324677,208.118286 
	C217.626083,205.607559 217.187851,203.364944 217.022781,201.102386 
	C216.613434,195.491974 216.328903,189.872467 216.207031,184.080231 
	C216.670593,183.639221 216.921356,183.374603 217.519470,183.052551 
	C222.613159,180.500366 227.359482,178.005630 232.105820,175.510895 
z"/>
<path fill="#2DBFEC" opacity="1.000000" stroke="none" 
	d="
M209.707458,250.573547 
	C208.931564,247.191956 208.200851,243.670700 208.060242,240.126007 
	C207.831924,234.370590 207.990143,228.599823 207.973862,222.358337 
	C210.823242,219.813080 213.683990,217.745026 217.050095,215.271439 
	C219.011948,214.142197 220.468430,213.418488 222.081085,213.103394 
	C222.492111,219.205505 222.666214,224.904297 223.038895,230.590088 
	C223.203461,233.100906 223.770828,235.585358 224.155334,238.081787 
	C219.442749,242.195633 214.730164,246.309479 209.707458,250.573547 
z"/>
<path fill="#2DBFEC" opacity="1.000000" stroke="none" 
	d="
M215.994232,184.256607 
	C216.328903,189.872467 216.613434,195.491974 217.022781,201.102386 
	C217.187851,203.364944 217.626083,205.607559 218.075867,208.354233 
	C216.690720,210.071259 215.169693,211.293320 213.648682,212.515381 
	C210.391449,214.639984 207.134216,216.764557 203.198547,218.814728 
	C202.013382,217.089142 201.113876,215.448532 201.069122,213.784912 
	C200.890991,207.164398 200.979401,200.536697 201.164368,193.642090 
	C204.378296,191.092484 207.396973,188.812439 210.415665,186.532394 
	C211.688858,185.960541 212.962051,185.388672 214.695374,184.518463 
	C215.155502,184.220108 215.576263,184.205826 215.576263,184.205826 
	C215.576263,184.205826 215.994232,184.256607 215.994232,184.256607 
z"/>
<path fill="#27B2E1" opacity="1.000000" stroke="none" 
	d="
M224.475006,237.975311 
	C223.770828,235.585358 223.203461,233.100906 223.038895,230.590088 
	C222.666214,224.904297 222.492111,219.205505 222.277252,212.846466 
	C226.553589,209.630234 230.789932,207.079544 235.367645,204.422424 
	C236.816193,203.908096 237.923401,203.500229 239.022675,203.554749 
	C239.360306,211.716751 239.705856,219.416351 239.921631,227.348709 
	C239.434189,227.978241 239.076523,228.375031 238.718872,228.771820 
	C234.077484,231.804169 229.436096,234.836502 224.475006,237.975311 
z"/>
<path fill="#0B0B0B" opacity="1.000000" stroke="none" 
	d="
M161.055984,403.831879 
	C171.668472,408.490601 175.428345,417.770050 170.933151,428.208832 
	C166.085770,439.465485 156.618027,443.686401 146.024460,439.288300 
	C144.807236,438.782928 143.650635,438.131561 142.466827,437.144104 
	C142.727173,436.531921 142.909775,436.269958 143.362106,436.136963 
	C147.139755,438.650269 150.378311,437.034454 151.939697,434.411285 
	C156.128555,427.373779 159.938766,420.052368 163.120926,412.515106 
	C163.921982,410.617676 161.800018,407.486206 161.024170,404.649170 
	C161.036652,404.194946 161.046310,404.013428 161.055984,403.831879 
z"/>
<path fill="#38D2FB" opacity="1.000000" stroke="none" 
	d="
M178.245758,321.993652 
	C178.982803,323.391541 179.876587,325.007141 179.929932,326.650055 
	C180.112595,332.275940 179.883514,337.915344 180.072784,343.540771 
	C180.128296,345.190491 181.052261,346.811005 181.810638,348.766541 
	C178.793610,358.379730 175.544159,367.671295 172.521194,376.315216 
	C167.152908,368.497498 165.814331,338.401398 178.245758,321.993652 
z"/>
<path fill="#070707" opacity="1.000000" stroke="none" 
	d="
M395.403961,361.982513 
	C400.001404,354.600189 410.851562,353.213074 417.204620,358.803406 
	C421.194122,362.313904 425.051361,365.987305 429.194702,369.304321 
	C430.922821,370.687775 433.240326,371.335083 435.513824,372.424438 
	C433.464539,375.079437 431.483429,378.643799 426.308533,378.164917 
	C425.018738,378.045532 423.554413,379.811401 422.401917,380.560272 
	C421.228455,379.163849 419.614471,376.819733 417.572418,374.940887 
	C415.787445,373.298553 413.520844,372.179657 410.928986,370.475830 
	C411.532715,367.298828 404.279999,362.188568 396.186462,362.003998 
	C395.647095,361.940765 395.403961,361.982513 395.403961,361.982513 
z"/>
<path fill="#070707" opacity="1.000000" stroke="none" 
	d="
M143.015564,435.954407 
	C142.909775,436.269958 142.727173,436.531921 142.257782,436.860931 
	C132.756882,431.364441 130.335922,422.601807 135.311279,412.598846 
	C140.609634,401.946472 149.101303,398.808807 160.839066,403.539185 
	C161.046310,404.013428 161.036652,404.194946 160.624390,404.642365 
	C157.462067,406.404816 153.708405,407.226624 152.142319,409.533508 
	C148.486313,414.918915 145.486298,420.857758 143.036011,426.902985 
	C141.984695,429.496735 142.960678,432.912262 143.015564,435.954407 
z"/>
<path fill="#117AB5" opacity="1.000000" stroke="none" 
	d="
M313.024506,158.067413 
	C316.947296,151.074280 320.870087,144.081131 324.602478,137.427414 
	C330.437592,143.306519 331.051514,160.711319 324.613251,169.758347 
	C322.152985,173.215500 319.360748,176.436417 316.009705,179.804291 
	C314.866394,178.194031 314.179932,176.564651 314.046295,174.891159 
	C313.599152,169.291748 313.349670,163.676559 313.024506,158.067413 
z"/>
<path fill="#717272" opacity="1.000000" stroke="none" 
	d="
M216.207031,184.080231 
	C215.994232,184.256607 215.576263,184.205826 215.576263,184.205826 
	C215.576263,184.205826 215.155502,184.220108 214.958221,184.276733 
	C206.026642,177.046768 198.930527,168.581940 197.557007,156.861053 
	C197.026321,152.332474 198.078537,147.618408 199.356430,142.835556 
	C203.336288,151.849945 209.465515,158.564178 216.775604,165.127853 
	C216.979660,171.590317 217.075882,177.350143 217.172119,183.109985 
	C216.921356,183.374603 216.670593,183.639221 216.207031,184.080231 
z"/>
<path fill="#717272" opacity="1.000000" stroke="none" 
	d="
M214.089447,77.963280 
	C200.150742,67.119408 192.942780,48.844498 200.319351,36.435745 
	C202.911316,46.471748 209.810776,52.818417 216.893448,59.806519 
	C216.660034,64.881844 216.461563,69.265381 215.927872,73.607735 
	C215.742981,75.112175 214.726242,76.514381 214.089447,77.963280 
z"/>
<path fill="#22A6D8" opacity="1.000000" stroke="none" 
	d="
M234.005600,199.925201 
	C234.005447,191.968063 234.005295,184.010925 234.007355,175.594543 
	C239.091278,172.758972 244.172958,170.382660 249.623932,168.446136 
	C250.336136,176.292740 250.679062,183.699524 250.798325,191.358307 
	C245.618454,194.319931 240.662247,197.029572 235.427124,199.792328 
	C234.767319,199.872040 234.386459,199.898621 234.005600,199.925201 
z"/>
<path fill="#117AB5" opacity="1.000000" stroke="none" 
	d="
M303.884247,242.702515 
	C309.446899,236.281174 314.530731,229.609680 315.220551,220.534668 
	C322.147064,229.158752 321.241333,246.302109 313.526276,255.364410 
	C310.893616,258.456787 308.229889,261.522736 305.273376,264.318420 
	C304.605652,256.924896 304.244934,249.813705 303.884247,242.702515 
z"/>
<path fill="#1E9CD0" opacity="1.000000" stroke="none" 
	d="
M251.022003,191.106323 
	C250.679062,183.699524 250.336136,176.292740 249.988281,168.413269 
	C255.035370,165.545670 260.087372,163.150726 265.542175,161.174255 
	C266.298553,169.066116 266.652130,176.539474 267.005676,184.012848 
	C263.512146,185.763596 260.018616,187.514328 255.920502,189.565491 
	C253.884628,190.279404 252.453308,190.692856 251.022003,191.106323 
z"/>
<path fill="#25AEDF" opacity="1.000000" stroke="none" 
	d="
M234.540512,336.421082 
	C233.808517,330.752319 233.368362,324.932312 233.018143,319.106903 
	C232.890625,316.985779 232.977371,314.851715 232.942810,312.236481 
	C237.501328,309.384216 242.083374,307.019043 247.389664,304.918762 
	C248.424438,312.500214 248.734970,319.816742 249.045502,327.133301 
	C244.319641,330.178101 239.593781,333.222900 234.540512,336.421082 
z"/>
<path fill="#117AB5" opacity="1.000000" stroke="none" 
	d="
M313.655762,262.846649 
	C317.314728,256.057281 320.973694,249.267944 324.683380,242.384567 
	C327.195282,246.126373 328.432068,251.377838 329.007751,256.833099 
	C330.258698,268.686615 324.179596,277.391510 316.214386,285.161224 
	C315.568939,279.531128 315.374451,274.146790 314.951752,268.780426 
	C314.794281,266.780884 314.103424,264.823334 313.655762,262.846649 
z"/>
<path fill="#168BC3" opacity="1.000000" stroke="none" 
	d="
M277.592529,284.074554 
	C276.497162,282.458160 275.194031,280.809570 275.102631,279.096375 
	C274.811249,273.633118 274.970062,268.145844 274.924927,262.177155 
	C280.006958,258.773956 285.119080,255.861435 290.600403,253.351929 
	C291.351685,260.928040 291.733826,268.101105 292.115967,275.274170 
	C287.390442,278.187042 282.664948,281.099915 277.592529,284.074554 
z"/>
<path fill="#2DBFEC" opacity="1.000000" stroke="none" 
	d="
M196.671219,330.550903 
	C195.903824,326.202271 195.294510,321.705139 195.047958,317.188141 
	C194.824844,313.100464 194.997665,308.991150 194.990387,304.418823 
	C199.433441,300.683807 203.881973,297.421356 208.665192,294.544586 
	C209.399567,303.170013 209.799286,311.409821 210.199005,319.649597 
	C205.795105,323.230957 201.391205,326.812347 196.671219,330.550903 
z"/>
<path fill="#2AB9E7" opacity="1.000000" stroke="none" 
	d="
M210.534485,319.503967 
	C209.799286,311.409821 209.399567,303.170013 208.999084,294.461029 
	C213.441254,291.419006 217.884186,288.846161 222.679672,286.625366 
	C223.354401,292.699677 223.599487,298.427887 224.040207,304.141022 
	C224.196259,306.164124 224.829132,308.150482 225.244293,310.153595 
	C220.452850,313.221832 215.661407,316.290070 210.534485,319.503967 
z"/>
<path fill="#25AEDF" opacity="1.000000" stroke="none" 
	d="
M225.587250,310.087891 
	C224.829132,308.150482 224.196259,306.164124 224.040207,304.141022 
	C223.599487,298.427887 223.354401,292.699677 223.021027,286.565308 
	C228.116577,283.543182 233.223297,280.933075 238.672028,278.272980 
	C239.317825,285.922211 239.621597,293.621429 239.986328,301.748108 
	C235.341583,304.791077 230.635880,307.406616 225.587250,310.087891 
z"/>
<path fill="#1991C8" opacity="1.000000" stroke="none" 
	d="
M267.363037,183.978638 
	C266.652130,176.539474 266.298553,169.066116 265.909851,161.093811 
	C270.680084,158.085083 275.485504,155.575272 280.654907,153.447266 
	C281.345520,159.183121 281.580292,164.545258 282.049591,169.886780 
	C282.209564,171.707367 282.959351,173.476135 283.439636,175.268570 
	C278.199890,178.160522 272.960114,181.052475 267.363037,183.978638 
z"/>
<path fill="#717272" opacity="1.000000" stroke="none" 
	d="
M210.170380,186.229889 
	C207.396973,188.812439 204.378296,191.092484 200.834229,193.679688 
	C199.206772,194.682907 198.104691,195.378967 197.002609,196.075012 
	C187.840805,183.849213 186.216339,169.603806 193.239059,158.431870 
	C195.427826,170.038940 202.028000,178.397980 210.170380,186.229889 
z"/>
<path fill="#F8F8F8" opacity="1.000000" stroke="none" 
	d="
M197.984344,422.018677 
	C204.380249,422.183075 206.057663,423.604889 205.045868,430.251801 
	C204.085159,436.562958 202.144226,442.758148 200.238052,448.880981 
	C198.868835,453.279022 195.760818,455.752258 190.380814,454.949707 
	C189.236420,454.772430 188.504196,454.553894 187.517426,454.191132 
	C187.647873,453.105499 188.139023,452.192627 188.401245,451.218170 
	C190.732025,442.556793 193.004181,433.879639 195.368179,425.227478 
	C195.515259,424.689148 196.289719,424.322235 197.294098,423.470398 
	C197.942932,422.959442 198.175781,422.854126 198.176178,422.747925 
	C198.177185,422.481201 198.073105,422.214081 198.011185,421.947113 
	C198.011185,421.947113 198.020081,422.018036 197.984344,422.018677 
z"/>
<path fill="#168BC3" opacity="1.000000" stroke="none" 
	d="
M283.768280,175.188751 
	C282.959351,173.476135 282.209564,171.707367 282.049591,169.886780 
	C281.580292,164.545258 281.345520,159.183121 281.006653,153.404953 
	C286.110107,149.714127 291.225800,146.447418 296.668518,143.083755 
	C297.258270,150.155701 297.520996,157.324615 297.953674,164.900146 
	C293.448059,168.574173 288.772491,171.841553 283.768280,175.188751 
z"/>
<path fill="#1B96CC" opacity="1.000000" stroke="none" 
	d="
M269.011108,188.179214 
	C273.783447,185.540878 278.555817,182.902557 283.681458,180.624176 
	C284.402649,187.845520 284.770569,194.706924 285.138428,201.568329 
	C284.760315,201.867630 284.382172,202.166962 283.632751,202.713043 
	C282.829254,203.277512 282.397095,203.595261 281.614380,203.975189 
	C277.711182,205.823380 274.158508,207.609375 270.237000,209.119095 
	C269.582489,201.954956 269.296783,195.067078 269.011108,188.179214 
z"/>
<path fill="#32CBF5" opacity="1.000000" stroke="none" 
	d="
M176.928802,218.867050 
	C180.725204,213.939346 184.521622,209.011658 188.644974,204.415649 
	C189.392456,213.723969 189.813019,222.700623 190.233566,231.677261 
	C187.057663,236.723038 183.881775,241.768829 180.212952,246.716644 
	C179.147110,244.686737 178.206894,242.781052 178.066772,240.818207 
	C177.545105,233.511322 177.286285,226.185669 176.928802,218.867050 
z"/>
<path fill="#38D2FB" opacity="1.000000" stroke="none" 
	d="
M176.650543,219.080261 
	C177.286285,226.185669 177.545105,233.511322 178.066772,240.818207 
	C178.206894,242.781052 179.147110,244.686737 179.952515,246.965332 
	C177.670029,255.318146 175.155060,263.324280 172.746552,270.991577 
	C166.093597,262.422729 167.812912,234.666946 176.650543,219.080261 
z"/>
<path fill="#30C5F1" opacity="1.000000" stroke="none" 
	d="
M190.551971,231.512390 
	C189.813019,222.700623 189.392456,213.723969 188.949860,204.261993 
	C191.524582,201.407715 194.121353,199.038757 196.860367,196.372406 
	C198.104691,195.378967 199.206772,194.682907 200.638977,193.949265 
	C200.979401,200.536697 200.890991,207.164398 201.069122,213.784912 
	C201.113876,215.448532 202.013382,217.089142 202.887848,218.939117 
	C199.127182,223.207779 194.998779,227.277649 190.551971,231.512390 
z"/>
<path fill="#C4C4C4" opacity="1.000000" stroke="none" 
	d="
M293.947571,102.218559 
	C298.468842,104.256989 302.928589,106.450218 307.532867,108.279678 
	C310.626282,109.508804 311.395447,111.606339 310.929077,114.567261 
	C310.851471,115.059868 310.847687,115.565552 310.750641,116.053436 
	C308.211487,128.820847 306.357574,129.628494 293.214294,122.868332 
	C293.313965,115.490936 293.630768,108.854752 293.947571,102.218559 
z"/>
<path fill="#1381BB" opacity="1.000000" stroke="none" 
	d="
M312.728180,158.213623 
	C313.349670,163.676559 313.599152,169.291748 314.046295,174.891159 
	C314.179932,176.564651 314.866394,178.194031 315.700623,179.941696 
	C310.997375,184.080231 305.893066,188.120697 300.420105,191.792267 
	C300.034302,187.935852 300.166992,184.439316 299.957214,180.963440 
	C299.754120,177.598251 299.198730,174.254333 298.798126,170.901062 
	C303.342682,166.720642 307.887268,162.540237 312.728180,158.213623 
z"/>
<path fill="#21A3D5" opacity="1.000000" stroke="none" 
	d="
M268.670776,188.226990 
	C269.296783,195.067078 269.582489,201.954956 269.949677,209.334503 
	C267.082916,211.501785 264.134644,213.177414 261.186371,214.853027 
	C260.013611,215.633133 258.840851,216.413239 257.109344,217.539230 
	C256.051361,217.984650 255.552139,218.084167 254.989563,217.752182 
	C254.592728,210.146896 254.259232,202.973114 254.150070,195.555435 
	C256.295288,194.200089 258.216217,193.088623 260.137115,191.977142 
	C262.868225,190.743027 265.599365,189.508896 268.670776,188.226990 
z"/>
<path fill="#168BC3" opacity="1.000000" stroke="none" 
	d="
M298.469299,170.977936 
	C299.198730,174.254333 299.754120,177.598251 299.957214,180.963440 
	C300.166992,184.439316 300.034302,187.935852 300.083435,191.922211 
	C295.352570,195.372849 290.589722,198.324661 285.482666,201.422394 
	C284.770569,194.706924 284.402649,187.845520 284.023254,180.572266 
	C288.721313,177.125198 293.430908,174.089996 298.469299,170.977936 
z"/>
<path fill="#168BC3" opacity="1.000000" stroke="none" 
	d="
M287.561462,283.758026 
	C291.924622,280.755219 296.287811,277.752441 301.335236,274.921082 
	C302.345520,277.781494 302.716064,280.466034 302.987122,283.160583 
	C303.390625,287.172638 303.723846,291.191772 304.086975,295.207886 
	C299.652832,298.115570 295.218689,301.023254 290.132568,303.699707 
	C289.320404,299.037994 289.286713,294.597748 288.945831,290.181183 
	C288.778809,288.017426 288.040955,285.897675 287.561462,283.758026 
z"/>
<path fill="#1991C8" opacity="1.000000" stroke="none" 
	d="
M287.229309,283.832947 
	C288.040955,285.897675 288.778809,288.017426 288.945831,290.181183 
	C289.286713,294.597748 289.320404,299.037994 289.787201,303.761230 
	C285.281219,306.879761 280.468628,309.705627 275.332214,312.172943 
	C275.005249,306.654175 275.143585,301.487701 274.915619,296.337433 
	C274.844269,294.725311 273.785797,293.156891 273.179169,291.568420 
	C277.751831,289.014893 282.324493,286.461365 287.229309,283.832947 
z"/>
<path fill="#1381BB" opacity="1.000000" stroke="none" 
	d="
M292.442993,275.161316 
	C291.733826,268.101105 291.351685,260.928040 290.948853,253.272186 
	C295.037689,249.520859 299.147247,246.252319 303.570557,242.843140 
	C304.244934,249.813705 304.605652,256.924896 304.968018,264.449768 
	C300.903137,268.258423 296.836578,271.653442 292.442993,275.161316 
z"/>
<path fill="#21A3D5" opacity="1.000000" stroke="none" 
	d="
M249.398819,327.060669 
	C248.734970,319.816742 248.424438,312.500214 247.735474,304.892334 
	C251.606247,302.393066 255.855469,300.185120 260.780151,298.221802 
	C261.637054,302.193573 261.728699,305.927917 262.027466,309.645660 
	C262.281006,312.800507 262.773621,315.936096 263.160431,319.080231 
	C258.691010,321.716156 254.221573,324.352081 249.398819,327.060669 
z"/>
<path fill="#C4C4C4" opacity="1.000000" stroke="none" 
	d="
M294.951660,208.255341 
	C299.477539,210.297562 304.125488,212.119400 308.454742,214.516739 
	C309.747955,215.232834 311.099030,217.779358 310.790771,219.108551 
	C309.624359,224.138092 307.787201,229.012070 306.077545,234.328156 
	C301.783020,232.502838 298.603516,231.151428 295.196686,229.069443 
	C294.963440,221.644363 294.957550,214.949844 294.951660,208.255341 
z"/>
<path fill="#1381BB" opacity="1.000000" stroke="none" 
	d="
M304.419128,295.110138 
	C303.723846,291.191772 303.390625,287.172638 302.987122,283.160583 
	C302.716064,280.466034 302.345520,277.781494 301.633850,274.790924 
	C305.196442,270.715149 309.144714,266.940948 313.374329,263.006683 
	C314.103424,264.823334 314.794281,266.780884 314.951752,268.780426 
	C315.374451,274.146790 315.568939,279.531128 315.924744,285.300293 
	C312.247437,288.798981 308.499359,291.905701 304.419128,295.110138 
z"/>
<path fill="#1E9CD0" opacity="1.000000" stroke="none" 
	d="
M263.472473,318.925110 
	C262.773621,315.936096 262.281006,312.800507 262.027466,309.645660 
	C261.728699,305.927917 261.637054,302.193573 261.132446,298.181030 
	C264.725433,295.849030 268.641571,293.802399 272.868469,291.662109 
	C273.785797,293.156891 274.844269,294.725311 274.915619,296.337433 
	C275.143585,301.487701 275.005249,306.654175 275.008881,312.263367 
	C271.267761,314.731537 267.526154,316.750763 263.472473,318.925110 
z"/>
<path fill="#B8B8B8" opacity="1.000000" stroke="none" 
	d="
M294.612061,208.125168 
	C294.957550,214.949844 294.963440,221.644363 294.942261,228.842407 
	C290.403839,227.427765 285.892578,225.509567 281.459869,223.021469 
	C281.680603,216.272049 281.822754,210.092529 281.964905,203.913010 
	C282.397095,203.595261 282.829254,203.277512 283.537567,202.936981 
	C287.299957,204.607788 290.786224,206.301392 294.612061,208.125168 
z"/>
<path fill="#8E8E8E" opacity="1.000000" stroke="none" 
	d="
M236.122345,72.688530 
	C239.968048,74.873589 243.813766,77.058640 247.853653,79.973907 
	C248.031525,85.612236 248.173203,90.528954 247.907013,95.423485 
	C247.822189,96.983246 246.654083,98.484100 245.981674,100.011909 
	C242.412643,97.946625 238.843628,95.881332 235.250854,93.140167 
	C235.525528,85.872375 235.823944,79.280449 236.122345,72.688530 
z"/>
<path fill="#0E0E0E" opacity="1.000000" stroke="none" 
	d="
M245.973083,456.931549 
	C245.982910,457.568054 245.992737,458.204590 245.963425,459.157104 
	C241.059952,465.180084 231.511703,465.891907 226.101913,460.913330 
	C222.953491,458.015869 222.556152,454.571655 223.594269,450.491425 
	C224.671310,446.258240 227.530182,445.253540 231.247757,444.985931 
	C234.546204,444.748474 237.833298,444.353577 241.565674,444.093628 
	C242.009521,444.476288 242.016663,444.793365 241.611664,445.468323 
	C236.477615,445.042358 235.755203,448.317108 235.367798,451.723236 
	C234.956894,455.335876 234.215118,459.560608 238.202179,461.418304 
	C242.119400,463.243500 243.802765,459.222473 245.973083,456.931549 
z"/>
<path fill="#999999" opacity="1.000000" stroke="none" 
	d="
M246.191437,100.282639 
	C246.654083,98.484100 247.822189,96.983246 247.907013,95.423485 
	C248.173203,90.528954 248.031525,85.612236 248.085648,80.214554 
	C251.890305,81.717484 255.657135,83.709991 259.644928,86.315689 
	C259.577271,91.026405 259.381317,95.133385 258.964325,99.217796 
	C258.723541,101.576248 258.125946,103.898277 257.688934,106.236694 
	C253.926361,104.342247 250.163773,102.447807 246.191437,100.282639 
z"/>
<path fill="#838383" opacity="1.000000" stroke="none" 
	d="
M235.912125,72.439270 
	C235.823944,79.280449 235.525528,85.872375 235.055496,92.870148 
	C230.990707,90.737007 227.097565,88.198013 223.381042,85.172699 
	C224.038834,80.757858 224.422882,76.813995 225.040085,72.906967 
	C225.373764,70.794853 226.105652,68.745651 226.657883,66.668068 
	C229.672562,68.508713 232.687225,70.349358 235.912125,72.439270 
z"/>
<path fill="#7B7C7D" opacity="1.000000" stroke="none" 
	d="
M211.066071,104.712250 
	C211.263138,97.582764 211.629669,90.717636 212.003479,83.413483 
	C215.605667,85.764908 219.200562,88.555374 222.651001,91.923187 
	C222.336060,94.449196 222.147018,96.396423 221.998840,98.346764 
	C221.652481,102.905861 221.325745,107.466446 220.991074,112.026428 
	C217.739227,109.676491 214.487396,107.326553 211.066071,104.712250 
z"/>
<path fill="#999999" opacity="1.000000" stroke="none" 
	d="
M240.973480,103.244431 
	C244.546417,105.221718 248.119354,107.199013 251.874481,109.914291 
	C252.036224,117.111595 252.015762,123.570923 251.995300,130.030243 
	C248.436615,128.267227 244.877914,126.504204 241.148285,123.979660 
	C240.976074,116.560234 240.974777,109.902328 240.973480,103.244431 
z"/>
<path fill="#080808" opacity="1.000000" stroke="none" 
	d="
M408.072266,375.968445 
	C407.032043,381.758942 411.351501,384.370789 415.191437,386.582977 
	C417.058777,387.658691 420.146210,386.616455 422.810333,386.528717 
	C422.866241,390.027740 417.344482,395.595093 411.869659,396.209808 
	C406.875275,396.770569 401.769226,393.332550 400.913544,388.264313 
	C400.636658,386.624420 401.700043,384.568329 402.609344,382.962524 
	C403.978485,380.544647 405.751282,378.355316 407.682404,376.035095 
	C408.012360,376.001343 408.072266,375.968445 408.072266,375.968445 
z"/>
<path fill="#A2A2A2" opacity="1.000000" stroke="none" 
	d="
M255.052917,218.183670 
	C255.552139,218.084167 256.051361,217.984650 256.922791,217.791641 
	C257.294952,217.698151 257.680511,217.724686 257.842896,218.299835 
	C257.657532,225.286499 257.309753,231.698013 256.961975,238.109528 
	C251.097565,235.123230 245.233154,232.136932 239.043793,228.961212 
	C239.076523,228.375031 239.434189,227.978241 240.262970,227.271667 
	C245.507034,224.035812 250.279984,221.109741 255.052917,218.183670 
z"/>
<path fill="#A9A9A9" opacity="1.000000" stroke="none" 
	d="
M257.181976,238.369049 
	C257.309753,231.698013 257.657532,225.286499 258.008301,218.399750 
	C261.461761,219.559464 264.912231,221.194412 268.607056,223.412216 
	C268.549286,230.457108 268.247131,236.919159 267.945007,243.381210 
	C264.430664,241.796997 260.916321,240.212784 257.181976,238.369049 
z"/>
<path fill="#A2A2A2" opacity="1.000000" stroke="none" 
	d="
M257.924500,106.498245 
	C258.125946,103.898277 258.723541,101.576248 258.964325,99.217796 
	C259.381317,95.133385 259.577271,91.026405 259.922302,86.524788 
	C262.859558,87.515991 265.740356,88.911308 268.826630,91.035965 
	C268.657104,98.266548 268.282104,104.767799 267.907104,111.269058 
	C264.658081,109.765968 261.409058,108.262878 257.924500,106.498245 
z"/>
<path fill="#8E8E8E" opacity="1.000000" stroke="none" 
	d="
M240.640808,103.115295 
	C240.974777,109.902328 240.976074,116.560234 240.962082,123.701096 
	C237.735748,122.419373 234.524704,120.654686 231.133270,118.136284 
	C231.320236,110.874069 231.687592,104.365585 232.054962,97.857094 
	C234.806000,99.566780 237.557068,101.276466 240.640808,103.115295 
z"/>
<path fill="#B8B8B8" opacity="1.000000" stroke="none" 
	d="
M289.096954,247.176376 
	C285.879730,250.065552 282.472290,251.236008 278.305511,247.674347 
	C278.329865,240.681793 278.663025,234.351669 278.996185,228.021530 
	C282.083069,229.341690 285.169983,230.661865 288.621277,232.510193 
	C289.022736,237.751007 289.059845,242.463699 289.096954,247.176376 
z"/>
<path fill="#A9A9A9" opacity="1.000000" stroke="none" 
	d="
M270.939331,139.180542 
	C267.414001,137.647385 263.888672,136.114227 260.492981,134.112335 
	C261.080902,132.004715 261.868530,130.378906 261.934418,128.724380 
	C262.115112,124.184624 261.992676,119.632805 261.990204,115.085754 
	C265.091644,116.393295 268.193115,117.700836 271.637909,119.596024 
	C271.633942,126.515961 271.286652,132.848251 270.939331,139.180542 
z"/>
<path fill="#B2B2B2" opacity="1.000000" stroke="none" 
	d="
M278.704376,227.830475 
	C278.663025,234.351669 278.329865,240.681793 277.994415,247.473816 
	C274.800934,246.564102 271.609741,245.192520 268.181763,243.601074 
	C268.247131,236.919159 268.549286,230.457108 268.907135,223.598923 
	C272.112762,224.681671 275.262665,226.160538 278.704376,227.830475 
z"/>
<path fill="#A9A9A9" opacity="1.000000" stroke="none" 
	d="
M281.614380,203.975189 
	C281.822754,210.092529 281.680603,216.272049 281.239258,222.752228 
	C274.594910,220.347855 268.249756,217.642838 261.545471,214.895416 
	C264.134644,213.177414 267.082916,211.501785 270.318542,209.610779 
	C274.158508,207.609375 277.711182,205.823380 281.614380,203.975189 
z"/>
<path fill="#A2A2A2" opacity="1.000000" stroke="none" 
	d="
M261.676514,114.936935 
	C261.992676,119.632805 262.115112,124.184624 261.934418,128.724380 
	C261.868530,130.378906 261.080902,132.004715 260.272552,133.846466 
	C257.417419,132.888519 254.912308,131.727737 252.201248,130.298584 
	C252.015762,123.570923 252.036224,117.111595 252.103699,110.155487 
	C255.221451,111.368507 258.292145,113.078316 261.676514,114.936935 
z"/>
<path fill="#838383" opacity="1.000000" stroke="none" 
	d="
M231.869720,97.584930 
	C231.687592,104.365585 231.320236,110.874069 230.925522,117.881401 
	C227.718216,116.449875 224.538254,114.519508 221.174683,112.307785 
	C221.325745,107.466446 221.652481,102.905861 221.998840,98.346764 
	C222.147018,96.396423 222.336060,94.449196 222.823227,92.213570 
	C225.988113,93.721985 228.836304,95.517372 231.869720,97.584930 
z"/>
<path fill="#7B7C7D" opacity="1.000000" stroke="none" 
	d="
M226.454041,66.384293 
	C226.105652,68.745651 225.373764,70.794853 225.040085,72.906967 
	C224.422882,76.813995 224.038834,80.757858 223.199341,84.884628 
	C220.015472,82.910431 217.189941,80.737984 214.226929,78.264404 
	C214.726242,76.514381 215.742981,75.112175 215.927872,73.607735 
	C216.461563,69.265381 216.660034,64.881844 217.074768,60.074768 
	C220.189651,61.790218 223.219925,63.945370 226.454041,66.384293 
z"/>
<path fill="#B2B2B2" opacity="1.000000" stroke="none" 
	d="
M271.165009,139.432587 
	C271.286652,132.848251 271.633942,126.515961 271.970459,119.742149 
	C274.764099,120.798225 277.568512,122.295822 280.683289,124.406525 
	C280.641907,131.071045 280.290222,137.122452 279.938507,143.173859 
	C277.089233,142.010788 274.239929,140.847717 271.165009,139.432587 
z"/>
<path fill="#B2B2B2" opacity="1.000000" stroke="none" 
	d="
M283.980194,119.016655 
	C281.442108,117.912331 278.904053,116.808014 276.311035,115.052170 
	C276.531067,107.861183 276.805969,101.321724 277.080933,94.782272 
	C279.508453,95.796394 281.936005,96.810516 284.677551,98.456696 
	C284.654449,105.731392 284.317322,112.374023 283.980194,119.016655 
z"/>
<path fill="#B8B8B8" opacity="1.000000" stroke="none" 
	d="
M284.211548,119.275253 
	C284.317322,112.374023 284.654449,105.731392 284.984894,98.637650 
	C287.744293,99.446365 290.510376,100.706207 293.612000,102.092300 
	C293.630768,108.854752 293.313965,115.490936 292.989166,122.602768 
	C290.135071,121.896896 287.289001,120.715370 284.211548,119.275253 
z"/>
<path fill="#A9A9A9" opacity="1.000000" stroke="none" 
	d="
M276.848633,94.542404 
	C276.805969,101.321724 276.531067,107.861183 276.081635,114.802376 
	C273.394012,114.052490 270.880920,112.900864 268.137451,111.509140 
	C268.282104,104.767799 268.657104,98.266548 269.060791,91.279503 
	C271.598450,91.963318 274.107391,93.132927 276.848633,94.542404 
z"/>
<path fill="#B8B8B8" opacity="1.000000" stroke="none" 
	d="
M280.168488,143.426239 
	C280.290222,137.122452 280.641907,131.071045 280.990845,124.561539 
	C283.744019,125.066574 286.499908,126.029701 289.616486,127.550613 
	C290.001190,132.437073 290.025208,136.765732 290.049225,141.094406 
	C287.064728,142.823822 284.649811,146.680252 280.168488,143.426239 
z"/>
<path fill="#7B7C7D" opacity="1.000000" stroke="none" 
	d="
M217.519470,183.052536 
	C217.075882,177.350143 216.979660,171.590317 216.941254,165.416534 
	C221.822800,168.371780 226.646561,171.740997 231.788055,175.310547 
	C227.359482,178.005630 222.613159,180.500366 217.519470,183.052536 
z"/>
<path fill="#999999" opacity="1.000000" stroke="none" 
	d="
M259.927979,191.711853 
	C258.216217,193.088623 256.295288,194.200089 253.797180,195.635742 
	C248.643921,198.043152 244.067886,200.126404 239.184967,201.997833 
	C237.820740,201.103745 236.763397,200.421478 235.706055,199.739212 
	C240.662247,197.029572 245.618454,194.319931 250.798325,191.358307 
	C252.453308,190.692856 253.884628,190.279404 255.686188,189.803650 
	C257.277252,190.309753 258.498016,190.878159 259.927979,191.711853 
z"/>
<path fill="#C4C4C4" opacity="1.000000" stroke="none" 
	d="
M289.435364,247.093857 
	C289.059845,242.463699 289.022736,237.751007 288.976074,232.584808 
	C293.155823,233.899551 297.345154,235.667801 302.693268,237.925156 
	C297.882477,241.308563 293.828156,244.159943 289.435364,247.093857 
z"/>
<path fill="#0E0E0E" opacity="1.000000" stroke="none" 
	d="
M324.261047,425.368896 
	C323.224426,423.416351 322.703827,421.499908 321.767639,419.814301 
	C320.824249,418.115845 319.468018,416.646698 317.760925,414.366943 
	C320.712463,414.366943 324.351044,413.704590 327.494293,414.664398 
	C328.927460,415.102020 330.498566,419.069275 329.979370,420.841675 
	C329.418060,422.757843 326.490387,423.980865 324.261047,425.368896 
z"/>
<path fill="#0E0E0E" opacity="1.000000" stroke="none" 
	d="
M399.647949,374.539490 
	C399.391235,378.519745 396.702240,380.335205 393.741974,379.224060 
	C391.681671,378.450653 389.417480,375.442078 389.202026,373.240417 
	C388.936768,370.529999 390.706329,367.620422 392.103271,364.991302 
	C392.293518,370.161987 397.001312,371.349854 399.647949,374.539490 
z"/>
<path fill="#838383" opacity="1.000000" stroke="none" 
	d="
M235.026276,204.528870 
	C230.789932,207.079544 226.553589,209.630234 222.121094,212.437851 
	C220.468430,213.418488 219.011948,214.142197 217.230362,215.001205 
	C215.998856,214.422043 215.092453,213.707596 213.917358,212.754272 
	C215.169693,211.293320 216.690720,210.071259 218.460556,208.613266 
	C222.605301,206.400452 226.501251,204.423584 231.072083,202.573700 
	C232.840057,203.310074 233.933167,203.919479 235.026276,204.528870 
z"/>
<path fill="#C4C4C4" opacity="1.000000" stroke="none" 
	d="
M290.391052,141.028625 
	C290.025208,136.765732 290.001190,132.437073 289.962463,127.664970 
	C293.804657,128.875580 297.661560,130.529617 302.588989,132.642746 
	C298.113190,135.783661 294.423035,138.373260 290.391052,141.028625 
z"/>
<path fill="#0B0B0B" opacity="1.000000" stroke="none" 
	d="
M330.344727,394.133423 
	C334.368439,391.923553 337.156952,392.987762 338.415466,396.846924 
	C339.468689,400.076538 337.705566,402.328400 334.534454,403.028656 
	C331.206818,403.763489 329.005920,401.998199 328.570221,398.782898 
	C328.382446,397.397095 329.503906,395.833923 330.344727,394.133423 
z"/>
<path fill="#0B0B0B" opacity="1.000000" stroke="none" 
	d="
M137.632645,375.183990 
	C143.173080,375.090759 146.137833,377.918213 144.332535,381.471619 
	C143.527115,383.056885 141.336472,384.668610 139.629578,384.842072 
	C138.179092,384.989471 135.257980,383.139496 135.215775,382.084198 
	C135.126846,379.860718 136.498184,377.578827 137.632645,375.183990 
z"/>
<path fill="#0E0E0E" opacity="1.000000" stroke="none" 
	d="
M376.897766,392.787476 
	C376.523163,393.109528 376.258026,393.092255 375.595490,393.044128 
	C375.374603,391.058777 375.551056,389.104340 375.772675,386.649963 
	C373.927368,386.810181 372.156158,386.963959 370.384918,387.117737 
	C370.248810,386.857483 370.112671,386.597229 369.976532,386.336975 
	C373.231476,383.957977 376.486420,381.579010 380.201050,378.864014 
	C379.011322,383.924255 378.009277,388.186188 376.897766,392.787476 
z"/>
<path fill="#0E0E0E" opacity="1.000000" stroke="none" 
	d="
M292.314209,460.614929 
	C291.970093,460.345703 291.967194,460.014160 291.987762,459.433899 
	C293.839569,455.961395 295.683105,452.737457 297.277557,449.949127 
	C299.183746,453.373138 297.934906,456.843994 292.314209,460.614929 
z"/>
<path fill="#F8F8F8" opacity="1.000000" stroke="none" 
	d="
M408.020203,375.968079 
	C408.429962,375.015198 408.831909,374.095581 409.233826,373.175964 
	C409.694397,373.482239 410.155029,373.788513 410.615631,374.094788 
	C409.994690,374.709137 409.373749,375.323456 408.412537,375.953125 
	C408.072266,375.968445 408.012360,376.001343 408.020203,375.968079 
z"/>
<path fill="#0E0E0E" opacity="1.000000" stroke="none" 
	d="
M395.520508,362.146271 
	C395.403961,361.982513 395.647095,361.940765 395.769897,361.952576 
	C395.705475,362.154266 395.495178,362.327881 395.343689,362.542908 
	C395.291321,362.617249 395.385071,362.794556 395.412048,362.924805 
	C395.487030,362.719879 395.562042,362.514954 395.520508,362.146271 
z"/>
<path fill="#080808" opacity="1.000000" stroke="none" 
	d="
M80.065208,386.933960 
	C79.443153,386.860962 79.063110,386.548187 78.549576,386.018524 
	C78.559746,385.608704 78.703423,385.415771 79.345001,385.066895 
	C80.158897,385.345337 80.474899,385.779755 80.790909,386.214172 
	C80.629677,386.374176 80.468452,386.534149 80.065208,386.933960 
z"/>
<path fill="#070707" opacity="1.000000" stroke="none" 
	d="
M197.750488,421.743652 
	C198.073105,422.214081 198.177185,422.481201 198.176178,422.747925 
	C198.175781,422.854126 197.942932,422.959442 197.461899,423.171356 
	C197.087524,423.062164 197.067169,422.846832 197.023224,422.307922 
	C197.163040,421.836273 197.326401,421.688263 197.750488,421.743652 
z"/>
<path fill="#F8F8F8" opacity="1.000000" stroke="none" 
	d="
M81.064682,386.414062 
	C80.474899,385.779755 80.158897,385.345337 79.593323,384.805115 
	C85.458412,379.250031 91.614403,373.845856 97.650200,368.310577 
	C98.757637,367.295044 99.163826,365.522339 100.258865,364.484406 
	C104.705849,360.269440 109.295097,356.204590 113.809151,352.105011 
	C118.915710,356.470184 119.778595,361.194580 116.492638,366.000427 
	C112.543610,371.776062 107.076576,372.749573 99.987579,369.152466 
	C100.750198,372.565735 102.830399,376.504944 102.021233,379.716003 
	C101.155655,383.150879 98.042107,386.522308 95.055649,388.803009 
	C90.461327,392.311615 86.471733,391.285583 81.064682,386.414062 
z"/>
<path fill="#FEFEFE" opacity="1.000000" stroke="none" 
	d="
M107.439468,378.323975 
	C106.846542,378.088715 106.576401,377.629974 106.306259,377.171204 
	C106.872849,377.154846 107.439438,377.138489 108.189453,377.364441 
	C108.169342,377.771271 107.965805,377.935852 107.439468,378.323975 
z"/>
<path fill="#F8F8F8" opacity="1.000000" stroke="none" 
	d="
M245.984421,456.469971 
	C243.802765,459.222473 242.119400,463.243500 238.202179,461.418304 
	C234.215118,459.560608 234.956894,455.335876 235.367798,451.723236 
	C235.755203,448.317108 236.477615,445.042358 241.601730,445.705994 
	C243.275314,445.705536 244.543121,445.825348 245.995758,445.962646 
	C245.995758,449.368103 245.995758,452.688232 245.984421,456.469971 
z"/>
<path fill="#F8F8F8" opacity="1.000000" stroke="none" 
	d="
M235.367645,204.422424 
	C233.933167,203.919479 232.840057,203.310074 231.452728,202.460846 
	C231.974106,201.589874 232.789703,200.958755 233.805450,200.126434 
	C234.386459,199.898621 234.767319,199.872040 235.427124,199.792328 
	C236.763397,200.421478 237.820740,201.103745 239.080475,202.224487 
	C239.282883,202.662964 239.030609,203.092377 239.030609,203.092377 
	C237.923401,203.500229 236.816193,203.908096 235.367645,204.422424 
z"/>
<path fill="#22A6D8" opacity="1.000000" stroke="none" 
	d="
M239.022675,203.554749 
	C239.030609,203.092377 239.282883,202.662964 239.387360,202.436310 
	C244.067886,200.126404 248.643921,198.043152 253.572861,195.879608 
	C254.259232,202.973114 254.592728,210.146896 254.989563,217.752182 
	C250.279984,221.109741 245.507034,224.035812 240.392761,227.038925 
	C239.705856,219.416351 239.360306,211.716751 239.022675,203.554749 
z"/>
<path fill="#F8F8F8" opacity="1.000000" stroke="none" 
	d="
M143.362106,436.136963 
	C142.960678,432.912262 141.984695,429.496735 143.036011,426.902985 
	C145.486298,420.857758 148.486313,414.918915 152.142319,409.533508 
	C153.708405,407.226624 157.462067,406.404816 160.621552,404.915039 
	C161.800018,407.486206 163.921982,410.617676 163.120926,412.515106 
	C159.938766,420.052368 156.128555,427.373779 151.939697,434.411285 
	C150.378311,437.034454 147.139755,438.650269 143.362106,436.136963 
z"/>
</svg>