<?xml version="1.0" encoding="utf-8"?>
<svg version="1.1" id="cell-press" xmlns="http://www.w3.org/2000/svg" xmlns:xlink="http://www.w3.org/1999/xlink"
	 viewBox="120 150 326 326" >
<style type="text/css">
	.st0{fill:#007DBC;}
</style>
<path class="st0" d="M105.1,269.8c-4.6-0.6-8.8,2.2-9.8,6.6l-3.6,14.8c-0.8,3.6-3.8,6.2-7.6,6.6L63,300.3
	c-22.7,2.6-38.9,23.3-35.5,45.9c2.6,18.1,17.3,31.5,34.5,34.1c4.6,0.6,8.8-2.2,9.8-6.6l3.6-14.8c0.8-3.6,3.8-6.2,7.6-6.6l21.1-2.4
	c22.7-2.4,38.9-23.3,35.7-45.9C137,285.6,122.5,272.4,105.1,269.8z M100.5,322.9l-13.2,1.6c-2.2,0.2-4,1.8-4.6,4l-3.8,16.3
	c-1.2,4.8-5,8.4-10,9c-7.6,0.8-14.2-4.8-14.8-12.4c-0.6-7.4,5.2-13.6,12.6-14.4l13.2-1.6c2.2-0.2,4-1.8,4.6-4l3.8-16.3
	c1.2-4.8,5-8.4,10-9c7.6-0.8,14.2,4.8,14.8,12.4C113.7,315.9,107.9,322.1,100.5,322.9z M333.2,282.6h16.5v84.9h-16.5V282.6z
	 M207,295.7c14.6,0,17.3,9.6,18.9,14.6h17.7c-1-12.4-11.2-29.9-36.5-29.9c-21.9,0-38.9,15-38.9,44.7c0,29.3,16.3,44.5,38.7,44.5
	c21.3,0,33.3-12.8,36.9-31.3h-17.7c-2.2,10.4-9,15.9-18.9,15.9c-15,0-21.1-13.6-21.1-28.9C186,301.5,198.4,295.7,207,295.7z
	 M277.3,302.9c-27.5,0-30.1,24.3-30.1,31.7c0,25.9,13.6,34.3,31.3,34.3c10.8,0,23.3-5,27.7-20.1h-17.3c-1.4,4.4-6,6.8-10.6,6.8
	c-13.2,0-14.2-10.6-14.6-15.5h43.1v-3C306.7,308.9,289.5,302.9,277.3,302.9z M264,329.8c1-8.2,5-13.2,12.8-13.2
	c5.2,0,11.8,3,12.8,13.2H264z M311,282.6h16.5v84.9H311V282.6z M375.2,282.4h-19.7v14.4H370c8.6,0,16.5,1.8,16.5,12.8
	c0,10.8-7.8,12.8-16.5,12.8h-14.4V337h19.7c21.3,0,29.5-13.4,29.5-27.3C404.7,295.9,396.4,282.4,375.2,282.4z M448.4,304.7
	c-1-0.4-2.4-0.6-3.6-0.6c-8.2,0-16.7,5.4-19.7,13h-0.2v-11.4h-16.1v61.6h16.9v-27.7c0-10.8,4.2-19.9,16.7-19.9c2,0,4.6,0.2,6,0.6
	L448.4,304.7L448.4,304.7z M478.7,304.1c-18.7,0-31.5,14-31.5,32.5c0,19.1,12,32.3,31.5,32.3c13.8,0,24.1-6.2,28.9-20.7h-14.8
	c-1,3.8-6.6,8-13.2,8c-9.4,0-14.6-4.8-15-15.7h44.3C509.8,321.7,499.6,304.1,478.7,304.1z M464.3,330c0.2-4.8,3.4-13,14-13
	c8.2,0,11.8,4.6,13.4,13H464.3z M548.3,330.4c-9.6-2.2-19.3-3-19.3-9.2c0-5,5.6-5.8,9.4-5.8c6,0,11,1.8,11.6,8.4h16.1
	c-1.4-15-13.6-19.7-27.1-19.7c-13.2,0-26.9,4-26.9,19.9c0,10.8,9.8,14.2,19.5,16.5c12.2,2.6,19.3,4.4,19.3,9.6c0,6-6.2,7.8-11,7.8
	c-6.6,0-12.8-3-13-10.4h-16.1c0.8,16.3,14.6,21.7,28.9,21.7c14,0,28.1-5.2,28.1-21.5C568,336.2,558.2,332.6,548.3,330.4z
	 M607.5,330.4c-9.6-2.2-19.3-3-19.3-9.2c0-5,5.6-5.8,9.4-5.8c6,0,11,1.8,11.6,8.4h16.1c-1.4-15-13.6-19.7-27.1-19.7
	c-13.2,0-26.9,4-26.9,19.9c0,10.8,9.8,14.2,19.5,16.5c12.2,2.6,19.3,4.4,19.3,9.6c0,6-6.2,7.8-11,7.8c-6.6,0-12.8-3-13-10.4H570
	c0.8,16.3,14.6,21.7,28.9,21.7c14,0,28.1-5.2,28.1-21.5C627.2,336.2,617.4,332.6,607.5,330.4z"/>
<path class="st0" d="M94.5,370.3c0.6-0.4,0.8-1.2,0.8-2c0-1-0.4-1.8-1-2.2c-0.6-0.4-1.6-0.6-2.8-0.6h-3.8v10.2h1.6v-4.6h1.6l2.6,4.4
	h1.8l-2.8-4.4C93.5,370.9,94.1,370.7,94.5,370.3z M91.2,369.7h-1.8v-3h2c0.2,0,0.6,0,0.8,0s0.6,0,0.8,0.2c0.2,0,0.4,0.2,0.6,0.4
	c0.2,0.2,0.2,0.4,0.2,0.8s0,0.6-0.2,0.8c-0.2,0.2-0.4,0.4-0.6,0.4c-0.2,0.2-0.4,0.2-0.8,0.2C91.8,369.7,91.4,369.7,91.2,369.7z"/>
<path class="st0" d="M97.5,363.5c-0.8-0.8-1.8-1.4-2.8-1.8c-1-0.4-2.2-0.6-3.4-0.6c-1.2,0-2.4,0.2-3.4,0.6c-1.2,0.4-2,1-2.8,1.8
	c-0.8,0.8-1.4,1.8-2,3c-0.4,1.2-0.8,2.4-0.8,3.8c0,1.4,0.2,2.6,0.6,3.6c0.4,1.2,1,2,1.8,3c0.8,0.8,1.8,1.4,2.8,2
	c1.2,0.4,2.4,0.8,3.6,0.8c1.2,0,2.4-0.2,3.4-0.6c1-0.4,2-1,2.8-1.8c0.8-0.8,1.4-1.8,2-3c0.4-1.2,0.8-2.4,0.8-3.8
	c0-1.4-0.2-2.6-0.8-3.8C99.1,365.3,98.3,364.3,97.5,363.5z M97.7,373.3c-0.4,1-0.8,1.8-1.6,2.4c-0.6,0.6-1.4,1.2-2.2,1.6
	c-0.8,0.4-1.8,0.6-2.8,0.6c-1.2,0-2-0.2-3-0.6c-0.8-0.4-1.6-1-2.2-1.6s-1-1.4-1.4-2.4c-0.4-1-0.4-2-0.4-3c0-1.2,0.2-2.2,0.6-3
	c0.4-1,0.8-1.8,1.6-2.4c0.6-0.6,1.4-1.2,2.2-1.6s1.8-0.6,2.8-0.6c1,0,2,0.2,2.8,0.6s1.6,0.8,2.2,1.6c0.6,0.6,1.2,1.4,1.6,2.4
	c0.4,1,0.6,2,0.6,3C98.3,371.3,98.1,372.3,97.7,373.3z"/>
</svg>
