<svg xmlns="http://www.w3.org/2000/svg" xml:space="preserve" id="csir" style="shape-rendering:geometricPrecision;text-rendering:geometricPrecision;image-rendering:optimizeQuality;fill-rule:evenodd;clip-rule:evenodd" viewBox="0 0 21000 29700"><defs><style>.fil0,.fil1{fill:#050505}.fil0{fill-rule:nonzero}</style></defs><g id="Layer_x0020_1"><g id="_1769368330320"><path class="fil0" d="M9503 24710c0 116-46 206-138 268s-225 93-400 93-309-31-400-93c-92-62-138-152-138-268v-748c0-117 46-206 138-269 91-62 225-93 400-93s308 31 400 93c92 63 138 152 138 269v139h-341v-154c0-94-63-142-187-142-125 0-187 48-187 142v777c0 93 62 140 187 140 124 0 187-47 187-140v-205h341v191zm309-1017c89-62 222-93 397-93s307 31 397 93c89 63 134 152 134 269v45h-341v-60c0-49-15-85-46-108-31-22-76-34-134-34-60 0-104 12-135 34-31 23-46 59-46 108 0 61 26 113 77 159 51 45 129 96 231 154 86 49 155 92 207 130 53 38 97 83 135 137 37 53 55 114 55 183 0 116-45 206-137 268s-226 93-401 93-308-31-400-93-138-152-138-268v-89h341v103c0 93 63 140 187 140 125 0 188-47 188-140 0-60-26-113-78-158-51-45-128-97-231-154-85-50-154-93-207-131-52-37-97-83-134-136-37-54-56-115-56-183 0-117 45-206 135-269zm1499-77v1439h-361v-1439h361zm624 648h141c72 0 126-12 162-35s54-63 54-117v-142c0-52-14-90-44-113-29-23-76-35-139-35h-174v442zm367 725c-4-20-6-57-6-111v-226c0-66-19-112-56-141-37-28-98-42-181-42h-124v586h-361v-1439h545c185 0 321 27 406 82 86 54 128 137 128 249v113c0 148-78 246-236 292 85 22 147 59 184 110s56 117 56 196v222c0 41 2 75 6 100 5 25 16 50 33 75h-367c-14-23-22-45-27-66zM2061 26507h-344c-22 0-32 11-32 32v130c0 36-21 53-62 53h-181c-41 0-62-17-62-53v-670c0-57-10-99-31-125s-57-39-107-39h-34c-43 0-63-19-63-56v-129c0-37 20-56 63-56h34c143 0 252 34 328 103 77 69 115 166 115 292v250c0 21 10 33 32 33h344c22 0 32-12 32-33v-372c0-22-10-32-32-32h-96c-58 0-87-19-87-56v-132c0-35 29-53 87-53h605c43 0 63 18 63 53v132c0 37-20 56-63 56h-140c-21 0-31 10-31 32v1114c0 35-21 53-63 53h-181c-41 0-62-18-62-53v-442c0-21-10-32-32-32zm894 527h-181c-42 0-62-18-62-53v-1114c0-22-11-32-32-32h-141c-42 0-63-19-63-56v-132c0-35 21-53 63-53h650c42 0 63 18 63 53v132c0 37-21 56-63 56h-140c-22 0-32 10-32 32v1114c0 35-21 53-62 53zm660-862v-305c0-20-9-30-26-32h-431c-42 0-63-19-63-56v-132c0-35 21-53 63-53h917c42 0 62 18 62 53v132c0 37-20 56-62 56h-123c-21 0-31 10-31 32v321c0 91-28 164-83 220-54 55-129 83-223 83h-13l324 453c10 12 15 25 15 39 0 34-18 51-54 51h-207c-22 0-41-10-55-30l-297-428-76-88v-166c0-20 8-36 22-49 15-12 34-18 57-18h193c61 0 91-27 91-83zm861 261v211c0 59 12 100 36 123s71 34 142 36h24c42 0 63 18 63 55v120c0 38-21 56-63 56h-102c-139 0-242-33-307-100-65-66-97-165-97-300v-217c0-125 39-221 119-290 79-69 189-103 332-103h277c21 0 31-11 31-32v-125c0-20-9-30-26-32h-862c-42 0-62-19-62-56v-132c0-35 20-53 62-53h1366c42 0 63 18 63 53v132c0 37-21 56-63 56h-141c-21 0-31 10-31 32v1114c0 35-21 53-63 53h-180c-42 0-63-18-63-53v-677c0-22-10-32-31-32h-233c-127 0-191 53-191 161zm2594-566v190h11c40-61 114-91 224-91h49c142 0 251 34 328 103 78 69 117 165 117 290v97c-3 123-41 220-117 289-75 70-185 104-328 104h-96c-42 0-63-18-63-55v-132c0-35 21-53 63-53h50c126 0 190-56 190-166v-70c0-111-67-166-201-166h-59c-112 0-168 48-168 145v626c0 38-21 56-63 56h-174c-40 0-60-18-60-56v-219h-11c-40 60-115 90-225 90h-49c-142 0-251-34-328-103-78-68-116-165-116-290v-97c2-123 40-219 116-289 76-69 185-104 328-104h97c41 0 62 19 62 56v132c0 35-21 53-62 53h-50c-127 0-191 55-191 166v70c0 110 67 166 201 166h60c112 0 168-49 168-146v-596c0-22-11-32-32-32h-789c-42 0-62-19-62-56v-132c0-35 20-53 62-53h1941c42 0 63 18 63 53v132c0 37-21 56-63 56h-792c-20 0-31 10-31 32zm1207 1167h-181c-41 0-62-18-62-53v-1114c0-22-10-32-32-32h-140c-43 0-63-19-63-56v-132c0-35 20-53 63-53h649c43 0 63 18 63 53v132c0 37-20 56-63 56h-140c-22 0-32 10-32 32v1114c0 35-21 53-62 53zm997-421c-94 0-141-78-141-235 0-82 31-148 91-197s137-74 233-74h402c21 0 32-10 32-32v-208c0-20-9-30-27-32h-809c-42 0-63-19-63-56v-132c0-35 21-53 63-53h1313c42 0 63 18 63 53v132c0 37-21 56-63 56h-141c-21 0-32 10-32 32v1114c0 35-20 53-62 53h-180c-42 0-62-18-62-53v-599c0-21-11-32-32-32h-282c-34 0-59 1-76 5-44 7-65 34-65 80l24 125c0 36-20 53-58 53h-128zm2261-746v1111c0 38-20 56-63 56h-182c-40 0-60-18-60-56v-198h-11c-17 26-47 48-91 65s-93 25-149 25h-78c-142 0-251-34-329-103-78-68-117-165-117-290v-109c1-123 39-219 116-288 75-70 184-105 327-105h144c42 0 62 19 62 56v132c0 35-20 53-62 53h-89c-127 0-191 56-191 166v81c0 56 15 97 43 125 29 28 77 42 143 42h78c72 0 124-18 155-53 32-34 49-78 49-130v-580c0-22-11-32-32-32h-861c-42 0-63-19-63-56v-132c0-35 21-53 63-53h1371c42 0 63 18 63 53v132c0 37-21 56-63 56h-142c-20 0-31 10-31 32zm557 1167h-181c-41 0-62-18-62-53v-1114c0-22-10-32-32-32h-140c-43 0-63-19-63-56v-132c0-35 20-53 63-53h650c42 0 62 18 62 53v132c0 37-20 56-62 56h-141c-22 0-32 10-32 32v1114c0 35-21 53-62 53zm569-806h-227c-42 0-63-18-63-53v-132c0-37 21-56 63-56h731c42 0 62 19 62 56v132c0 35-20 53-62 53h-131c-114 0-172 54-172 163v61c0 106 63 159 188 159h131c67 0 119-17 155-52s54-82 54-144v-548c0-22-11-32-32-32h-1062c-43 0-63-19-63-56v-132c0-35 20-53 63-53h1574c42 0 63 18 63 53v132c0 37-21 56-63 56h-141c-21 0-32 10-32 32v1111c0 38-20 56-62 56h-185c-40 0-60-18-60-56v-237h-11c-42 74-126 110-253 110h-128c-141 0-249-32-324-98-74-66-112-160-112-285v-48c0-98 33-159 99-183v-9zm1593 806h-180c-42 0-63-18-63-53v-1114c0-22-10-32-31-32h-141c-42 0-63-19-63-56v-132c0-35 21-53 63-53h650c42 0 63 18 63 53v132c0 37-21 56-63 56h-141c-21 0-32 10-32 32v1114c0 35-20 53-62 53zm660-862v-305c0-20-8-30-25-32h-431c-42 0-63-19-63-56v-132c0-35 21-53 63-53h916c42 0 63 18 63 53v132c0 37-21 56-63 56h-123c-20 0-31 10-31 32v321c0 91-27 164-82 220-55 55-130 83-224 83h-12l323 453c11 12 16 25 16 39 0 34-19 51-55 51h-206c-23 0-41-10-55-30l-298-428-75-88v-166c0-20 7-36 22-49 15-12 33-18 56-18h193c61 0 91-27 91-83zm1742 404h-243c-234 0-352-98-352-295v-35c0-92 32-162 96-210 62-48 148-72 256-72h222c21 0 32-11 32-32v-65c0-22-11-32-32-32h-718c-42 0-62-18-62-53v-135c0-35 20-53 62-53h1251c42 0 63 18 63 53v135c0 35-21 53-63 53h-167c-21 0-31 10-31 32v208c0 85-52 127-155 127h-378c-30 0-50 6-61 17-11 12-17 31-17 57v9c0 42 26 63 78 63h264c105 0 189 22 249 69 60 46 90 114 90 204v110c0 93-30 167-91 221-61 55-144 82-248 82h-180c-84 0-138-22-162-65h-11v160c0 35-20 53-63 53h-174c-43 0-63-18-63-53v-435c0-35 20-53 63-53h174c43 0 63 18 63 53v10c0 65 39 97 118 97h190c30 0 51-6 62-18 11-11 17-30 17-56v-88c0-42-26-63-79-63zm52-1428v166c0 36-19 54-57 54h-212c-38 0-57-18-57-54v-166c0-33 19-50 57-50h212c38 0 57 17 57 50zm1136 1121v9c57 20 86 62 86 125v153c0 114-32 204-98 271-65 67-158 101-280 101h-275c-41 0-62-18-62-53v-132c0-37 21-56 62-56h173c82 0 134-16 157-48 15-25 23-61 23-109v-108c0-102-60-153-183-153h-68c-42 0-63-18-63-53v-148c0-32 20-49 60-49h747c22 0 32-10 32-32v-120c0-20-9-30-26-32h-992c-43 0-63-19-63-56v-132c0-35 20-53 63-53h1496c42 0 63 18 63 53v132c0 37-21 56-63 56h-141c-22 0-32 10-32 32v1114c0 35-21 53-62 53h-181c-41 0-62-18-62-53v-679c0-22-10-33-32-33h-279zm977 344c-94 0-141-78-141-235 0-82 30-148 90-197s138-74 233-74h402c22 0 32-10 32-32v-208c0-20-9-30-26-32h-809c-43 0-63-19-63-56v-132c0-35 20-53 63-53h1313c42 0 63 18 63 53v132c0 37-21 56-63 56h-141c-21 0-32 10-32 32v1114c0 35-21 53-62 53h-181c-41 0-62-18-62-53v-599c0-21-10-32-32-32h-282c-33 0-58 1-75 5-44 7-65 34-65 80l23 125c0 36-19 53-57 53h-128zM6777 22280h276c16 0 23-10 23-30v-331c0-20-7-29-23-29h-224c-15 0-23 9-23 29v213c0 70-10 117-29 140v8zm44 678c0 30-13 45-40 45h-153c-16 0-30-9-40-28l-221-397-55-81v-155c0-18 5-33 16-45 11-11 25-17 42-17h143c44 0 67-25 67-77v-284c0-20-8-29-23-29h-315c-31 0-46-18-46-54v-120c0-33 15-50 46-50h1188c31 0 46 17 46 50v122c0 35-15 52-46 52h-105c-15 0-23 9-23 29v1035c0 33-15 49-46 49h-133c-31 0-47-16-47-49v-421c0-20-7-30-23-30h-481l238 416c7 15 11 28 11 39zm962-1292h104c31 0 47 17 47 50v122c0 35-16 52-47 52h-104c-16 0-23 9-23 29v1035c0 33-16 49-46 49h-134c-31 0-46-16-46-49v-1035c0-20-8-29-23-29h-104c-32 0-47-17-47-52v-122c0-33 15-50 47-50h104c15 0 23-9 23-30v-161c0-60-9-101-27-125s-51-35-99-35-80 11-98 34-27 64-27 124v11c0 34-14 52-43 52h-135c-32 0-48-18-48-52v-11c0-123 28-218 86-285 57-67 143-101 257-101 115 0 204 28 266 85 62 56 94 140 94 250v214c0 21 7 30 23 30zm81 0h1028c30 0 46 17 46 52v122c0 33-16 50-46 50h-80c-17 0-25 9-25 28v182c0 114-28 201-86 262-57 60-138 90-244 90h-64c-31 0-46-17-46-52v-118c0-32 15-49 46-49h31c49 0 85-10 107-29 23-19 34-54 34-104v-182c0-19-8-28-25-28h-301c-17 0-26 9-26 28v596c0 135 71 202 213 202h247c32 0 47 17 47 51v123c0 32-15 50-47 53h-295c-121 0-215-39-284-118-68-78-102-179-102-300v-607c0-19-8-28-25-28h-103c-31 0-46-17-46-50v-122c0-35 15-52 46-52zm1539 614h277c15 0 23-10 23-30v-331c0-20-8-29-23-29h-225c-15 0-23 9-23 29v213c0 70-10 117-29 140v8zm44 678c0 30-13 45-40 45h-153c-16 0-30-9-40-28l-220-397-56-81v-155c0-18 5-33 16-45 11-11 25-17 42-17h143c45 0 67-25 67-77v-284c0-20-8-29-23-29h-315c-31 0-46-18-46-54v-120c0-33 15-50 46-50h1188c31 0 46 17 46 50v122c0 35-15 52-46 52h-104c-16 0-23 9-23 29v1035c0 33-16 49-47 49h-133c-31 0-46-16-46-49v-421c0-20-8-30-23-30h-482l238 416c8 15 11 28 11 39zm1518-1292h725c30 0 46 17 46 50v122c0 35-16 52-46 52h-105c-15 0-23 9-23 29v1035c0 33-15 49-46 49h-133c-32 0-47-16-47-49v-1035c0-20-8-29-23-29h-185c-16 0-23 9-23 29v1035c0 33-16 49-47 49h-133c-31 0-47-16-47-49v-345c0-21-7-31-23-31h-150c-2 113-31 200-89 260s-140 90-247 90h-209c-31 0-46-17-46-51v-123c0-32 15-49 46-49h191c47 0 80-10 102-31 21-21 31-55 31-102v-47c0-47-10-81-30-101-21-20-55-30-103-30h-87c-30 0-46-17-46-52v-118c0-36 15-53 45-53h88c47 0 80-11 102-31 21-21 31-55 31-103v-17c0-47-10-81-30-101-21-20-55-29-103-29h-133c-31 0-46-17-46-52v-122c0-33 15-50 46-50h164c111 0 193 31 245 92 52 60 78 152 78 273v20c0 111-36 187-109 227v9c38 14 66 39 84 75h175c16 0 23-10 23-30v-567c0-29 8-52 24-71 15-19 37-28 63-28zm1331-167v84c0 33 6 55 18 66 11 12 34 17 69 17h209c31 0 46 17 46 50v124c0 33-15 50-46 50h-124c-15 0-23 8-23 25v198c0 78-38 118-114 118h-280c-22 0-37 5-45 16-9 11-13 28-13 53v8c0 38 19 58 58 58h195c78 0 140 21 184 64 45 43 67 106 67 189v103c0 86-22 155-67 205-46 51-107 76-184 76h-133c-62 0-102-20-120-60h-8v148c0 33-15 50-46 50h-129c-32 0-47-17-47-50v-403c0-33 15-50 47-50h129c31 0 46 17 46 50v9c0 60 29 90 87 90h141c22 0 37-6 46-17 8-10 12-28 12-52v-82c0-38-19-58-58-58h-179c-174 0-261-91-261-274v-32c0-86 23-151 71-196 46-44 110-66 190-66h164c15 0 23-10 23-30v-65c0-17-8-25-23-25h-531c-31 0-47-17-47-50v-124c0-33 16-50 47-50h444v-8c-27-13-41-44-41-93v-75c0-107 31-192 92-256s140-96 237-96h117c32 0 47 17 47 52v120c0 35-15 52-47 52h-102c-78 0-118 45-118 137zm1205 167h725c30 0 46 17 46 50v122c0 35-16 52-46 52h-105c-15 0-23 9-23 29v1035c0 33-15 49-47 49h-133c-31 0-46-16-46-49v-1035c0-20-8-29-23-29h-186c-15 0-23 9-23 29v1035c0 33-15 49-46 49h-133c-31 0-47-16-47-49v-345c0-21-7-31-23-31h-150c-2 113-32 200-90 260s-140 90-246 90h-209c-31 0-47-17-47-51v-123c0-32 16-49 47-49h191c47 0 80-10 101-31 22-21 32-55 32-102v-47c0-47-10-81-31-101-20-20-54-30-102-30h-87c-31 0-46-17-46-52v-118c0-36 15-53 44-53h89c47 0 80-11 101-31 22-21 32-55 32-103v-17c0-47-10-81-31-101-20-20-54-29-102-29h-133c-31 0-47-17-47-52v-122c0-33 16-50 47-50h164c111 0 192 31 244 92 52 60 79 152 79 273v20c0 111-36 187-109 227v9c38 14 65 39 83 75h176c16 0 23-10 23-30v-567c0-29 8-52 24-71 15-19 36-28 63-28zm1039 537v-284c0-18-6-28-19-29h-318c-32 0-47-17-47-52v-122c0-33 15-50 47-50h677c31 0 47 17 47 50v122c0 35-16 52-47 52h-91c-15 0-23 9-23 29v299c0 85-20 152-60 204-41 51-96 77-166 77h-9l239 420c8 12 12 24 12 37 0 31-14 47-41 47h-152c-17 0-31-9-41-28l-220-397-56-81v-155c0-18 6-33 16-45 11-11 25-17 42-17h143c45 0 67-25 67-77zM1410 27657l-56 288h-93c0-58-3-100-9-124-6-23-15-41-27-53-13-12-31-18-54-18h-64l-154 780c-3 14-5 25-6 33s-2 16-2 25c-1 10-1 22-1 35 0 25 5 42 17 52 11 10 28 16 52 18l-10 52H622l10-52c21-4 38-11 50-21 13-11 23-27 32-48 8-20 16-52 25-94l155-780h-58c-19 0-34 2-45 6-12 3-22 8-31 15s-18 16-28 28-21 28-33 49-26 47-40 81h-94l55-272h790zm266 434 9 3c38-52 77-91 117-115 39-25 83-37 132-37s87 15 116 46c28 30 42 72 42 126 0 35-5 76-14 124l-59 294c-5 25-8 43-10 57-1 13-2 24-2 34 0 24 5 41 16 51 10 9 29 15 55 19l-8 52h-298l90-433c13-62 21-105 23-128 3-23 5-42 5-55 0-24-5-42-14-53-9-12-23-18-40-18-15 0-32 6-50 19s-38 33-61 60c-22 27-40 56-54 86-13 30-24 68-32 113l-79 409h-206l182-900c10-53 16-91 16-115 0-11-1-21-4-28-2-6-5-12-9-16-5-4-11-7-18-9-7-3-21-6-42-9l12-52 214-13h81l-110 488zm1147 489c-49 60-101 105-156 134-56 29-117 44-182 44-56 0-103-11-143-33-39-21-68-54-88-97-20-42-30-93-30-153 0-28 3-63 10-106 9-59 23-111 42-156 23-56 54-105 92-145 38-41 82-72 133-94s106-32 167-32c72 0 127 14 164 43s56 73 56 133c0 40-7 76-22 107-14 31-39 58-73 83s-81 46-144 61c-62 15-137 24-224 26-6 31-9 64-9 98 0 19 1 38 5 56 3 18 9 33 18 47 8 14 20 25 34 33s33 13 55 13c42 0 81-10 114-29 34-19 74-52 120-101l61 68zm-381-268c88-3 156-22 203-57 46-35 69-84 69-148 0-27-5-47-17-62-11-13-27-20-47-20-44 0-84 24-120 73-35 49-65 120-88 214zm1149 433h-361l10-52c21-6 36-15 47-27 10-11 19-27 27-47s15-50 23-89l131-658c6-31 9-62 9-93 0-22-4-39-14-49-9-10-24-17-45-21l10-52h360l-10 52c-20 7-35 16-45 27-11 11-20 27-28 47-8 21-16 50-23 89l-131 658c-3 14-5 25-5 32-2 8-3 17-3 26-1 10-1 22-1 35 0 23 4 39 14 49 9 11 24 17 45 21l-10 52zm897 0h-298l90-433c13-62 21-105 24-128s4-42 4-55c0-24-4-42-13-53-10-12-23-18-40-18-15 0-32 6-50 19s-39 33-61 60c-23 27-41 56-54 86s-24 68-32 113l-79 409h-206l112-563c3-12 6-31 10-54 4-24 6-44 6-59 0-23-5-38-16-47-12-8-30-13-53-15l11-53 197-9h75l-41 173 9 3c33-45 64-81 92-107 28-25 56-44 84-55 28-12 59-17 93-17 49 0 88 15 116 46 28 30 42 72 42 126 0 35-4 76-14 124l-59 294c-5 25-8 43-10 57-1 13-2 24-2 34 0 24 5 41 16 51 11 9 30 15 56 19l-9 52zm861 0h-298l89-433c13-62 21-105 24-128s5-42 5-55c0-24-5-42-14-53-9-12-23-18-40-18-15 0-32 6-50 19s-39 33-61 60c-23 27-40 56-54 86-13 30-24 68-32 113l-79 409h-206l113-563c2-12 6-31 10-54 3-24 6-44 6-59 0-23-6-38-17-47-11-8-29-13-53-15l11-53 197-9h75l-41 173 9 3c33-45 64-81 92-107 28-25 56-44 84-55 28-12 59-17 93-17 49 0 88 15 117 46 27 30 42 72 42 126 0 35-5 76-15 124l-58 294c-5 25-9 43-10 57-2 13-3 24-3 34 0 24 6 41 16 51 11 9 30 15 56 19l-8 52zm421 13c-53 0-99-10-139-32-40-21-71-52-94-95s-34-95-34-157c0-23 1-49 4-78 4-36 10-73 20-111 11-43 25-82 41-116 19-38 40-71 64-99s50-51 78-70c28-18 58-32 91-42 39-11 81-16 124-16 59 0 108 12 149 36 40 24 70 57 89 100s29 94 29 151c0 70-10 140-31 211s-50 130-87 178c-37 47-81 83-132 106s-108 34-172 34zm-75-232c0 50 8 87 23 112 14 24 37 37 69 37 18 0 34-4 51-13 15-7 31-22 47-42 15-20 29-45 42-75 12-31 24-69 36-114 11-44 19-88 25-131 7-43 10-83 10-121 0-53-8-92-22-117-15-25-38-37-68-37-40 0-75 21-104 64-30 44-55 111-76 201-22 91-33 170-33 236zm1264-572 25 53c-60 177-199 428-417 750h-140l-66-607c-5-43-10-73-16-91-6-17-14-30-23-38-9-7-23-13-41-14l11-53h252l50 596c72-114 125-210 160-287 34-78 51-142 51-193 0-20-4-35-13-46-9-10-24-16-45-17l10-53h202zm647 45 64-57 81 12-111 556c-5 28-10 51-12 68-3 17-4 31-4 43 0 24 5 41 16 52 10 10 29 17 55 20l-8 52h-275l39-163-9-3c-33 46-63 83-91 108-28 26-56 44-83 55s-58 16-93 16c-34 0-63-9-89-26-25-18-45-45-60-83s-22-87-22-145c0-56 6-112 17-169 12-57 30-110 52-159 23-50 53-92 87-127 35-35 75-61 119-80 44-18 92-27 144-27 72 0 132 19 183 57zm-108 251c3-18 6-37 8-58s3-41 3-60c0-36-6-62-18-81-12-18-32-26-59-26-44 0-84 25-118 74-35 50-62 117-84 201-21 83-31 159-31 225 0 39 5 68 15 87 11 19 26 29 48 29 32 0 64-17 97-52 33-34 59-74 79-120 20-47 38-110 54-190l6-29zm816 350c-34 41-64 72-91 94s-55 38-84 49c-29 10-63 15-101 15-39 0-71-8-97-23-25-16-44-37-55-64-12-26-18-55-18-88 0-25 2-49 5-72 4-23 11-60 21-111l74-346h-97l10-53c30-2 53-7 70-16s31-21 43-39c11-17 23-40 33-70s22-70 35-121h172l-41 199h174l-19 100h-176l-80 365c-3 15-6 31-9 46-3 16-5 30-7 45-2 14-4 26-4 35-1 9-1 17-1 25 0 25 4 43 12 54 8 12 20 18 36 18 21 0 43-9 66-26s47-43 74-79l55 63zm467-964-38 196h-185l39-196h184zm-166 896c-5 27-9 47-10 59-1 13-2 24-2 32 0 23 5 40 16 50s30 16 56 20l-8 52h-298l111-556c6-32 11-57 14-75 2-18 3-32 3-45 0-21-5-36-13-44-9-9-28-15-56-18l11-53 210-9h82l-116 587zm474 226c-53 0-99-10-139-32-40-21-71-52-94-95s-34-95-34-157c0-23 1-49 4-78 4-36 10-73 20-111 11-43 25-82 42-116 18-38 39-71 63-99s50-51 78-70c28-18 58-32 91-42 40-11 81-16 124-16 59 0 108 12 149 36 40 24 70 57 89 100 20 43 29 94 29 151 0 70-10 140-31 211s-50 130-87 178c-37 47-81 83-132 106s-108 34-172 34zm-74-232c0 50 7 87 22 112 14 24 37 37 69 37 18 0 34-4 51-13 16-7 31-22 47-42 15-20 29-45 42-75 12-31 24-69 36-114 11-44 19-88 26-131 6-43 9-83 9-121 0-53-7-92-22-117s-37-37-68-37c-40 0-75 21-104 64-30 44-55 111-76 201-21 91-32 170-32 236zm1306 219h-297l89-433c13-62 21-105 24-128s5-42 5-55c0-24-5-42-14-53-9-12-23-18-40-18-15 0-32 6-50 19s-39 33-61 60c-23 27-40 56-54 86-13 30-24 68-32 113l-79 409h-206l113-563c2-12 6-31 10-54 3-24 6-44 6-59 0-23-6-38-17-47-11-8-29-13-53-15l11-53 197-9h75l-41 173 9 3c33-45 64-81 92-107 28-25 56-44 84-55 28-12 59-17 93-17 49 0 88 15 116 46 28 30 43 72 43 126 0 35-5 76-15 124l-58 294c-5 25-9 43-10 57-2 13-3 24-3 34 0 24 6 41 16 51 11 9 30 15 56 19l-9 52zm1322-1088-51 257h-92c-2-51-6-86-13-106-6-20-15-35-28-44s-32-14-55-14h-180l-76 383h100c19 0 35-4 48-11s26-18 37-34c11-17 22-39 33-68h79l-69 324h-74c0-31-2-54-5-71-3-16-9-28-18-35-9-8-25-12-47-12h-102l-85 426h162c21 0 37-2 49-5s23-8 32-15c10-7 22-18 34-33 13-15 26-34 39-57 12-23 25-51 39-84h97l-66 287h-682l10-52c20-6 36-15 47-27 10-11 19-27 27-47s15-50 23-89l130-658c7-31 10-62 10-93 0-22-5-39-14-49s-24-17-46-21l10-52h697zm688 1088h-298l89-433c13-62 22-105 24-128 3-23 5-42 5-55 0-24-5-42-14-53-9-12-23-18-40-18-15 0-32 6-50 19s-38 33-61 60c-22 27-40 56-54 86-13 30-24 68-32 113l-79 409h-206l113-563c2-12 6-31 10-54 4-24 6-44 6-59 0-23-6-38-17-47-11-8-29-13-53-15l11-53 197-9h75l-40 173 8 3c33-45 64-81 92-107 28-25 57-44 85-55 27-12 58-17 92-17 50 0 88 15 117 46 28 30 42 72 42 126 0 35-5 76-14 124l-59 294c-5 25-9 43-10 57-2 13-3 24-3 34 0 24 6 41 17 51 10 9 29 15 55 19l-8 52zm208 67c-13 17-22 34-27 49s-7 32-7 50c0 36 11 63 34 81s57 27 102 27c34 0 64-6 91-18 26-13 51-33 74-60 22-29 43-70 62-125 20-55 38-129 56-222l-9-7c-32 43-60 77-87 101-26 25-53 43-80 54-28 11-59 16-94 16-33 0-62-9-88-26-25-18-46-45-61-83s-22-87-22-145c0-73 9-145 28-216 20-71 47-132 82-183s79-91 131-120 112-43 180-43c34 0 65 4 94 12 28 8 57 23 87 45l64-57 81 12-62 312c-10 51-19 100-28 147l-45 245c-12 67-25 122-37 164-12 37-25 69-39 95-12 24-27 46-44 65-16 19-33 35-52 49-20 14-41 26-65 36-27 11-58 19-91 25-36 6-77 10-123 10-67 0-123-7-169-20-46-14-80-34-102-60-22-27-33-61-33-100 0-33 10-65 31-94 22-29 53-57 94-84l74 68zm437-563c8-40 12-78 12-115s-6-64-18-83c-12-18-32-26-59-26-43 0-82 24-116 71-35 48-63 115-84 199-23 86-33 162-33 230 0 39 5 68 15 87s26 29 48 29c20 0 41-8 62-22 22-14 44-37 67-68 23-30 43-67 58-110 16-43 30-97 42-163l6-29zm742-613-37 196h-186l40-196h183zm-166 896c-5 27-8 47-10 59-1 13-2 24-2 32 0 23 6 40 17 50 10 10 29 16 55 20l-8 52h-298l111-556c7-32 11-57 14-75 2-18 3-32 3-45 0-21-4-36-13-44-9-9-28-15-56-18l11-53 210-9h82l-116 587zm913 213h-298l90-433c13-62 21-105 24-128s4-42 4-55c0-24-4-42-14-53-9-12-22-18-39-18-16 0-32 6-50 19s-39 33-61 60c-23 27-41 56-54 86s-24 68-33 113l-78 409h-206l112-563c3-12 6-31 10-54 4-24 6-44 6-59 0-23-5-38-16-47-12-8-30-13-53-15l10-53 198-9h75l-41 173 9 3c33-45 64-81 92-107 28-25 56-44 84-55 28-12 59-17 93-17 49 0 88 15 116 46 28 30 42 72 42 126 0 35-4 76-14 124l-59 294c-5 25-8 43-10 57-1 13-2 24-2 34 0 24 5 41 16 51 11 9 30 15 56 19l-9 52zm753-165c-48 60-100 105-156 134s-117 44-181 44c-57 0-104-11-143-33-40-21-69-54-89-97-20-42-30-93-30-153 0-28 4-63 10-106 9-59 23-111 42-156 23-56 54-105 92-145 38-41 82-72 133-94s107-32 167-32c72 0 127 14 164 43s56 73 56 133c0 40-7 76-22 107-14 31-39 58-73 83-33 25-81 46-143 61s-137 24-225 26c-6 31-9 64-9 98 0 19 2 38 5 56s9 33 18 47 20 25 34 33c15 8 33 13 55 13 42 0 81-10 115-29 33-19 73-52 120-101l60 68zm-380-268c88-3 155-22 202-57 46-35 69-84 69-148 0-27-5-47-16-62-12-13-28-20-48-20-44 0-84 24-119 73-36 49-65 120-88 214zm1105 446c-53 0-99-10-139-32-40-21-71-52-94-95s-34-95-34-157c0-23 1-49 4-78 4-36 10-73 20-111 11-43 25-82 42-116 18-38 39-71 63-99s50-51 78-70c28-18 58-32 91-42 40-11 81-16 124-16 59 0 108 12 149 36 40 24 70 57 89 100 20 43 29 94 29 151 0 70-10 140-31 211s-50 130-87 178c-37 47-81 83-132 106s-108 34-172 34zm-74-232c0 50 7 87 22 112 14 24 37 37 69 37 18 0 34-4 51-13 16-7 31-22 47-42 15-20 29-45 42-75 12-31 24-69 36-114 11-44 19-88 25-131 7-43 10-83 10-121 0-53-7-92-22-117s-38-37-68-37c-40 0-75 21-104 64-30 44-55 111-76 201-22 91-32 170-32 236zm643-472 10-53c20-2 35-5 45-8 9-3 18-8 25-14s14-15 20-29 13-36 20-66c12-50 27-92 46-126 18-32 41-62 70-87 30-24 64-42 103-54 39-11 82-17 129-17 18 0 38 1 60 3 22 1 47 6 74 12l-32 159h-92c-2-33-7-56-15-70-7-14-20-21-36-21-11 0-20 3-29 7-9 6-17 14-25 26s-16 30-23 53c-8 23-16 56-24 98l-18 87h137l-20 100h-137l-130 667c-17 85-40 156-70 212-31 56-70 98-119 126-48 28-107 43-177 43-22 0-45-4-68-10l20-87c13 4 29 6 47 6 21 0 39-3 53-10 13-7 25-18 36-34 12-17 22-41 32-72 9-31 20-75 31-132l143-709h-86zm1063 691h-362l10-52c21-6 36-15 47-27 10-11 20-27 27-47 8-20 15-50 23-89l131-658c6-31 9-62 9-93 0-22-4-39-13-49-10-10-25-17-46-21l10-52h361l-10 52c-20 7-36 16-46 27-11 11-20 27-28 47-8 21-16 50-23 89l-131 658c-3 14-4 25-5 32-2 8-2 17-3 26-1 10-1 22-1 35 0 23 5 39 14 49 9 11 24 17 46 21l-10 52zm896 0h-297l89-433c13-62 21-105 24-128s4-42 4-55c0-24-4-42-13-53-9-12-23-18-40-18-15 0-32 6-50 19s-39 33-61 60c-23 27-41 56-54 86s-24 68-32 113l-79 409h-206l113-563c2-12 5-31 10-54 3-24 5-44 5-59 0-23-5-38-16-47-11-8-29-13-53-15l11-53 197-9h75l-41 173 9 3c33-45 64-81 92-107 28-25 56-44 84-55 28-12 59-17 93-17 49 0 88 15 116 46 28 30 42 72 42 126 0 35-4 76-14 124l-58 294c-5 25-9 43-10 57-2 13-3 24-3 34 0 24 5 41 16 51 11 9 30 15 56 19l-9 52zm719-900c3-14 7-33 10-58 4-25 6-44 6-57 0-11-1-21-3-28-2-6-6-12-10-16s-10-7-17-9c-7-3-21-6-43-9l12-52 215-13h81l-181 907c-5 26-9 48-12 66s-5 33-5 45c0 24 6 41 16 52 11 10 29 17 56 20l-8 52h-275l38-163-9-3c-33 46-63 83-91 108-27 26-55 44-82 55s-58 16-94 16c-33 0-63-9-88-26-25-18-45-45-60-83s-23-87-23-145c0-56 6-112 18-169s29-110 52-159c23-50 51-92 86-127s74-61 119-80c44-18 92-27 145-27 42 0 83 8 123 24l24-121zm-73 405c3-17 6-35 8-56s3-42 3-62c0-36-5-62-18-81-12-18-31-26-58-26-45 0-84 25-119 74-34 50-62 117-83 201-21 83-32 159-32 225 0 39 5 68 16 87 10 19 26 29 48 29 31 0 63-17 96-52 33-34 60-74 80-120 20-47 37-110 53-190l6-29zm749-614-37 196h-186l39-196h184zm-166 896c-5 27-8 47-10 59-1 13-2 24-2 32 0 23 6 40 16 50 11 10 30 16 56 20l-8 52h-298l111-556c7-32 11-57 14-75 2-18 3-32 3-45 0-21-5-36-13-44-9-9-28-15-56-18l11-53 210-9h82l-116 587zm807-533 64-57 81 12-111 556c-5 28-10 51-12 68-3 17-4 31-4 43 0 24 5 41 16 52 10 10 29 17 55 20l-8 52h-275l39-163-9-3c-33 46-63 83-91 108-28 26-56 44-83 55s-58 16-93 16c-34 0-63-9-89-26-25-18-45-45-60-83s-22-87-22-145c0-56 6-112 17-169 12-57 30-110 52-159 23-50 52-92 87-127s75-61 119-80c44-18 92-27 144-27 72 0 132 19 183 57zm-109 251c4-18 7-37 9-58s3-41 3-60c0-36-6-62-18-81-12-18-32-26-59-26-44 0-84 25-118 74-35 50-62 117-84 201-21 83-31 159-31 225 0 39 5 68 15 87 11 19 26 29 48 29 32 0 64-17 97-52 33-34 59-74 79-120 20-47 38-110 54-190l5-29zM10773 12004l123-36 55 188-93 231-61-26 61-178z"/><path class="fil1" d="M9439 3892c-85 7-149-45-157-150 0-94 77-159 172-174 77-5 139 25 236 97l8 97c-67 70-164 125-259 130zm1799-1705H9877c-281-659-438-1774-844-1931-2-5-2-5-5-9-331 52-659 116-983 199-214 288-92 1283-12 2110-421 174-842 348-1262 522-508-500-1070-1470-1506-1463 0-2-2-2-5-5-301 184-592 381-873 592-80 354 408 1219 791 1948l-16 15 96-49c86-46 357 131 650 355l97-76-13-11 1101-616-1-1 17-7 13-8 1 1 119-53c-175-119-382-219-444-192l-137 63-263-160 201-89c98-45 426 105 761 324l35-15-12-13 172-72c-30-40-62-97-75-132-64-177 18-331 237-421 231-94 540 8 799 95l39 94c-363-59-527-131-721-52-132 55-227 145-177 269 10 25 25 67 45 87l155-63-13-17 1102-321 8 10-5-12 1441-100 97 192-642 47 22 336c65-70 124-112 209-117 147-12 291 239 304 388 5 85-45 234-147 359l-124-155c77-124 126-229 121-301-5-59-44-134-104-131-105 12-192 141-242 266l38 537-189-132-20-306c-67 38-145 62-252 70-186 12-306-157-316-326-10-147 65-289 244-301 142-10 229 32 291 87l-20-261-624 44-5-10-217 63 319 1129-202-79-283-1000-232 67 162 567c25 85-8 132-43 142-27 7-64-3-97-25l-174-120c-30-22-45-42-50-62-10-35 10-67 65-84l72-20-99-351-214 63 5 4-239 100 433 1082-209-60-382-947-131 59 473 1072-212-52-418-950-112 52-4-4-180 98 565 1028-214-32-70-127c-72 122-214 274-316 331-137 74-348-15-420-145-20-37-25-94-18-136-94-8-221-75-274-170-44-87-34-196 55-248l207-115-47-84-350 194-141 112 714 925-216 3-635-821-97 77-14-9-172 180 838 816-216 35-329-321c-30 45-79 102-99 125-23 17-58 45-95 62 15 10 25 17 35 27 129 125 129 344-8 486-114 121-420 149-659 72-32-33-35-102-17-122 14-15 19-23 47-10 144 77 371 47 488-72 62-102 44-192-18-252-45-44-119-97-164-49-15 14-72 102-87 219l-164 2s-30 5-48-15c-25-22 5-144 132-284 13-44 3-116-37-154-67-65-154-32-214 30-13 13-28 30-40 50-30 40-35 74-55 189l-186-25c-10-119 52-214 117-281 129-137 390-192 517-67 50 49 90 119 92 201 75-27 152-27 227-104 32-38 74-115 94-167l-271-264-179 187-202-80 518-537 9 4 118-93c-126-41-285-65-316-38l-70 65-189-53 107-89c52-45 281-23 515 47-147-117-368-276-418-239l-94 65-183-129c-303 303-603 605-905 905-660-266-1548-945-1946-769-3 0-3 0-5-2-209 284-404 575-585 881 55 356 836 970 1471 1498-177 422-351 845-528 1268-231 3-501-25-771-54-558-58-1114-116-1317 97h-15c-85 336-152 681-202 1030 172 313 1138 579 1929 823 0 461-2 919-5 1376-652 281-1757 438-1914 849-2 0-7 2-10 2 50 351 117 697 202 1035 284 219 1274 92 2096 13 171 423 343 848 515 1271-496 515-1456 1085-1446 1523l-3 2c182 306 379 603 588 886 355 77 1207-415 1923-801 321 326 643 649 961 975-261 665-931 1560-759 1963 281 214 578 414 881 595 359-70 956-848 1471-1483 418 177 839 353 1259 530 8 719-271 1809 43 2110v5c338 85 684 154 1035 204 304-199 563-1154 799-1941 453 0 908 3 1361 3 279 659 436 1769 839 1933 354-55 702-124 1040-211 202-307 80-1284 0-2098 421-176 839-351 1260-525 503 495 1058 1443 1491 1461 311-189 612-394 901-612 54-369-424-1210-799-1924 321-323 642-647 963-970 649 261 1518 918 1926 774 219-294 421-600 605-913-87-364-849-956-1466-1468 174-426 349-849 523-1272 232-3 503 25 774 52 551 57 1099 114 1306-92 88-345 157-701 209-1062-209-304-1147-560-1916-796V9908c650-281 1742-438 1912-841-53-361-123-714-212-1060-306-199-1269-75-2076 5-171-423-346-849-520-1271 490-508 1434-1075 1446-1511-187-313-386-614-602-906-364-59-1200 428-1909 809-321-323-642-649-963-973 261-661 920-1552 761-1958-286-214-582-415-891-599-356 74-950 853-1463 1485-421-174-839-351-1260-528-9-716 267-1806-47-2109v-5c-336-85-679-155-1030-205-306 190-563 1155-802 1946zM7246 4705c-72 194-226 376-298 416-63 35-130-23-165-85-25-47-32-104 15-132l254-142-154-109-276 152c-70 20-125-15-152-65-20-40-23-72 27-99l311-175-129-236 234-132 333 607zm5707 381c38-77 30-127 13-135-65-34-130-9-187 5l-80-169c77-54 150-62 239-15 142 73 202 326 155 418-83 162-294 132-456 48-197-102-331-391-393-573l97-32c55 167 177 381 361 475 74 40 209 57 251-22zm4525 6588-157-19 62-451 157 22-62 448zm256 580-191-40c27-62 87-112 161-94 60 12 100 20 93 67-13 62-26 77-63 67zm68-318c-142-30-284 72-356 256l-105-23 17-77c10-42-9-72-47-82-22-2-60 5-99 25l-167 110c-20 15-50 49-52 69-8 33 2 58 47 67l102 23-66 314-410-142-181 121 1097 384-70 203-960-373-187 115 1085 420-48 130h-9l-129 291-286-130c-50-22-80-42-70-62 0-2 5 3 5 0 65-25 95-57 107-87 22-47-5-94-37-127-68-30-162-20-304 30l-582 202 14 134 580-209c0 87 33 194 192 266l311 140-130 295-12-2-371 580-146-97 151-239c83-127 90-304-69-410-174-110-446-80-687-75l-77 119c256-35 478-25 654 90 72 47 72 127 23 201l-140 219-572-375-204 72 973 639-139 219 209 40 606-940h1l2-5v-1l296-668 13-1 196-520h-7l130-378-29 1 53-252-219 74-59 284 6 1-6 19-404-140 70-335 339 72c89 20 293-62 323-214 20-90-45-237-166-261zm-3313-7626-187 358c-67-13-159-30-234-70-57-32-102-77-97-147 5-5 10-10 15-19l162-307 341 185zm-2905-140c192 43 376-74 413-249 3-17 3-29 5-44 33 20 75 37 102 44 28 8 103 20 157 23l-97 448 142 169 244-1152 237 53v39l592 229-120 321-420-164c-67-25-120-5-140 44-10 25-10 58 3 97l50 170c17 37 39 62 54 69 33 13 73-10 92-64l38-95 261 102-187 490 115 189 416-1097 179 70-3 35 279 149-147 278c-25 53-50 78-69 65l2-2c-20-65-52-102-80-117-47-25-94 0-129 30-32 64-30 161 10 311l162 599 129-7-167-602c53 5 110 0 170-43 22 75 84 177 184 232 37 17 92 45 144 60l-194 368 82 211 548-1037 226 122 23-214-1112-598-1-32-959-374-4-31-724-160 39 214 252 53-80 373c-52 12-142 17-189 7-105-22-144-84-207-137 65-44 105-117 120-186 37-174-150-369-331-408-90-20-204-23-296 50l77 171c107-42 137-57 189-52 20 0 42 5 60 7 84 20 159 78 139 170-12 52-65 99-109 114-182-37-304 3-312 37-4 25 15 45 15 45l90 142c107-47 209-47 231-42 63 12 58 104 45 166-17 87-84 150-204 150-162-38-306-217-318-378-3-33-15-33-35-38-25-5-82 35-92 80 64 246 249 492 410 527zm3405 597c35-47 95-87 137-52 42 32 37 75 10 110-35 47-107 77-159 37-30-25-15-62 12-95zm-117 224c-85 5-164 38-214 102-72 107-5 379 95 458 73 59 185 98 298 103l-226 245 35 217 794-858 82 78 74 78-739 722 23 219 836-816 114 118-2 4 398 497-264 214-281-351c-47-59-102-67-144-32-20 15-35 42-45 85l-40 171c-2 43 2 73 15 87 20 28 65 30 110-7l77-65 176 222-403 328 5 222 904-739 164 204 102-192-622-774 2-5-32-33-15-19-1 2-232-241 1-5-65-61-39-41-1 3-163-153 17-22-259-204-57 207 94 75-7 19 90 85-286 310c-217 47-351 28-444-46-69-55-64-125-19-182 62-82 146-45 218 10 40 32 83 75 150 197l52-289-199-157v-10c87 15 209-5 254-64 79-115 35-252-60-326-70-52-219-90-301 17-87 130-85 239-20 393zM3774 7693c-102-47-109-119-92-186 28-62 112-62 212-15 52 25 82 80 107 124-70 55-182 97-227 77zm1280-405 206-70-961-657 145-216-212-42-308 462 14 4-136 250-15-7-97 214 214 7 3-6 7 1 59-109 403 226c67 187 66 304 28 386-32 74-102 114-177 112-7-125-82-423-236-496-162-77-346-29-433 160-77 169-10 303 132 370 97 38 264-24 358-151 20 84 13 179-7 301 248 12 430-110 507-281 39-84 53-181 32-286l292 164 201-90-1015-567 125-229h-3l20-30 854 580zm-152 7163c35 60 22 137-92 209-100 62-214-5-262-80-57-92-59-206-57-308l47-30c137 35 299 104 364 209zm-1352-3894h95c65 75 109 177 107 271 0 87-57 147-159 147-95-7-152-92-160-189 3-77 38-139 117-229zm1489 3165-986 624-117-190 10-11-311-702 157-79 286 647c22 49 60 64 95 47 32-12 47-50 34-167-15-157 68-336 155-375 62-28 166 17 196 87 5 7 5 17 8 27-45 55-52 97-25 159 20 48 62 53 109 33 28-13 50-30 70-55 45-50 40-144 20-204l179-460-124-5-130 328c-79-80-241-157-358-104-100 44-162 218-197 345l-159-365 625-282 52-211-1063 478-98-222 9-7-35-120 988-286 82-204-1117 321-65-223 990-232 92-199-1129 261-43-187 5-2-79-637 338-40 55 448c7 75 50 109 104 105 25-5 53-18 85-48l122-124c25-35 37-65 35-82-5-33-42-60-100-52l-99 12-33-281 515-65 110-189-1152 144-32-254 9-577 262 5c-63 57-112 140-112 284-5 184 129 271 273 274 170 2 346-102 351-292 0-109-15-186-47-256l304 5 144-179-533-7c-119-63-236-162-238-267 0-62 77-94 136-94 73 2 172 59 289 149l162-112c-112-114-257-177-341-179-149-3-408 122-411 271 0 85 38 149 97 222l-333-8 12-652-199 82-25 1461 15-6 123 1001h-1l2 7 3 28 3-1 37 165c-25 20-67 28-92 32-130 30-202-74-234-216-47-206 47-358 164-712l-99 25c-125 244-274 535-219 782 52 233 191 338 375 303 38-10 97-32 142-55l42 185 16-12 116 410 62-48-57 60 482 1095-1 2 27 45c-242 246-435 478-406 567l60 174 169-184-52-101c-26-54 145-242 280-373l5 7c-94 220-144 432-108 487l70 120 79-179-54-82c-20-30 14-155 61-267l486 787 124-180-388-629 209-132c-27 115-7 236 53 331 12 20 24 37 42 55 99 112 269 176 405 89 190-117 219-375 125-527-47-77-139-152-236-194l273-172 23-219zm12536-3866 279-336 40 291-319 45zm-184-18c-42 5-117-80-130-172-7-54-20-97 38-106l418-58-289 331-37 5zm-491-1975c-47-33-119-90-136-127-28-60 7-147 64-175l386-179 127 277-441 204zm1060 1235 48-39-196-645 14-11-64-197c22-22 64-32 89-40 125-42 209 57 252 194 64 202-18 364-100 724l95-32c102-256 229-557 151-799-74-226-221-321-400-268-38 12-95 39-137 67l-50-156 5-6-445-965-147 159 64 142-308 146c-157 73-252 326-177 483 15 37 37 67 72 92l-318 149-48 217 1053-498 86 187-9 7 38 117-974 321-74 209 1100-363 26 81-11 9 95 306-302 92c-52 15-87 17-92-3-2 0 5 0 3-2 32-63 35-105 25-137-15-50-65-70-112-70-70 20-135 92-209 222l-309 540 97 92 304-545c57 67 149 127 316 74l328-99 95 313-28 15 15 102-420 60c-145 22-296 224-276 373 9 72 44 145 92 192l-341 47-110 194 1152-164 29 213-21 8v617h-179v-189c0-263-122-350-244-350-314 0-530 321-530 572 0 15 2 25 5 40l-273 174-34-71-100 71 107 157-57 298h85l64-320-21-43 273-154c28 44 78 64 132 64 80 0 165-57 165-164-8-75-85-119-160-119h-34v-20c0-157 119-311 271-311 164 0 211 114 211 234v303h319v261l199-84v-1043l13-7-145-1043-33 19zM3257 8957l-214 28 308-1085 212-20-70 249 1118 323-177 130-655-192-72 251c-22 88 0 162 82 187 202 57 416 2 652-107l-39 137c-229 74-481 184-680 129-182-52-226-224-184-371l77-273-169-48-189 662zm11456-4921-35-179 177-38 30 180-172 37zM5718 15956c0 120-95 214-214 214-117 0-211-94-211-214 0-119 94-214 211-214 119 0 214 95 214 214zm9956 0c0 120-98 214-215 214s-211-94-211-214c0-119 94-214 211-214s215 95 215 214zm-3719 1249 222 1155-239 47-625-731-2 2 159 821-224 45-224-1157 254-50 607 714h5l-154-803 221-43zm-1132 155 40 1176-244 8-40-1177 244-7zm2683-714 492 1067-221 105-493-1068 222-104zm734-117 373 313-249 162-127-473 3-2zm-261-147 288 1217 214-142-62-249 361-236 192 161 224-144-981-761-236 154zm-871 1388c-18 87-68 147-155 177l-226 80-249-729 226-80c95-33 169-25 224 25s102 127 142 231c40 107 53 207 38 296zm-45-729c-102-72-232-82-386-30l-490 172 380 1112 486-169c156-55 251-154 281-299 32-144 20-298-37-460-53-142-130-249-234-326zm-6158-281c45-132 13-234-97-309-82-52-164-62-249-29-82 34-161 107-234 216 0 3 0 5-2 10-55 90-82 179-82 266 0 90 40 159 114 209 120 80 234 65 341-39l204 134c-87 94-191 152-306 172-114 22-229-8-348-83-132-87-214-201-242-343-30-142 10-296 117-465 8-8 13-15 20-28 55-77 112-139 174-186 60-47 125-77 192-97 67-18 134-20 204-5 70 12 140 40 204 84 80 53 142 112 182 184 40 70 62 142 65 220 2 74-15 149-53 223l-204-134zm951 674c32 43 50 87 57 135 3 47-7 102-35 161-44 97-104 160-179 187-74 27-147 35-219 22-67-12-124-27-169-49-299-145-398-336-296-575l211 99c-25 60-25 112 3 160 25 47 70 84 127 112 152 72 251 64 293-23 23-39 23-77 0-107-22-32-64-72-127-122-34-29-67-54-91-72-103-74-172-152-212-224-37-74-32-162 17-259 50-99 122-161 217-189 94-25 204-7 331 53 147 69 236 154 269 253 32 100 30 194-8 289l-211-102c39-112-10-201-150-261-117-50-196-40-239 37-25 55-12 105 35 149 35 28 77 63 125 100 47 37 79 67 97 82 69 55 119 104 154 144zm784-326-378 1113-232-80 381-1115 229 82zm1272 846 450 40-17 214-453-40 20-214zm-431-298c-20 109-87 152-199 129l-296-60 60-308 303 60c58 12 97 34 117 67 20 32 25 69 15 112zm-52-371-580-114-221 1156 234 45 87-450 253 47c75 18 122 40 137 67 13 30 18 73 8 132 0 15-5 38-10 65-5 30-8 57-13 77-2 23-4 45-4 70-3 22-3 52 2 82l264 52 5-32c-20-10-30-28-33-55-2-25 0-65 8-117 5-15 10-30 15-52l7-50c15-69 18-127 5-172-10-44-42-82-97-111 62-13 112-38 152-83 40-44 65-99 77-164 15-87 0-169-50-246-47-75-129-125-246-147zm715-8369c0 141 88 255 196 255 109 0 197-114 197-255 0-142-88-256-197-256-108 0-196 114-196 256zm-1006 5172c-496 556-993 1134-1491 1681 826 478 1781 752 2800 752 1095 0 2116-315 2981-860-595-509-1273-1087-1881-1607-387 151-809 235-1250 235-406 0-796-71-1159-201zm2661-6337c585-612 1102-1116 1688-1732-677-438-1452-735-2285-847-2-77-8-157-19-238l-51-373-99 363c-21 76-47 149-77 220-168-15-338-23-509-23-1107 0-2139 323-3010 880 317 366 625 723 935 1081-437 236-826 482-1087 791-257 304-436 647-529 992-360-326-706-639-1124-1015-525 865-827 1882-827 2971 0 1013 263 1964 722 2789 590-437 1089-848 1664-1280-215-449-335-952-335-1482 0-213 19-421 57-623 212 337 628 680 1441 782l8 1h-27c281 649 935 1032 1642 1122v208c-93 29-153 72-153 119 0 48 60 91 153 120v125c-465 95-881 366-1070 801h2850c-15-35-33-69-50-104 329-752 744-1267 1192-1605 364-276 483-996 301-1468-70-181-181-256-301-256-147 0-307 112-420 281-167 323-180 445 79 420 306-482 712 13 160 707-391 495-859 935-1198 1659-248-268-599-420-963-460v-99c97-29 159-72 159-121 0-48-62-92-159-121v-199c700-72 1357-440 1663-1129H8477l-42-106c-14-35-27-69-39-102h3823s-101-848-1313-1047c11-52 64-306-2-373-90-90-320-132-557-132-248 0-503 46-608 132-77 62-12 334-2 377-1040 158-1311 699-1380 933-566-1668 364-2430 1349-3233 192-34 389-51 591-51 539 0 1048 124 1502 345zm1741 4249c590 573 1179 1145 1769 1717 497-849 783-1839 783-2896 0-1035-275-2005-753-2842-706 566-1161 993-1860 1557 167 404 260 847 260 1312 0 404-70 791-199 1152zm-3145-7200c204-3 296 0 0 0z"/><path class="fil1" d="M11033 4924c-254 922-1225 1419-2163 1899-632 323-1228 628-1585 1050-548 647-742 1475-494 2110 154 397 551 897 1563 1024l8 1h115l-42-106c-14-35-27-69-39-102h-62s3-42 23-110c-568-1672 368-2433 1355-3238 802-653 1631-1328 1471-2518l-51-373-99 363zM6934 9927c-224-574-36-1360 468-1955 337-399 920-697 1538-1013 848-434 1721-880 2107-1649-39 889-718 1442-1432 2023-1004 818-2146 1643-1474 3483-671-113-1019-405-1207-889z"/><path class="fil1" d="M9316 7070c-405 227-852 377-1226 693-184 160-356 345-485 563-129 217-210 466-228 715-22 250 12 495 75 727 67 231 158 450 276 655-111-455-192-919-114-1350 42-214 120-415 239-594 117-179 268-338 437-483 339-290 739-528 1123-799 193-133 382-277 560-435 175-161 341-336 465-537-350 316-718 617-1122 845z"/><path class="fil0" d="M364 29364c6773-111 13622-112 20395 0-6023 98-12261 132-20395 0z"/></g></g></svg>