<?xml version="1.0" encoding="UTF-8"?>
<!DOCTYPE svg PUBLIC "-//W3C//DTD SVG 1.1//EN" "http://www.w3.org/Graphics/SVG/1.1/DTD/svg11.dtd">
<!-- Creator: CorelDRAW X8 -->
<svg xmlns="http://www.w3.org/2000/svg" xml:space="preserve" width="200mm" height="187.965mm" version="1.1" style="shape-rendering:geometricPrecision; text-rendering:geometricPrecision; image-rendering:optimizeQuality; fill-rule:evenodd; clip-rule:evenodd"
viewBox="0 0 20726 19479"
 xmlns:xlink="http://www.w3.org/1999/xlink">
 <defs>
  <style type="text/css">
   <![CDATA[
    .fil0 {fill:#FFFFFF;fill-rule:nonzero}
   ]]>
  </style>
 </defs>
 <g id="Layer_x0020_1">
  <metadata id="CorelCorpID_0Corel-Layer"/>
  <g id="_1428091268528">
   <path class="fil0" d="M19488 16474c-1131,-370 -3063,-743 -4462,-743 -733,0 -1460,59 -2146,174l615 -300c1,0 1,-1 2,-1 45,-18 90,-36 135,-55 1,-1 2,-1 3,-1 45,-19 90,-39 135,-58 1,-1 2,-1 3,-1 45,-20 89,-40 134,-60 1,-1 2,-1 3,-2 44,-20 88,-41 132,-62 1,-1 3,-1 4,-2 43,-20 86,-42 130,-63 2,-2 4,-3 7,-4 41,-21 83,-43 125,-65 4,-1 7,-3 11,-5 40,-21 80,-43 120,-65 5,-3 10,-5 15,-8 39,-21 77,-43 115,-65 7,-4 14,-8 21,-11 36,-21 72,-42 108,-64 9,-5 18,-10 27,-15 34,-21 68,-41 101,-62 11,-7 22,-14 33,-20 31,-20 63,-40 94,-60 13,-9 27,-18 40,-26 29,-19 57,-37 85,-56 17,-11 33,-23 50,-34 25,-17 50,-34 75,-51 20,-14 40,-29 61,-43 21,-14 41,-29 62,-44 26,-18 51,-37 76,-56 15,-11 31,-22 46,-33 41,-31 81,-61 121,-93 2,-1 3,-3 4,-4 1536,73 3349,427 4540,788l-953 334 328 936zm1238 -1258l0 -37 -241 -81c-1185,-398 -3218,-817 -4914,-896 397,-281 589,-682 675,-926 577,-321 838,-787 950,-1199 8,2 16,2 24,2 39,0 77,-21 95,-58 214,-412 496,-1035 643,-1496 9,-29 6,-60 -10,-86 274,-431 318,-850 271,-1200 24,-17 40,-43 44,-74 34,-267 55,-538 63,-805 3,-87 4,-176 4,-266 0,-20 0,-41 0,-62 2,-8 3,-18 3,-27 -11,-582 -81,-1163 -208,-1727 -5,-19 -15,-36 -29,-50 -20,-668 -411,-1121 -665,-1346 -37,-884 -676,-1360 -957,-1528 -203,-607 -638,-921 -999,-1082 -238,-318 -525,-513 -806,-632 -307,-443 -670,-674 -1017,-784 -2,-1 -3,-3 -4,-4 -394,-291 -1351,-576 -1976,-650 -324,-156 -928,-202 -1296,-202 -265,0 -826,21 -1204,183 -578,2 -1787,332 -2242,669 -2,1 -3,3 -4,4 -348,110 -710,341 -1018,784 -281,119 -568,314 -806,632 -361,161 -796,475 -999,1082 -281,168 -920,644 -957,1528 -254,225 -645,678 -665,1346 -14,14 -24,31 -28,50 -128,564 -198,1145 -209,1727 0,9 1,19 3,27l0 62c0,90 2,179 4,266 8,267 30,538 63,805 4,31 21,57 44,74 -47,350 -3,769 271,1200 -15,26 -19,57 -10,86 148,461 429,1084 643,1496 19,37 56,58 95,58 8,0 16,-1 24,-3 113,413 373,879 950,1200 87,246 282,652 686,933 -1667,94 -3623,502 -4776,889l-241 81 0 37 1293 454 -405 1154 212 -76c1074,-388 3179,-803 4599,-803 1094,0 2173,134 3121,387l386 104 -867 -866c620,-184 1305,-286 2024,-286 719,0 1403,102 2023,286l-866 866 386 -104c947,-253 2027,-387 3120,-387 1421,0 3525,415 4600,803l212 76 -405 -1154 1293 -454zm-10363 -392c-1090,0 -2142,202 -3047,584 -673,-266 -1309,-620 -1892,-1053 318,-156 653,-295 1001,-418 143,-50 288,-98 435,-142 98,-30 196,-59 296,-86 31,-8 61,-16 92,-24 30,-8 59,-16 89,-23 20,-5 40,-11 60,-15l1 -1c318,-79 645,-146 977,-199 26,-5 52,-9 78,-12 47,-8 96,-15 144,-22 65,-9 130,-18 196,-26 180,-23 361,-42 543,-56 12,-1 23,-2 35,-3 78,-6 156,-12 235,-16 49,-4 98,-6 147,-8 202,-10 406,-15 610,-15 114,0 228,1 341,4 41,1 82,3 123,4 124,5 247,11 370,19 179,12 357,28 534,47 31,4 62,7 92,11 58,6 117,13 174,21l1 0c53,7 106,14 158,22 23,3 46,7 69,10 313,47 622,106 925,177 37,8 74,17 110,26 53,12 104,25 156,39l0 0c9,2 17,4 25,6 95,25 189,50 282,77 152,44 302,91 449,141 29,9 57,19 85,29l0 0c29,10 58,20 87,30 254,91 500,191 737,299 74,33 148,68 221,104 -3,2 -7,4 -10,6 -580,431 -1212,782 -1882,1047 -905,-382 -1957,-584 -3047,-584zm-4664 907c-1399,0 -3331,373 -4461,743l328 -936 -953 -334c1191,-361 3004,-715 4539,-788 2,1 3,3 5,4 40,32 81,63 122,93 15,12 31,23 47,35 25,19 50,37 76,56 21,15 42,29 63,44 21,15 41,29 62,44 25,18 51,35 77,52 16,11 32,23 49,34 31,20 62,40 93,61 12,7 23,15 34,22 36,23 71,45 107,67 8,5 15,10 22,14 39,24 78,47 117,70 4,3 9,6 13,9 41,24 83,48 125,72 2,1 4,2 7,4 44,25 88,49 132,73 0,0 0,1 0,1 312,169 634,319 965,449l564 282c-682,-113 -1405,-171 -2133,-171zm-876 -1941c-112,-134 -193,-273 -250,-397 -50,-108 -82,-203 -101,-272 -7,-21 -11,-40 -15,-56 147,-9 288,-6 421,8 57,6 111,14 165,25 74,13 147,31 216,53 17,6 35,11 52,17 273,95 507,252 700,470 8,9 16,19 24,28 41,48 77,97 110,145 -9,4 -18,7 -28,11 -8,3 -16,6 -25,10 -12,4 -23,9 -35,14 -8,2 -16,6 -25,9l1 0c-18,7 -35,13 -52,20 -13,5 -26,11 -39,16 -21,8 -41,16 -61,25 -4,1 -8,3 -12,5 -14,6 -28,11 -42,17 -6,2 -12,5 -19,8 -11,4 -22,9 -33,14 -19,7 -37,15 -56,24 -24,10 -47,20 -71,31 -38,16 -75,33 -112,50 -94,43 -186,87 -276,132 16,-8 32,-16 49,-24 -185,-92 -347,-219 -486,-383zm-417 -904c-14,1 -29,4 -44,10l-10 4c-12,6 -22,13 -33,21l-5 4 -4 5 -8 6 -5 9c-7,8 -14,20 -19,34 -2,4 -3,9 -5,13 0,3 -1,6 -2,9 -311,-212 -530,-495 -655,-847 -6,-16 -11,-32 -16,-48 -6,-15 -10,-31 -15,-47 -3,-10 -6,-20 -9,-30 -2,-9 -4,-17 -6,-25 249,-103 490,-228 722,-375l1 0c49,37 96,76 141,117 8,7 16,14 24,22 -8,-8 -16,-16 -24,-23 16,15 32,30 48,45 1,1 3,3 4,4 -1,-1 -3,-2 -4,-3 2,2 4,4 7,6 13,13 26,26 39,39l0 0c10,11 20,21 30,32 0,0 0,0 0,0 10,11 19,22 29,32 10,11 19,22 28,33l0 0c3,4 6,7 8,10 0,0 0,1 1,1 0,0 0,0 0,0l1 2c6,6 12,14 17,21l0 0c3,3 6,6 8,10 1,0 2,2 3,3 0,0 0,0 0,1 6,6 11,13 16,20 13,17 26,35 38,53 23,31 44,64 64,97l0 0c-2,6 -4,13 -6,19 -1,4 -2,8 -2,12l-2 7c-1,12 -1,23 1,34l0 1c1,14 3,38 6,70 14,119 55,351 170,604 -158,-20 -332,-25 -521,-12 -4,0 -8,0 -11,0zm-997 -1048c-185,-366 -408,-862 -547,-1263 409,-92 961,-326 1448,-616 320,-190 854,-551 1164,-993 84,280 201,615 328,883 -6,8 -12,17 -17,25 -36,50 -72,100 -108,148 -44,59 -88,117 -133,174 -65,83 -132,162 -200,240 -34,40 -69,78 -105,116 -47,52 -96,103 -145,153 -186,189 -380,359 -582,511 -62,47 -126,93 -190,137 -74,51 -150,99 -226,145 -185,111 -375,209 -570,292 -39,16 -78,32 -117,48zm-868 -2559c267,40 539,61 813,63 -4,219 30,464 137,711 -1,5 -1,10 -2,15 -2,25 -5,50 -9,73 -244,105 -478,183 -674,226 -223,-337 -312,-701 -265,-1088zm993 141c-1,-27 -1,-53 0,-79 23,0 46,0 70,-1 240,-7 481,-28 723,-62 62,104 111,211 148,323 -86,59 -178,117 -274,174 -167,99 -341,192 -514,273 -3,2 -7,4 -10,5 0,-7 1,-15 2,-22 -91,-189 -139,-394 -145,-611zm1514 -284c-118,118 -257,236 -413,351 -40,-78 -72,-159 -97,-243 171,-29 340,-65 510,-108zm-2582 -783c-3,-77 -4,-155 -4,-234 78,3 157,5 236,5 569,0 1149,-77 1725,-229 273,-72 539,-163 843,-291 8,406 61,809 158,1201 -13,4 -25,8 -37,12 -651,206 -1314,311 -1969,311 -306,0 -608,-23 -900,-69 -28,-235 -45,-472 -52,-706zm165 -1886c1119,621 1780,833 2407,999 -236,93 -450,164 -670,222 -637,168 -1281,242 -1907,217 15,-484 73,-967 170,-1438zm231 -941c186,-341 453,-549 563,-626 285,624 295,1201 29,1716 -5,10 -11,20 -16,30 -231,-113 -486,-245 -770,-405 6,-250 70,-489 194,-715zm773 -1503c228,-314 519,-487 638,-549 189,611 146,1151 -128,1608 -101,78 -229,189 -354,333 -38,-193 -105,-400 -208,-620 -2,-3 -3,-8 -5,-11 -5,-13 -14,-26 -25,-39l-8 -8c-9,-8 -21,-16 -32,-23l-6 -5 -7 -1 -8 -5 -11 -2c-11,-3 -25,-5 -40,-5 -5,0 -10,0 -15,0 -8,1 -18,3 -28,5 -4,1 -8,3 -12,4l-7 3c-11,5 -21,10 -31,18 36,-255 131,-489 287,-703zm1232 -1405c317,-225 648,-296 780,-317 -10,438 -113,809 -307,1111 -8,2 -15,4 -22,7l-1 0c-80,26 -430,152 -764,447 -20,-150 -56,-308 -110,-476 -1,-4 -2,-8 -3,-12 -4,-13 -11,-28 -21,-41l-7 -10c-8,-9 -18,-19 -29,-27l-5 -5 -5 -2 -9 -7 -9 -2c-7,-3 -14,-6 -22,-8 115,-266 293,-487 534,-658zm1205 -819c408,-150 785,-130 934,-114 -69,232 -157,439 -264,622 -347,128 -708,376 -974,845 -35,14 -70,26 -104,37 101,-250 166,-551 171,-914 0,-4 1,-7 1,-11 0,-15 -2,-31 -7,-46l-3 -11c-5,-12 -11,-24 -19,-36l-3 -6 -5 -4 -6 -9 -8 -6c-9,-8 -20,-15 -34,-22 -4,-3 -9,-4 -14,-6 -7,-3 -18,-6 -27,-8 -5,-1 -9,-1 -13,-2l-8 -1c-12,0 -23,1 -35,3l-1 0c-24,3 -76,11 -147,27 163,-146 352,-259 566,-338zm885 -749c151,164 427,369 782,579 -190,185 -401,321 -634,409 41,-101 78,-209 111,-325 1,-4 3,-8 4,-12 5,-16 7,-34 7,-51l-1 -13c-1,-15 -5,-30 -10,-45l-2 -7 -3 -6 -4 -11 -7 -9c-7,-11 -18,-23 -30,-34 -4,-4 -9,-7 -13,-10 -8,-6 -18,-12 -28,-17 -4,-2 -9,-4 -13,-6l-8 -3c-12,-4 -26,-6 -39,-7l0 0c-81,-11 -421,-48 -826,49 206,-229 444,-390 714,-481zm1925 -642c-2,8 -3,17 -2,26 11,123 165,679 416,1197 124,257 252,467 384,631 -1101,-337 -2154,-927 -2537,-1309 400,-242 1194,-473 1739,-545zm1494 -198c641,0 1135,110 1278,221 -110,387 -684,2052 -1251,2052 -687,0 -1231,-1665 -1306,-2018 200,-156 690,-255 1279,-255zm1312 779c62,-167 108,-309 136,-398 16,-50 28,-90 36,-118 3,-13 7,-26 10,-38 528,92 1205,301 1564,517 -220,219 -665,509 -1179,766 -378,190 -771,352 -1157,480 237,-336 438,-793 590,-1209zm1932 61c270,91 508,252 714,481 -405,-97 -745,-60 -826,-49l0 0c-13,1 -26,3 -39,7l-8 3c-4,2 -9,4 -13,6 -10,5 -20,11 -28,17 -4,3 -8,6 -12,10 -13,11 -23,23 -30,34l-8 9 -4 11 -3 6 -2 7c-5,15 -9,30 -10,45l-1 13c0,17 2,35 7,51 1,4 3,8 4,12 33,116 70,224 111,325 -23,-8 -46,-17 -68,-27 -181,-77 -347,-184 -501,-321 -21,-20 -43,-40 -64,-61 355,-210 630,-415 781,-579zm885 749c214,79 403,192 566,338 -71,-16 -123,-24 -147,-27l-1 0c-11,-2 -23,-3 -35,-3l-8 1c-4,1 -8,1 -13,2 -9,2 -19,5 -27,8 -5,2 -9,3 -14,6 -14,7 -25,14 -34,22l-8 6 -6 9 -4 4 -4 6c-7,12 -14,24 -19,36l-3 11c-5,15 -7,31 -6,46 0,4 0,7 0,11 5,363 70,664 172,914 -35,-11 -70,-23 -105,-37 -265,-469 -627,-717 -973,-845 -108,-183 -196,-390 -264,-622 148,-16 525,-36 933,114zm1205 819c241,171 419,392 534,658 -7,2 -15,5 -21,8l-10 2 -8 7 -6 2 -5 5c-11,8 -21,18 -29,27l-7 10c-10,13 -16,28 -21,41 -1,4 -2,8 -3,12 -54,168 -89,326 -110,476 -333,-295 -683,-421 -764,-447l0 0c-8,-3 -15,-5 -22,-7 -194,-302 -298,-673 -308,-1111 132,21 463,92 780,317zm1233 1405c155,214 250,448 286,703 -10,-8 -20,-13 -31,-18l-7 -3c-4,-1 -7,-3 -12,-4 -9,-2 -20,-4 -28,-5 -5,0 -10,0 -15,0 -15,0 -29,2 -40,5l-10 2 -9 5 -6 1 -6 5c-12,7 -23,15 -32,23l-8 8c-11,13 -20,26 -26,39 -2,3 -3,8 -5,11 -103,220 -170,427 -208,620 -125,-144 -252,-255 -354,-333 -274,-457 -317,-997 -128,-1608 119,62 410,235 639,549zm772 1503c124,226 188,465 194,715 -284,160 -538,292 -770,405 -5,-10 -10,-20 -16,-30 -266,-515 -256,-1092 29,-1716 110,77 377,285 563,626zm401 2379c-626,25 -1269,-49 -1907,-217 -219,-58 -434,-129 -670,-222 627,-166 1289,-378 2407,-999 98,471 155,954 170,1438zm-5 448c-7,234 -24,471 -52,706 -292,46 -594,69 -900,69 -655,0 -1318,-105 -1968,-311 -13,-4 -25,-8 -38,-12 98,-392 150,-795 159,-1201 304,128 569,219 842,291 576,152 1156,229 1726,229 78,0 157,-2 235,-5 0,79 -1,157 -4,234zm-340 2014c-196,-43 -429,-122 -673,-226 -4,-24 -7,-48 -10,-73 0,-5 0,-11 -1,-16 107,-248 141,-491 136,-710 276,-3 548,-24 814,-63 47,387 -42,751 -266,1088zm-1668 -767c38,-111 86,-219 148,-323 265,38 529,60 793,65 1,25 1,51 0,78 -6,224 -57,434 -153,628 -173,-81 -347,-173 -514,-273 -96,-57 -187,-116 -274,-175zm-574 -464c170,43 340,79 510,108 -25,84 -57,165 -96,243 -157,-115 -296,-233 -414,-351zm1742 2493c-35,72 -70,143 -103,209 -39,-16 -78,-32 -117,-48 -195,-83 -385,-180 -569,-292 -65,-38 -128,-79 -190,-121 -13,-7 -25,-16 -37,-24 -64,-44 -127,-89 -190,-137 -201,-152 -396,-322 -582,-511 -49,-50 -98,-101 -145,-153 -36,-38 -70,-76 -105,-116 -67,-78 -134,-158 -200,-241 -45,-56 -89,-114 -133,-173 -36,-48 -72,-98 -107,-148 -6,-8 -12,-17 -18,-25 127,-268 244,-603 328,-883 310,442 845,803 1164,993 487,290 1039,524 1448,616 -114,329 -284,722 -444,1054zm-310 525c-125,352 -344,635 -655,847 -1,-3 -2,-6 -2,-9 -2,-4 -3,-9 -5,-13 -5,-14 -11,-26 -19,-34l-4 -9 -8 -6 -4 -5 -6 -4c-10,-8 -21,-15 -33,-21l-10 -4c-15,-6 -30,-9 -43,-10 -4,0 -8,0 -12,0 -189,-13 -362,-8 -521,13 116,-254 156,-486 170,-606 4,-31 6,-55 7,-69l-1 -1c2,-11 2,-22 1,-34l-2 -7c0,-4 -1,-8 -2,-12 -2,-7 -4,-13 -6,-19 92,-150 204,-286 337,-405l0 -1c45,-40 92,-79 141,-116 233,147 474,272 723,375 -12,49 -28,99 -46,150zm-3046 1363c331,-142 563,-341 725,-556 121,-161 203,-332 258,-493 6,-18 12,-35 17,-53 181,-79 385,-133 608,-161l0 0c13,-1 27,-3 41,-5 22,-2 45,-4 68,-6 -5,57 -18,155 -48,275 -32,123 -83,270 -164,419 -31,7 -60,15 -89,23 -518,144 -844,456 -1044,746 -131,-45 -264,-87 -398,-128 4,-21 13,-41 26,-61zm-639 -735c-27,18 -56,36 -86,52 -195,24 -368,68 -522,126 270,-362 347,-744 360,-826l0 0c3,-11 5,-22 4,-34l0 -7c0,-4 -1,-9 -1,-12 -2,-10 -4,-20 -7,-28 -2,-4 -3,-9 -5,-13 -6,-13 -13,-25 -21,-34l-5 -8 -8 -6 -4 -5 -6 -3c-10,-8 -21,-14 -33,-19l-10 -4c-13,-5 -26,-7 -39,-8 195,-274 473,-484 831,-627l0 -1c62,-24 126,-47 193,-68l0 0c25,-7 49,-15 74,-22 9,90 18,280 -25,507 -12,67 -29,137 -52,209 -9,30 -20,59 -31,89 -21,54 -44,105 -69,155l0 0c-123,240 -303,436 -538,587zm-788 459l1 0c207,-117 445,-192 713,-226l43 -5c47,-5 97,-9 146,-11 35,-2 71,-3 106,-4 -14,84 -49,249 -134,439l-1 0c-2,0 -4,-1 -6,-1 -72,-18 -143,-35 -215,-51 -220,-50 -443,-94 -668,-132 5,-3 10,-6 15,-9zm-1342 -222c21,-36 44,-73 69,-111 30,-46 63,-91 100,-137 3,-3 5,-6 8,-9 36,-44 73,-85 112,-124 150,-150 325,-267 522,-350 186,-79 394,-128 621,-146 67,-6 134,-8 204,-9 21,0 41,0 62,1 -25,124 -104,434 -328,729 -3,3 -5,7 -8,10 -36,47 -74,91 -114,132 -71,74 -149,140 -233,197 -111,-16 -223,-31 -336,-44 -238,-27 -478,-48 -719,-62 12,-24 26,-50 40,-77zm-1659 -246c-33,-47 -68,-93 -107,-140l5 0c328,-711 986,-6713 986,-6713 0,0 591,5525 928,6601 -52,52 -99,107 -142,162l0 0c-408,-174 -987,-261 -1670,90zm-60 240c52,-31 105,-60 157,-86 467,-237 929,-280 1377,-128 31,10 60,22 89,33 -46,72 -84,142 -117,208 -95,11 -189,23 -268,38 -100,-2 -201,-3 -302,-3 -232,0 -463,6 -693,19 -65,3 -129,7 -194,11 -36,3 -73,5 -110,8 -15,-14 -27,-27 -38,-38 33,-22 66,-42 99,-62zm-2664 -818l0 0c-25,-50 -48,-101 -69,-155 -11,-30 -21,-59 -31,-89 -23,-72 -40,-142 -52,-209 -43,-227 -34,-417 -25,-507 25,7 50,15 74,22 67,21 131,44 194,68 358,144 636,354 830,628 -12,1 -25,3 -38,8l-10 4c-12,5 -24,11 -34,19l-6 3 -4 5 -8 6 -5 8c-8,9 -15,21 -21,34 -2,4 -3,9 -5,13 -2,8 -5,18 -6,28 -1,3 -2,8 -2,12l0 7c0,12 1,23 4,34l0 0c14,82 91,464 360,826 -153,-59 -327,-102 -522,-126 -29,-16 -58,-34 -86,-52 -235,-151 -414,-347 -538,-587zm-1058 -633l-7 1c-13,2 -25,5 -37,11l-7 2 -5 3 -9 4 -7 7c-10,7 -19,16 -28,28 -3,4 -6,7 -8,11 -4,7 -9,16 -13,25 -2,4 -3,8 -4,12l-2 7c-3,11 -5,22 -4,33l-1 1c-4,55 -12,248 35,493 -189,-69 -406,-118 -656,-139 -86,-144 -195,-286 -334,-420 -24,-62 -44,-125 -61,-191 243,-176 476,-377 699,-603 61,58 118,119 170,183 55,177 143,358 279,532zm901 -509c-3,-2 -6,-3 -10,-3 -13,-4 -28,-6 -44,-6l-11 1c-13,1 -26,4 -38,9l-6 2 -6 3 -9 3 -7 7c-10,6 -20,15 -30,26 -3,4 -6,7 -8,12 -5,6 -10,15 -14,23 -3,4 -4,8 -5,12l-3 7c-3,11 -5,22 -6,33l0 1c-8,64 -32,317 33,629 -126,-69 -268,-129 -427,-179 -19,-17 -37,-34 -54,-52 -196,-201 -328,-437 -393,-707 -6,-28 -12,-56 -18,-85 -15,-81 -23,-159 -26,-233 116,-134 229,-275 339,-424 370,240 619,549 743,921zm8447 -498c-3,75 -11,153 -26,234 -6,29 -12,57 -18,85 -66,270 -197,506 -392,706 -18,18 -36,36 -55,53 -159,50 -301,110 -427,179 65,-312 41,-565 33,-629l0 -1c-1,-11 -3,-22 -6,-33l-3 -7c-1,-4 -2,-8 -4,-12 -4,-8 -10,-17 -14,-23 -3,-5 -6,-8 -9,-12 -10,-11 -19,-20 -29,-26l-8 -7 -9 -3 -5 -3 -7 -2c-12,-5 -25,-8 -38,-9l-11 -1c-16,0 -31,2 -44,6 -4,0 -6,1 -10,3 124,-372 373,-681 743,-921 109,148 222,289 339,423l0 0zm-49 1152l0 -1c0,-11 -2,-22 -5,-33l-2 -7c-1,-4 -2,-8 -4,-12 -4,-9 -8,-18 -13,-25 -2,-4 -4,-7 -8,-11 -9,-12 -18,-21 -28,-28l-7 -7 -8 -4 -6 -3 -6 -2c-12,-6 -25,-9 -38,-11l-7 -1c137,-174 225,-355 280,-532l0 -1c52,-63 108,-124 170,-183 221,227 454,428 698,604 -16,65 -37,129 -61,191 -139,134 -248,276 -334,420 -250,21 -467,70 -656,139 47,-245 39,-438 35,-493zm-2225 -9505l-1 0c-12,1 -24,4 -36,9l-7 3c-4,1 -8,3 -12,5 -9,5 -18,11 -25,16 -4,3 -8,6 -11,10 -12,11 -21,22 -27,33l-7 8 -3 10 -3 6 -1 7c-5,13 -8,27 -9,41l0 12c1,17 3,33 8,47 1,4 3,8 4,12 46,145 100,276 158,397 -437,-50 -823,-254 -1151,-609 329,-133 640,-280 916,-429 74,18 146,40 217,69 168,147 342,254 515,330 3,3 7,7 10,10 -269,-26 -476,3 -535,13zm1146 704l0 0c-12,-2 -25,-3 -37,-2l-8 1c-5,1 -9,2 -14,3 -10,2 -20,6 -28,9 -5,2 -10,4 -14,6 -14,8 -26,16 -35,25l-8 7 -6 9 -5 4 -3 7c-8,12 -15,25 -19,38l-3 12c-5,16 -6,33 -5,48 0,4 0,8 1,12 8,194 33,370 70,530 -450,-232 -775,-643 -968,-1226 137,-20 486,-49 868,78 333,111 603,310 810,595 -288,-119 -531,-150 -596,-156zm1059 1263c-128,-61 -226,-93 -264,-104l-1 0c-10,-4 -22,-7 -34,-8l-7 -1c-5,0 -9,0 -13,0 -10,1 -20,2 -29,4 -4,1 -9,1 -14,3 -14,4 -27,10 -37,18l-9 3 -7 8 -6 4 -4 5c-10,10 -18,21 -24,32l-6 11c-7,14 -11,29 -13,44 -1,4 -1,8 -1,11 -15,101 -24,197 -28,290 -333,-340 -517,-804 -548,-1383 138,17 487,80 827,306 94,62 179,132 256,208 -31,197 -42,380 -38,549zm433 522c221,218 365,478 433,778 -8,33 -16,65 -23,97 -100,-103 -182,-167 -213,-190l-1 -1c-9,-8 -19,-14 -29,-19l-7 -3c-4,-2 -8,-4 -12,-5 -10,-3 -20,-5 -28,-7 -5,-1 -10,-1 -15,-2 -15,0 -29,1 -40,4l-11 1 -9 4 -6 2 -6 3c-12,7 -24,13 -34,22l-9 8c-11,11 -21,24 -27,37 -3,3 -4,7 -6,10 -90,166 -159,325 -208,477l-1 -1c-403,-417 -561,-972 -468,-1651 126,41 442,163 720,436zm723 235c-17,1 -32,4 -44,8l-11 2 -9 6 -7 3 -6 5c-12,8 -24,17 -34,27l-8 10c-11,13 -20,28 -26,43 -2,4 -3,8 -5,12 -15,38 -29,75 -43,112 -173,-431 -484,-705 -752,-870 -16,-207 -5,-427 33,-660 137,50 478,193 772,499 1,1 1,2 2,3 -8,310 51,575 144,800 -2,0 -4,0 -6,0zm51 2118c-285,100 -538,170 -789,235 -3,-8 -7,-15 -11,-23 -233,-531 -188,-1107 135,-1711 104,83 358,307 524,659 126,269 172,550 141,840zm781 -319c-214,99 -408,180 -588,249 30,-523 -176,-932 -385,-1207 29,-200 85,-406 170,-619 111,69 367,249 580,549 -27,416 79,759 223,1028zm-10333 -3619c-32,579 -216,1043 -548,1383 -5,-93 -14,-189 -28,-290 -1,-3 -1,-7 -2,-11 -2,-15 -6,-30 -13,-44l-6 -11c-6,-11 -14,-22 -24,-32l-4 -5 -6 -4 -6 -8 -10 -3c-10,-8 -23,-14 -37,-18 -5,-2 -9,-2 -14,-3 -8,-2 -19,-3 -29,-4 -4,0 -8,0 -12,0l-8 1c-12,1 -24,4 -34,8l-1 0c-37,11 -136,43 -264,104 5,-169 -7,-352 -38,-549 77,-76 162,-146 256,-208 340,-226 689,-289 828,-306zm1095 -717c-193,583 -518,994 -968,1226 37,-160 62,-336 71,-530 0,-4 0,-8 0,-12 1,-15 0,-32 -4,-48l-4 -12c-4,-13 -11,-26 -19,-38l-3 -7 -4 -4 -6 -9 -9 -7c-9,-9 -21,-17 -35,-25 -4,-2 -9,-4 -13,-6 -9,-3 -19,-7 -29,-9 -5,-1 -9,-2 -13,-3l-8 -1c-13,-1 -25,0 -38,2l0 0c-65,6 -308,37 -596,156 207,-285 477,-484 810,-595 382,-127 731,-98 868,-78zm197 -80l-1 -7 -3 -6 -3 -10 -7 -8c-6,-11 -15,-22 -26,-33 -4,-4 -8,-7 -12,-10 -7,-5 -16,-11 -25,-16 -4,-2 -8,-4 -12,-5l-7 -3c-12,-5 -24,-8 -36,-9l-1 0c-58,-10 -265,-39 -535,-13 3,-3 7,-7 10,-10 173,-76 347,-183 515,-330 71,-29 143,-51 217,-69 277,149 587,296 917,429 -328,355 -714,559 -1152,609 59,-121 112,-252 158,-397 1,-4 3,-8 4,-12 5,-14 8,-30 8,-47l0 -12c-1,-14 -4,-28 -9,-41zm-2728 3121c-2,-3 -3,-7 -5,-10 -7,-13 -16,-26 -28,-37l-8 -8c-11,-9 -23,-15 -35,-22l-6 -3 -6 -2 -9 -4 -10 -1c-12,-3 -25,-4 -41,-4 -5,1 -10,1 -14,2 -9,2 -19,4 -28,7 -5,1 -9,3 -13,5l-6 3c-11,5 -21,11 -30,19l-1 1c-31,23 -113,87 -213,190 -7,-32 -14,-64 -23,-97 68,-300 212,-560 433,-778 278,-273 594,-395 720,-436 94,679 -64,1234 -468,1651 0,0 -1,1 -1,1 -49,-152 -118,-311 -208,-477zm-675 774c165,-352 419,-576 523,-659 324,604 369,1180 135,1711 -4,8 -8,15 -11,23 -251,-65 -504,-135 -788,-235 -32,-290 15,-571 141,-840zm-97 -1278c93,-225 152,-490 144,-800 1,-1 2,-2 3,-3 293,-306 634,-449 771,-499 38,233 49,453 33,660 -267,165 -578,439 -752,870 -14,-37 -28,-74 -43,-112 -2,-4 -3,-8 -5,-12 -6,-15 -15,-30 -26,-43l-8 -10c-10,-10 -21,-19 -34,-27l-6 -5 -6 -3 -10 -6 -11 -2c-12,-4 -27,-7 -44,-8 -2,0 -4,0 -6,0zm-238 2048c-180,-69 -374,-150 -587,-249 143,-269 249,-612 222,-1028 213,-300 469,-480 580,-549 85,213 141,419 170,619 -208,275 -415,684 -385,1207zm1208 363l-27 -7c-6,-1 -11,-2 -17,-4 140,-318 221,-727 110,-1215 300,-277 587,-709 623,-1356 241,-204 467,-491 606,-896 338,-138 693,-390 966,-843 441,-20 975,-189 1451,-733 285,107 582,202 880,276 134,89 271,134 410,134 158,0 307,-77 448,-206 207,-60 413,-129 613,-204 477,544 1010,713 1451,733 273,453 628,705 966,843 140,405 365,692 606,896 36,647 323,1079 623,1356 -111,488 -29,897 110,1215 -6,2 -11,3 -17,4l-26 7c-45,12 -77,50 -81,95 -1,14 0,27 4,39 -1,8 -2,15 -2,23 0,395 -44,787 -132,1169 0,2 -1,4 -2,6 -89,338 -250,822 -409,1141 -17,35 -14,77 8,109 15,22 30,44 46,66 -511,335 -745,754 -843,1131 -557,196 -890,513 -1088,839 -306,12 -564,72 -782,163 -241,-694 -624,-2044 -844,-4100 0,0 -202,-1819 -152,-2246l-1 0c0,-62 -2,-329 -76,-329l-41 0c660,-219 679,-822 679,-829l2 -93 -1100 0c8,-3 603,-236 0,-1379 -604,1143 -9,1376 -1,1379l-1100 0 2 93c0,7 19,610 680,829l-41 0c-74,0 -77,329 -77,329 0,5 1,9 1,13l0 1 0 0c45,449 -154,2232 -154,2232 -225,2116 -625,3485 -864,4160 -242,-124 -541,-209 -910,-223 -198,-326 -531,-643 -1088,-839 -98,-377 -332,-796 -842,-1131 15,-22 30,-44 46,-66 22,-32 25,-74 7,-109 -159,-319 -320,-803 -409,-1141 0,-2 -1,-4 -2,-6 -88,-382 -132,-774 -132,-1169 0,-8 -1,-15 -2,-23 4,-12 5,-25 4,-39 -3,-45 -36,-83 -80,-95zm-456 4906c23,2 46,4 68,6 14,2 28,4 41,5 135,17 262,44 382,79 79,24 154,51 226,82 5,17 11,35 17,53 55,161 137,332 259,493 161,215 393,414 724,556 2,2 3,5 4,8 3,4 6,9 8,13 1,3 3,6 4,9 3,7 5,13 7,20 1,1 1,3 2,5 1,7 3,14 3,21 1,2 1,4 1,6 1,9 1,17 0,26 -150,47 -273,88 -369,122 0,0 0,0 -1,1 0,0 0,-1 0,-1l-1 0 -5 -5c-1,-1 -1,-1 -2,-2 -184,-280 -486,-588 -964,-749 -1,0 -2,-1 -4,-1 -3,-1 -6,-2 -9,-3 -29,-9 -59,-19 -90,-27l0 0c-29,-8 -58,-16 -88,-23 -82,-149 -133,-295 -164,-418l0 -1c-31,-119 -44,-218 -49,-275zm1951 747l0 1c8,54 39,245 137,476 -37,-12 -80,-29 -129,-52 -51,-17 -100,-35 -148,-55 -87,-36 -169,-77 -245,-123 -201,-121 -363,-276 -487,-466 -46,-69 -86,-144 -121,-223 -1,-2 -3,-5 -4,-7 -21,-49 -39,-97 -55,-144 -13,-38 -24,-75 -33,-111 -62,-238 -63,-441 -58,-536 14,3 29,7 43,10 44,11 86,22 128,35 34,10 68,20 101,32 182,62 344,141 488,238 15,44 32,87 52,131 96,214 244,431 472,617 -12,0 -26,3 -39,7l-11 3c-12,5 -23,11 -34,19l-6 3 -4 5 -8 5 -5 9c-9,8 -16,19 -22,33 -2,4 -4,8 -5,13 -3,7 -6,17 -8,27 -1,4 -1,8 -1,12l-1 7c0,11 1,23 3,34zm184 5c36,1 71,2 106,4 49,2 98,6 146,11 15,2 29,3 43,5 268,34 506,109 713,226l1 0c16,9 33,19 49,29 -237,42 -470,91 -700,146 -70,17 -139,34 -208,52 -4,-9 -9,-18 -12,-28l0 0c-88,-193 -124,-361 -138,-445zm2050 55c-2,11 -2,25 0,39 1,5 2,10 3,14 2,8 5,17 9,26 1,2 1,3 2,4 -236,22 -470,51 -701,87 -94,-61 -181,-133 -259,-215 -41,-41 -79,-85 -115,-132 -2,-3 -5,-6 -7,-9l0 -1c-224,-294 -304,-604 -329,-729 21,-1 41,-1 62,-1 70,1 138,3 204,9 280,23 529,91 747,205 150,78 285,178 404,299 39,39 76,81 112,125 24,29 47,59 67,89 -41,25 -82,51 -124,79 -3,2 -7,4 -10,6 -12,8 -23,18 -33,30l-6 9c-8,10 -14,22 -18,35l-4 5 -1 7 -3 9 0 10zm4553 -101c0,-4 0,-8 -1,-12 -2,-10 -5,-20 -8,-27 -1,-5 -2,-9 -5,-13 -6,-14 -13,-25 -21,-33l-5 -9 -9 -5 -4 -5 -6 -3c-11,-8 -22,-14 -34,-19l-11 -3c-13,-4 -26,-7 -39,-7 228,-186 376,-403 472,-617 20,-44 37,-87 53,-131 143,-97 305,-176 487,-238 33,-12 67,-22 102,-32 41,-13 83,-24 127,-35 14,-3 29,-7 44,-10 4,95 3,298 -59,536 -10,37 -20,73 -33,111 -16,47 -34,96 -55,144 -2,2 -3,5 -4,7 -35,79 -75,154 -121,223 -124,190 -286,345 -486,466 -77,46 -158,87 -246,123l0 0c-47,20 -96,38 -147,55 -50,23 -93,40 -130,52 98,-231 130,-422 137,-476l0 -1c3,-11 3,-23 3,-34l-1 -7zm2423 172c-20,69 -51,164 -102,272 -57,124 -137,263 -250,397 -121,143 -259,258 -414,346 -230,-111 -469,-213 -715,-307l-1 0c-53,-21 -107,-41 -162,-61 25,-34 51,-68 80,-102 8,-9 16,-19 25,-28 192,-218 426,-375 699,-470 17,-6 35,-11 52,-17 69,-22 142,-40 216,-53 54,-10 109,-19 165,-24 134,-15 274,-18 422,-9 -4,16 -9,34 -15,56z"/>
   <path class="fil0" d="M5475 14093c20,-10 40,-19 61,-28 8,-4 16,-8 24,-11 -28,13 -57,26 -85,39z"/>
   <polygon class="fil0" points="6929,14342 7174,14965 7316,14910 7071,14286 "/>
   <path class="fil0" d="M7848 14161l-35 -116 -96 29 -38 11 57 187c4,13 8,26 12,39 25,81 50,155 81,226l-3 1c-52,-64 -113,-133 -172,-188l-203 -196 -170 51 194 642 133 -40 -58 -192c-32,-105 -61,-196 -91,-279l4 -2c52,66 120,136 179,193l213 206 151 -46 -86 -286 -72 -240z"/>
   <path class="fil0" d="M8360 14208c-6,-1 -12,-2 -18,-3 -12,-2 -24,-4 -34,-6 -68,-12 -100,-25 -107,-61 -3,-13 -1,-27 7,-40 5,-7 11,-14 19,-20 13,-10 31,-18 55,-23 58,-13 106,-6 136,0 3,0 6,1 8,1l7 -126c-17,-4 -36,-6 -57,-7l-1 0c-32,-2 -71,1 -117,11 -49,10 -89,28 -122,51 -2,1 -3,3 -5,4 -66,49 -94,120 -78,195 10,47 35,81 72,105l1 0c38,26 90,42 151,50 83,10 120,28 128,68 9,43 -21,79 -89,93 -31,7 -64,9 -94,7 -30,-2 -57,-6 -79,-12l-3 129c41,12 119,17 194,1 65,-14 115,-38 151,-68 52,-42 75,-97 73,-154 0,-13 -2,-26 -5,-39 -18,-88 -79,-136 -193,-156z"/>
   <polygon class="fil0" points="9118,13925 9099,13800 8898,13830 8709,13858 8588,13877 8600,13955 8608,14002 8668,13993 8669,13993 8772,13977 8786,13975 8793,14020 8793,14021 8801,14070 8846,14369 8868,14512 9018,14490 9011,14445 8937,13952 8958,13949 "/>
   <polygon class="fil0" points="9440,14086 9407,13768 9256,13784 9325,14451 9476,14435 9445,14129 "/>
   <polygon class="fil0" points="10084,13806 10080,13733 10079,13723 10049,13724 9904,13732 9564,13751 9571,13878 9751,13868 9759,14009 9763,14085 9773,14262 9776,14317 9782,14410 9911,14403 9934,14402 9928,14300 9911,13996 9908,13944 9903,13860 10020,13853 10086,13850 10084,13807 "/>
   <path class="fil0" d="M10643 13792l-3 172 0 22 -2 127c-2,117 -47,172 -126,171 -77,-2 -122,-61 -120,-175l3 -135 2 -147 1 -37 0 -11 1 -58 -99 -2 -52 -1 -1 53 -2 123 -1 23 -1 53 0 12 -2 112c-2,128 32,212 95,261 43,32 99,48 168,49 123,2 213,-44 256,-144l0 0c17,-40 27,-89 29,-148 0,-2 0,-4 0,-7l2 -107 4 -224 0 -46 -151 -3 -1 67z"/>
   <polygon class="fil0" points="10964,13737 10964,13739 10952,13864 11132,13880 11115,14077 11111,14120 11084,14421 11236,14435 11284,13894 11466,13910 11478,13784 10968,13738 "/>
   <polygon class="fil0" points="11689,13812 11642,13805 11620,13948 11620,13949 11544,14444 11540,14468 11825,14511 11963,14533 11980,14417 11981,14417 11981,14410 11709,14368 11709,14368 11733,14211 11919,14239 11977,14248 11986,14189 11996,14126 11752,14089 11773,13951 11815,13957 11938,13976 12031,13991 12042,13919 12050,13868 11878,13842 "/>
   <path class="fil0" d="M12912 14414c-32,117 -112,203 -215,174 -71,-19 -107,-81 -110,-157 -2,-32 2,-66 12,-101 15,-57 42,-106 77,-139 20,-19 43,-33 68,-39l1 0c22,-6 46,-6 71,1 54,15 86,54 100,102 14,48 11,105 -4,159zm-22 -363c-12,-5 -24,-9 -37,-12 -190,-52 -355,51 -409,252 0,0 -1,1 -1,1 -18,69 -20,134 -6,192 25,105 102,186 223,219 173,47 348,-32 407,-249 29,-108 19,-211 -32,-289 -32,-50 -80,-89 -145,-114z"/>
   <polygon class="fil0" points="13108,14825 13251,14878 13345,14626 13571,14711 13614,14596 13388,14511 13442,14367 13683,14458 13727,14341 13344,14197 "/>
   <polygon class="fil0" points="1826,15252 1982,15876 2127,15847 1972,15224 "/>
   <path class="fil0" d="M2553 15114l44 181c23,95 46,179 76,259l-3 1c-47,-65 -103,-136 -158,-194l-188 -204 -170 32 151 624 134 -25 -45 -187c-25,-102 -49,-191 -73,-272l4 -1c48,67 110,139 165,200l196 214 152 -29 -151 -624 -134 25z"/>
   <path class="fil0" d="M3189 15542c-19,3 -39,6 -53,7l-94 -410c13,-5 33,-11 65,-17 126,-22 219,33 249,163 35,149 -35,235 -167,257zm158 -505c-73,-34 -157,-42 -281,-21 -72,13 -141,30 -193,48l142 614c37,-2 92,-7 169,-20 124,-22 222,-66 278,-133 50,-62 76,-152 48,-272 -25,-110 -85,-180 -163,-216z"/>
   <polygon class="fil0" points="3597,14930 3734,15557 3881,15533 3744,14906 "/>
   <path class="fil0" d="M4179 15212l13 -140c3,-36 4,-86 6,-124l3 0c17,35 37,80 56,116l65 129 -143 19zm-90 -359l-80 655 153 -20 15 -168 187 -24 80 154 160 -21 -322 -602 -193 26z"/>
   <path class="fil0" d="M5067 14764l21 185c11,96 23,181 43,264l-3 0c-39,-69 -86,-146 -133,-211l-162 -224 -174 9 71 634 137 -8 -21 -189c-12,-104 -24,-194 -38,-277l4 -1c39,73 92,151 139,218l169 235 155 -8 -71 -634 -137 7z"/>
   <path class="fil0" d="M15485 15073c-86,-28 -123,-45 -121,-84 2,-31 35,-61 101,-63 67,-1 114,16 140,26l39 -114c-38,-15 -92,-28 -171,-26 -158,5 -260,87 -265,193 -5,91 67,144 178,179 79,24 110,46 108,84 -2,40 -41,68 -111,70 -65,1 -128,-16 -168,-34l-37 116c37,19 113,36 190,34 186,-5 276,-97 282,-201 4,-87 -48,-143 -165,-180z"/>
   <path class="fil0" d="M15738 15134c-22,177 81,315 314,324 82,3 146,-9 176,-20l-10 -111c-31,9 -83,17 -129,15 -136,-5 -206,-86 -191,-210 17,-138 120,-202 240,-197 54,2 95,14 124,27l45 -109c-24,-15 -83,-31 -162,-34 -204,-7 -382,104 -407,315z"/>
   <polygon class="fil0" points="16313,15466 16464,15480 16577,14862 16426,14848 "/>
   <polygon class="fil0" points="17104,15041 17128,14927 16720,14878 16589,15493 17012,15545 17036,15431 16763,15397 16795,15251 17039,15281 17063,15168 16819,15138 16846,15010 "/>
   <path class="fil0" d="M17621 15174c-22,93 -37,177 -46,259l-3 0c-15,-74 -36,-155 -61,-226l-86 -243 -174 -23 -139 614 137 19 42 -185c23,-100 40,-188 54,-269l4 0c15,76 41,161 66,232l88 256 156 20 139 -614 -137 -19 -40 179z"/>
   <path class="fil0" d="M18142 15603c-132,-25 -188,-116 -154,-238 38,-136 149,-185 265,-163 52,10 91,28 117,45l61 -103c-21,-18 -76,-42 -153,-56 -198,-37 -389,49 -447,257 -49,173 30,327 256,368 80,15 145,12 175,5l8 -113c-32,6 -84,6 -128,-2z"/>
   <polygon class="fil0" points="18914,15381 18957,15270 18568,15157 18335,15752 18738,15869 18781,15759 18522,15683 18577,15542 18809,15610 18852,15500 18620,15433 18668,15309 "/>
   <path class="fil0" d="M6553 18248l0 560c-44,112 -148,187 -264,187 -152,0 -275,-147 -275,-329 231,0 420,-108 420,-242 -2,-77 -99,-152 -233,-176l352 0zm-5405 143c0,31 -19,55 -44,55 -24,0 -44,-24 -44,-55l0 -242c0,-31 20,-55 44,-55 25,0 44,24 44,55l0 242zm0 494c2,55 -28,99 -66,99 -48,0 -88,-44 -88,-99 0,-55 40,-99 88,-99l66 0 0 99zm4464 -747l-129 0c-2,-268 -262,-483 -583,-483 -206,2 -373,118 -373,263 0,60 31,130 88,198l329 0c-48,-39 -74,-112 -74,-198 -3,-103 57,-186 129,-186 110,0 198,182 198,406l-129 0 0 0 -1358 0 -44 0 -920 0 -45 0 -544 0 -569 0 0 110 110 0 0 450 -264 0 0 -428c0,-145 -147,-264 -330,-264 -182,3 -329,119 -329,264 0,145 147,264 329,264l44 0 0 164 -66 0c-134,0 -241,84 -241,187 2,128 138,231 307,231 159,0 286,-103 286,-231l0 -99 264 0 0 341c2,48 -49,88 -110,88l0 66 505 0 0 -66c-61,0 -110,-40 -110,-88l0 -879 174 0 0 0 129 0 0 879c2,48 -48,88 -110,88l0 66 506 0 0 -66c-62,0 -110,-40 -110,-88l0 -879 129 0 45 0 199 0c176,0 319,147 319,330 -2,164 -139,296 -308,296 -72,0 -138,-11 -198,-33l-22 66c60,0 150,79 286,220 95,99 198,154 286,154 127,0 250,-70 329,-187l-43 -55c-40,49 -102,77 -165,77 -73,2 -165,-59 -253,-165 248,-41 431,-191 431,-351 -3,-181 -189,-334 -431,-352l490 0 44 0 898 0 0 231c-74,-51 -188,-77 -329,-77 -292,0 -528,202 -528,450 3,156 82,312 220,429l264 -132c-90,-73 -141,-207 -141,-363 0,-164 112,-296 251,-296 101,0 195,31 263,88l0 549c3,48 -48,88 -109,88l0 66 505 0 0 -66c-61,0 -110,-40 -110,-88l0 -879 129 0 0 0 174 0 0 901c2,37 -48,66 -110,66l0 66 506 0 0 -66c-62,2 -110,-29 -110,-66l0 -901 129 0 44 0 204 0c128,0 231,79 231,176 0,96 -103,176 -231,176 -83,2 -147,-7 -186,-22 -3,310 215,560 483,560 176,2 325,-75 396,-198l0 187c0,48 -53,88 -119,88l0 66 514 0 0 -66c-61,0 -110,-40 -110,-88l0 -879 174 0 0 -110 -1356 0 -44 0z"/>
   <path class="fil0" d="M7998 18116c-18,-20 -9,-61 -9,-154 0,-134 108,-241 240,-241 257,0 485,158 571,395l286 0c-106,-290 -444,-483 -846,-483 -328,0 -594,147 -594,329 3,49 25,104 66,154l286 0z"/>
   <path class="fil0" d="M12049 19083c-48,0 -75,-128 -75,-286 0,-169 22,-307 75,-307 53,2 66,138 66,307 0,158 -18,286 -66,286zm-3073 -154c-60,57 -130,88 -198,88 -125,-2 -229,-118 -229,-264 3,-145 104,-263 229,-263 70,-2 143,31 198,88l0 351zm2621 -791l-589 0 -44 0 -1529 0 -44 0 -1219 0 0 0 -633 0 0 110 173 0 0 879c3,48 -48,88 -110,88l0 66 506 0 0 -66c-62,0 -110,-40 -110,-88l0 -879 174 0 0 0 804 0 0 242c-71,-84 -192,-132 -330,-132 -242,2 -440,178 -440,395 3,218 198,396 440,396 138,0 259,-48 330,-132l0 110c2,48 -49,88 -110,88l0 66 505 0 0 -66c-61,0 -110,-40 -110,-88l0 -879 130 0 44 0 1114 0 0 176c-238,0 -466,-88 -703,-88 -194,0 -352,108 -352,242 0,121 127,219 286,219l186 0c90,0 165,64 165,143 -2,103 -118,187 -264,187 -155,0 -287,-31 -373,-88l-44 77c116,42 218,114 297,209 81,97 197,154 318,154 93,0 181,-55 231,-143l-44 -44c-46,26 -70,39 -86,39 -59,-2 -125,-44 -178,-116l121 0c202,-2 365,-119 365,-264 0,-134 -114,-242 -255,-242l-264 0c-66,0 -118,-59 -118,-131 0,-73 68,-132 151,-132 189,0 370,88 561,88l0 593c2,48 -49,88 -110,88l0 66 505 0 0 -66c-61,0 -110,-40 -110,-88l0 -879 130 0 44 0 129 0 0 879c2,48 -48,88 -110,88l0 66 506 0 0 -66c-62,0 -110,-40 -110,-88l0 -879 129 0 0 0 1090 0 0 297c-162,-95 -367,-143 -593,-143 -231,2 -418,178 -418,395 0,207 187,374 418,374 226,0 409,-167 409,-374 0,-116 -60,-219 -156,-274 164,28 281,70 340,121l0 483c2,48 -48,88 -110,88l0 66 506 0 0 -66c-62,0 -110,-40 -110,-88l0 -879 173 0 0 -110 -1504 0 0 0z"/>
   <path class="fil0" d="M14948 17929c73,0 132,-59 132,-131 0,-73 -59,-132 -132,-132 -72,0 -131,59 -131,132 0,72 59,131 131,131z"/>
   <path class="fil0" d="M15948 19116c-66,2 -154,-59 -241,-165 248,-46 430,-198 430,-362 0,-174 -197,-323 -452,-341l725 0 0 -110 -1178 0 -1604 0 0 110 222 0c189,0 341,147 341,330 2,158 -152,285 -341,285 -70,2 -125,-6 -165,-22l-22 66c82,31 170,99 253,198 95,112 202,176 297,176 121,2 246,-64 340,-176l-55 -55c-33,42 -99,66 -175,66 -51,2 -132,-59 -220,-165 239,-11 431,-165 431,-351 -3,-181 -189,-334 -431,-352l703 0 0 472c-40,38 -86,58 -132,58 -48,0 -101,-16 -154,-47l-22 88c51,31 112,46 176,46 46,-2 92,-13 132,-35l0 297c2,48 -48,88 -110,88l0 66 506 0 0 -66c-62,0 -110,-40 -110,-88l0 -879 140 0 0 0 189 0c206,2 373,138 373,308 0,169 -162,307 -362,307 -55,2 -103,-6 -143,-22l-22 66c81,31 169,99 253,198 94,112 202,176 296,176 99,2 213,-64 308,-176l-44 -66c-42,49 -90,77 -132,77z"/>
   <path class="fil0" d="M16271 18738c-46,0 -92,-13 -136,-40l-33 77c57,33 114,51 165,51 66,0 121,-13 165,-40l-22 -88c-44,27 -92,40 -139,40z"/>
   <path class="fil0" d="M18898 19083c-48,0 -74,-128 -74,-286 0,-169 22,-307 74,-307 53,2 66,138 66,307 0,158 -17,286 -66,286zm-2093 -604l0 -220c2,-42 53,-77 116,-77 58,2 104,35 104,77l0 220c0,42 -46,77 -104,77 -63,-3 -116,-35 -116,-77zm3146 -231l0 -110 -1505 0 0 0 -588 0 -548 0 0 110 88 0 0 582c-33,110 -171,187 -340,187 -176,0 -319,-107 -319,-242 316,0 571,-186 571,-417 0,-145 -186,-264 -417,-264 -207,2 -374,119 -374,264 0,158 167,286 374,286 -49,41 -147,65 -275,65 -86,0 -149,-11 -187,-32 -2,279 216,505 484,505 220,-2 400,-75 483,-198l0 143c3,48 -48,88 -110,88l0 66 506 0 0 -66c-62,0 -110,-40 -110,-88l0 -879 174 0 0 0 129 0 0 879c2,48 -49,88 -110,88l0 66 505 0 0 -66c-61,0 -110,-40 -110,-88l0 -879 130 0 0 0 1090 0 0 297c-163,-95 -367,-143 -594,-143 -230,2 -417,178 -417,395 0,207 187,374 417,374 227,0 409,-167 409,-374 0,-116 -59,-219 -156,-274 165,28 281,70 341,121l0 483c2,48 -49,88 -110,88l0 66 505 0 0 -66c-61,0 -109,-40 -109,-88l0 -879 173 0z"/>
  </g>
 </g>
</svg>
